<svg width="140" height="140" viewBox="0 0 140 140" fill="none" xmlns="http://www.w3.org/2000/svg">
<g id="Group 1000003115">
<g id="Vector">
<path d="M140 70C140 108.66 108.66 140 70 140C31.3401 140 0 108.66 0 70C0 31.3401 31.3401 0 70 0C108.66 0 140 31.3401 140 70Z" fill="#787794"/>
<path fill-rule="evenodd" clip-rule="evenodd" d="M5 69.9984C5 34.1014 34.0998 5 69.9989 5C105.9 5 135 34.1013 135 69.9995C135 105.896 105.9 135 69.9989 135C34.0998 135 5 105.896 5 69.9984ZM69.9989 7.69301C35.5873 7.69301 7.69307 35.5886 7.69307 69.9984C7.69307 104.409 35.5873 132.307 69.9989 132.307C104.413 132.307 132.307 104.409 132.307 69.9995C132.307 35.5886 104.413 7.69301 69.9989 7.69301Z" fill="#FEFEFE"/>
<path d="M25.8619 108.911C25.1807 108.1 25.2866 106.889 26.0984 106.208C26.9101 105.527 28.1203 105.633 28.8015 106.445C29.4826 107.256 29.3767 108.467 28.565 109.148C27.7532 109.829 26.543 109.723 25.8619 108.911Z" fill="white"/>
<path d="M121.606 40.704C122.135 41.6217 121.821 42.7952 120.903 43.325C119.986 43.8549 118.812 43.5404 118.282 42.6227C117.752 41.705 118.067 40.5316 118.985 40.0017C119.902 39.4719 121.076 39.7863 121.606 40.704Z" fill="white"/>
<path d="M109.042 115.508C108.23 116.189 107.02 116.083 106.339 115.271C105.658 114.459 105.764 113.249 106.575 112.568C107.387 111.887 108.597 111.993 109.278 112.805C109.96 113.616 109.854 114.827 109.042 115.508Z" fill="white"/>
<path d="M51.0216 126.225C50.0258 125.863 49.5124 124.762 49.8748 123.766C50.2373 122.77 51.3383 122.257 52.3341 122.619C53.3298 122.982 53.8432 124.083 53.4808 125.079C53.1184 126.074 52.0173 126.588 51.0216 126.225Z" fill="white"/>
<path d="M32.458 25.7311C33.2697 25.05 34.48 25.1559 35.1611 25.9676C35.8423 26.7794 35.7364 27.9896 34.9246 28.6707C34.1129 29.3519 32.9026 29.246 32.2215 28.4343C31.5404 27.6225 31.6462 26.4123 32.458 25.7311Z" fill="white"/>
<path d="M15.4722 91.2494C15.1098 90.2536 15.6232 89.1526 16.619 88.7902C17.6147 88.4277 18.7158 88.9411 19.0782 89.9369C19.4406 90.9327 18.9272 92.0337 17.9314 92.3961C16.9357 92.7586 15.8346 92.2451 15.4722 91.2494Z" fill="white"/>
<path d="M81.4676 128.64C80.424 128.824 79.4289 128.127 79.2449 127.083C79.0609 126.04 79.7577 125.045 80.8013 124.861C81.8448 124.677 82.84 125.374 83.024 126.417C83.208 127.461 82.5112 128.456 81.4676 128.64Z" fill="white"/>
<path d="M91.3802 125.897C90.3844 126.26 89.2834 125.746 88.9209 124.75C88.5585 123.755 89.0719 122.654 90.0677 122.291C91.0635 121.929 92.1645 122.442 92.5269 123.438C92.8893 124.434 92.3759 125.535 91.3802 125.897Z" fill="white"/>
<path d="M128.77 59.9018C128.954 60.9454 128.258 61.9405 127.214 62.1246C126.17 62.3086 125.175 61.6118 124.991 60.5682C124.807 59.5246 125.504 58.5295 126.548 58.3455C127.591 58.1614 128.586 58.8583 128.77 59.9018Z" fill="white"/>
<path d="M126.028 49.9895C126.39 50.9853 125.877 52.0863 124.881 52.4487C123.885 52.8111 122.784 52.2977 122.422 51.302C122.059 50.3062 122.573 49.2052 123.569 48.8428C124.564 48.4803 125.665 48.9937 126.028 49.9895Z" fill="white"/>
<path d="M126.356 90.3479C125.993 91.3437 124.892 91.8571 123.897 91.4946C122.901 91.1322 122.387 90.0312 122.75 89.0354C123.112 88.0396 124.213 87.5262 125.209 87.8887C126.205 88.2511 126.718 89.3521 126.356 90.3479Z" fill="white"/>
<path d="M99.8346 19.2841C100.752 19.814 101.067 20.9874 100.537 21.9051C100.007 22.8228 98.8336 23.1372 97.9159 22.6074C96.9982 22.0776 96.6838 20.9041 97.2136 19.9864C97.7434 19.0687 98.9169 18.7543 99.8346 19.2841Z" fill="white"/>
<path d="M71.2297 129.619C70.17 129.619 69.311 128.76 69.311 127.701C69.311 126.641 70.17 125.782 71.2297 125.782C72.2893 125.782 73.1484 126.641 73.1484 127.701C73.1484 128.76 72.2893 129.619 71.2297 129.619Z" fill="white"/>
<path d="M15.1442 50.891C15.5067 49.8952 16.6077 49.3818 17.6035 49.7443C18.5992 50.1067 19.1126 51.2077 18.7502 52.2035C18.3878 53.1992 17.2868 53.7127 16.291 53.3502C15.2952 52.9878 14.7818 51.8868 15.1442 50.891Z" fill="white"/>
<path d="M80.523 12.4325C81.5666 12.6165 82.2634 13.6116 82.0794 14.6552C81.8954 15.6988 80.9003 16.3956 79.8567 16.2116C78.8131 16.0276 78.1163 15.0324 78.3003 13.9889C78.4843 12.9453 79.4795 12.2485 80.523 12.4325Z" fill="white"/>
<path d="M12.7296 81.3371C12.5456 80.2935 13.2424 79.2984 14.286 79.1143C15.3295 78.9303 16.3247 79.6272 16.5087 80.6707C16.6927 81.7143 15.9959 82.7094 14.9523 82.8934C13.9087 83.0775 12.9136 82.3806 12.7296 81.3371Z" fill="white"/>
<path d="M25.2453 33.0624C25.9264 32.2507 27.1366 32.1448 27.9484 32.8259C28.7601 33.5071 28.866 34.7173 28.1849 35.5291C27.5037 36.3408 26.2935 36.4467 25.4818 35.7655C24.67 35.0844 24.5641 33.8742 25.2453 33.0624Z" fill="white"/>
<path d="M50.1198 15.3416C51.1156 14.9792 52.2166 15.4926 52.5791 16.4884C52.9415 17.4842 52.4281 18.5852 51.4323 18.9476C50.4365 19.31 49.3355 18.7966 48.9731 17.8009C48.6107 16.8051 49.1241 15.7041 50.1198 15.3416Z" fill="white"/>
<path d="M128.937 80.3923C128.753 81.4359 127.758 82.1327 126.714 81.9487C125.671 81.7647 124.974 80.7695 125.158 79.7259C125.342 78.6824 126.337 77.9856 127.381 78.1696C128.424 78.3536 129.121 79.3487 128.937 80.3923Z" fill="white"/>
<path d="M60.0324 12.5991C61.076 12.415 62.0711 13.1119 62.2551 14.1554C62.4391 15.199 61.7423 16.1941 60.6987 16.3782C59.6552 16.5622 58.66 15.8654 58.476 14.8218C58.292 13.7782 58.9888 12.7831 60.0324 12.5991Z" fill="white"/>
<path d="M19.4147 41.5348C19.9446 40.6171 21.118 40.3027 22.0357 40.8326C22.9534 41.3624 23.2679 42.5358 22.738 43.4535C22.2082 44.3712 21.0347 44.6857 20.117 44.1558C19.1993 43.626 18.8849 42.4525 19.4147 41.5348Z" fill="white"/>
<path d="M129.75 70.1398C129.75 71.1994 128.891 72.0585 127.831 72.0585C126.772 72.0585 125.913 71.1994 125.913 70.1398C125.913 69.0801 126.772 68.2211 127.831 68.2211C128.891 68.2211 129.75 69.0801 129.75 70.1398Z" fill="white"/>
<path d="M41.6654 121.955C40.7477 121.425 40.4333 120.251 40.9631 119.334C41.4929 118.416 42.6664 118.102 43.5841 118.631C44.5018 119.161 44.8162 120.335 44.2864 121.252C43.7565 122.17 42.5831 122.485 41.6654 121.955Z" fill="white"/>
<path d="M19.8944 100.535C19.3646 99.6171 19.679 98.4437 20.5967 97.9138C21.5144 97.384 22.6879 97.6984 23.2177 98.6161C23.7475 99.5339 23.4331 100.707 22.5154 101.237C21.5977 101.767 20.4242 101.453 19.8944 100.535Z" fill="white"/>
<path d="M108.307 25.1145C109.119 25.7956 109.224 27.0058 108.543 27.8176C107.862 28.6294 106.652 28.7352 105.84 28.0541C105.028 27.373 104.923 26.1627 105.604 25.351C106.285 24.5392 107.495 24.4333 108.307 25.1145Z" fill="white"/>
<path d="M40.8346 19.7638C41.7523 19.234 42.9258 19.5484 43.4556 20.4661C43.9854 21.3838 43.671 22.5572 42.7533 23.0871C41.8356 23.6169 40.6622 23.3025 40.1323 22.3848C39.6025 21.4671 39.9169 20.2936 40.8346 19.7638Z" fill="white"/>
<path d="M70.2703 11.6194C71.33 11.6194 72.189 12.4785 72.189 13.5381C72.189 14.5978 71.33 15.4568 70.2703 15.4568C69.2107 15.4568 68.3516 14.5978 68.3516 13.5381C68.3516 12.4785 69.2107 11.6194 70.2703 11.6194Z" fill="white"/>
<path d="M33.1928 116.124C32.381 115.443 32.2751 114.233 32.9563 113.421C33.6374 112.61 34.8476 112.504 35.6594 113.185C36.4711 113.866 36.577 115.076 35.8959 115.888C35.2147 116.7 34.0045 116.806 33.1928 116.124Z" fill="white"/>
<path d="M116.255 108.176C115.574 108.988 114.363 109.094 113.552 108.413C112.74 107.732 112.634 106.522 113.315 105.71C113.996 104.898 115.206 104.792 116.018 105.473C116.83 106.154 116.936 107.365 116.255 108.176Z" fill="white"/>
<path d="M12.5631 60.8466C12.7471 59.803 13.7422 59.1062 14.7858 59.2902C15.8294 59.4742 16.5262 60.4694 16.3422 61.513C16.1582 62.5565 15.163 63.2533 14.1194 63.0693C13.0759 62.8853 12.3791 61.8902 12.5631 60.8466Z" fill="white"/>
<path d="M90.4784 15.0135C91.4742 15.3759 91.9876 16.477 91.6252 17.4727C91.2627 18.4685 90.1617 18.9819 89.1659 18.6195C88.1702 18.2571 87.6568 17.156 88.0192 16.1603C88.3816 15.1645 89.4826 14.6511 90.4784 15.0135Z" fill="white"/>
<path d="M115.638 32.3275C116.319 33.1393 116.213 34.3495 115.402 35.0307C114.59 35.7118 113.38 35.6059 112.699 34.7942C112.017 33.9824 112.123 32.7722 112.935 32.091C113.747 31.4099 114.957 31.5158 115.638 32.3275Z" fill="white"/>
<path d="M122.085 99.704C121.555 100.622 120.382 100.936 119.464 100.406C118.547 99.8765 118.232 98.703 118.762 97.7853C119.292 96.8676 120.465 96.5532 121.383 97.083C122.301 97.6129 122.615 98.7863 122.085 99.704Z" fill="white"/>
<path d="M100.665 121.475C99.7477 122.005 98.5742 121.69 98.0444 120.773C97.5146 119.855 97.829 118.682 98.7467 118.152C99.6644 117.622 100.838 117.936 101.368 118.854C101.898 119.772 101.583 120.945 100.665 121.475Z" fill="white"/>
<path d="M11.75 71.0991C11.75 70.0395 12.609 69.1804 13.6687 69.1804C14.7284 69.1804 15.5874 70.0395 15.5874 71.0991C15.5874 72.1588 14.7284 73.0178 13.6687 73.0178C12.609 73.0178 11.75 72.1588 11.75 71.0991Z" fill="white"/>
<path d="M60.977 128.806C59.9334 128.622 59.2366 127.627 59.4206 126.584C59.6046 125.54 60.5997 124.843 61.6433 125.027C62.6869 125.211 63.3837 126.206 63.1997 127.25C63.0157 128.294 62.0205 128.99 60.977 128.806Z" fill="white"/>
<path d="M64.8443 104.819H61.1343V94.0593H58.5245C58.371 95.6148 58.1919 97.2222 57.9616 98.8556C57.7313 100.489 57.5011 101.63 57.2708 102.278C57.0661 102.926 56.7847 103.444 56.452 103.833C56.1194 104.222 55.71 104.507 55.2239 104.715C54.7377 104.922 54.1493 105 53.4328 105C52.8955 105 52.435 104.922 52 104.793V101.915C52.3838 102.044 52.6652 102.096 52.9211 102.096C53.2537 102.096 53.484 101.967 53.6631 101.681C53.8422 101.396 53.9957 100.93 54.1237 100.281C54.2772 99.6333 54.4563 98.4148 54.7122 96.6259C54.968 94.837 55.1983 92.9704 55.4286 91H64.8443V104.819ZM75.8721 104.819H67.7868V91.0259H75.8721V94.0074H71.4712V96.1852H75.565V99.1667H71.4712V101.785H75.8721V104.819ZM80.9893 104.819V94.0593H77.6631V91H88V94.0593H84.6738V104.819H80.9893Z" fill="white"/>
<path d="M97 63.0665C97 66.1892 96.7525 68.9836 96.2576 71.4498C95.7626 73.8982 94.9672 75.9829 93.8712 77.7039C92.7929 79.4249 91.3611 80.7379 89.5758 81.6427C87.7904 82.5476 85.5985 83 83 83C79.7652 83 77.1136 82.2105 75.0455 80.6314C72.9773 79.0346 71.4482 76.7547 70.4583 73.7917C69.4861 70.811 69 67.236 69 63.0665C69 58.8616 69.4419 55.2688 70.3258 52.2881C71.2273 49.2896 72.7033 46.992 74.7538 45.3952C76.8043 43.7984 79.553 43 83 43C86.2348 43 88.8775 43.7984 90.928 45.3952C92.9962 46.9743 94.5253 49.263 95.5152 52.2615C96.5051 55.2422 97 58.8439 97 63.0665ZM79.4205 63.0665C79.4205 65.6037 79.5088 67.7328 79.6856 69.4538C79.8801 71.1748 80.2336 72.47 80.7462 73.3393C81.2765 74.191 82.0278 74.6168 83 74.6168C83.9722 74.6168 84.7146 74.191 85.2273 73.3393C85.7399 72.47 86.0934 71.1836 86.2879 69.4804C86.4823 67.7594 86.5795 65.6214 86.5795 63.0665C86.5795 60.4939 86.4823 58.3471 86.2879 56.6261C86.0934 54.9051 85.7399 53.6099 85.2273 52.7405C84.7146 51.8534 83.9722 51.4098 83 51.4098C82.0278 51.4098 81.2765 51.8534 80.7462 52.7405C80.2336 53.6099 79.8801 54.9051 79.6856 56.6261C79.5088 58.3471 79.4205 60.4939 79.4205 63.0665Z" fill="white"/>
<path d="M63 83H52.2506V63.7134C52.2506 63.3577 52.2506 62.7086 52.2506 61.7661C52.2506 60.8057 52.2595 59.7476 52.2774 58.5917C52.3131 57.4357 52.3578 56.3953 52.4114 55.4706C51.9468 56.0219 51.5089 56.4932 51.0979 56.8844C50.7047 57.2756 50.3205 57.6402 49.9452 57.9781L45.4953 61.6327L40 54.9104L53.4569 44H63V83Z" fill="white"/>
<path d="M108.525 63.4655L106.532 63.7524C105.435 63.9103 103.966 64.1157 103.267 64.209L101.996 64.3784L106.631 69.0299L106.091 72.1827C105.793 73.9167 105.601 75.3353 105.663 75.3353C105.724 75.3353 106.988 74.6851 108.471 73.8904C109.954 73.0957 111.293 72.4454 111.447 72.4454C111.6 72.4454 112.878 73.0973 114.287 73.8941C115.695 74.6909 116.896 75.2941 116.955 75.2347C117.014 75.1753 116.809 73.727 116.497 72.0164L115.932 68.9061L118.256 66.761C119.534 65.5814 120.521 64.556 120.449 64.4827C120.376 64.4094 118.956 64.1504 117.293 63.9071C115.629 63.6639 114.252 63.4461 114.233 63.4232C114.213 63.4003 113.56 62.1075 112.78 60.5501L111.364 57.7186L108.525 63.4655Z" fill="white"/>
<path d="M26.5253 63.4655L24.5316 63.7524C23.4349 63.9103 21.9659 64.1157 21.2668 64.209L19.9961 64.3784L24.6307 69.0299L24.0905 72.1827C23.7934 73.9167 23.6009 75.3353 23.6627 75.3353C23.7242 75.3353 24.9881 74.6851 26.4714 73.8904C27.9543 73.0957 29.2935 72.4454 29.4471 72.4454C29.6004 72.4454 30.8782 73.0973 32.2865 73.8941C33.6948 74.6909 34.8956 75.2941 34.9551 75.2347C35.0145 75.1753 34.8086 73.727 34.4975 72.0164L33.9315 68.9061L36.2558 66.761C37.5342 65.5814 38.5209 64.556 38.4486 64.4827C38.3763 64.4094 36.9561 64.1504 35.2927 63.9071C33.6293 63.6639 32.2523 63.4461 32.2329 63.4232C32.2131 63.4003 31.5596 62.1075 30.7804 60.5501L29.3637 57.7186L26.5253 63.4655Z" fill="white"/>
</g>
</g>
</svg>
