<svg width="130" height="130" viewBox="0 0 130 130" fill="none" xmlns="http://www.w3.org/2000/svg">
<g id="Group 1000003156">
<g id="Group 1000003184">
<g id="Vector">
<path d="M130 65C130 100.899 100.899 130 65 130C29.1015 130 0 100.899 0 65C0 29.1015 29.1015 0 65 0C100.899 0 130 29.1015 130 65Z" fill="#E78052"/>
<path d="M80.5755 31C79.4606 31.1914 78.3321 31.3008 77.258 31.6016C72.1185 33.0508 68.3523 36.1953 66.041 41.0352C64.287 44.7129 63.9471 48.5547 64.9125 52.5059C65.0348 52.9844 64.8445 53.2578 64.5454 53.5586C54.3345 63.8125 44.1372 74.0801 33.9127 84.3203C33.2736 84.9629 32.9745 85.6465 33.0017 86.5488C33.0425 88.5312 33.0289 90.5137 33.0017 92.4961C32.9881 93.2754 33.2464 93.877 33.8039 94.4375C35.721 96.3379 37.6109 98.2656 39.5416 100.18C39.8543 100.494 40.2486 100.727 40.6157 101C40.7924 101 40.9828 101 41.1595 101C41.5402 100.727 41.9617 100.508 42.3016 100.18C43.4845 99.0176 44.6402 97.8281 45.8231 96.666C46.2854 96.2012 46.5301 95.6953 46.5029 95.0391C46.4622 94.082 46.4893 93.1387 46.4893 92.0996C47.4275 92.0996 48.3113 92.0723 49.1814 92.0996C49.9836 92.127 50.609 91.8809 51.1665 91.293C52.4582 89.9395 53.777 88.6406 55.1095 87.3281C55.6261 86.8223 55.8709 86.2344 55.8573 85.5098C55.8301 83.9238 55.8437 82.3242 55.8437 80.6426C56.9042 80.6426 57.9375 80.6562 58.9708 80.6426C62.2612 80.6016 61.3094 80.9844 63.7432 78.6738C64.5318 77.9219 64.9532 77.1426 64.8173 76.0352C64.7629 75.5703 64.8037 75.0781 64.8037 74.5039C65.5651 74.5039 66.2993 74.5723 67.0335 74.4766C67.5094 74.4082 68.0532 74.2168 68.4067 73.9023C69.3313 73.0957 70.2015 72.2344 71.0036 71.291C71.3708 70.8535 71.5475 70.2246 71.7243 69.6504C71.9146 69.0215 72.0234 68.3789 72.1729 67.7227C73.383 68.5703 73.8045 68.5293 74.8106 67.5176C75.4225 66.9023 76.0615 66.3281 76.619 65.6719C76.9725 65.2617 77.3124 65.248 77.7883 65.3574C83.2676 66.6016 88.2303 65.4805 92.5947 61.9258C96.5649 58.6992 98.6995 54.4883 98.9715 49.3477C99.2298 44.5352 97.7342 40.3379 94.5254 36.7422C91.9829 33.8848 88.8149 32.1484 85.1167 31.3418C84.3009 31.1641 83.458 31.123 82.6286 31.0137C81.9352 31 81.2553 31 80.5755 31ZM36.0337 89.7207C35.9657 89.6797 35.8977 89.625 35.8298 89.584C35.8298 88.75 35.857 87.9023 35.8162 87.0684C35.789 86.5625 35.9521 86.2344 36.3056 85.8789C46.5845 75.543 56.8362 65.207 67.1287 54.9121C67.8901 54.1465 68.0804 53.4219 67.7541 52.4238C67.0607 50.2227 66.9791 47.9531 67.4142 45.6973C68.7059 39.0117 74.3755 34.1719 80.8882 33.8574C85.2255 33.6523 88.9645 35.0469 91.9965 38.123C95.3412 41.5137 96.7688 45.6836 96.0754 50.4414C95.246 56.1152 92.0509 59.998 86.7891 62.1172C83.8522 63.3066 80.7931 63.375 77.7611 62.459C76.687 62.1309 75.8984 62.3086 75.1777 63.1699C74.6475 63.7988 74.0492 64.3457 73.3694 65.0566C73.0431 64.6738 72.7848 64.291 72.4449 63.9902C71.5203 63.1289 70.283 63.498 69.9839 64.7285C69.78 65.5625 69.5896 66.3965 69.4265 67.2441C69.1681 68.6797 68.7195 69.9512 67.523 70.9355C66.8839 71.4688 66.3265 71.8652 65.4563 71.7695C64.8037 71.7012 64.1375 71.7559 63.4848 71.7695C62.6147 71.7832 62.098 72.2754 62.0572 73.1504C62.03 73.7246 61.9756 74.2988 62.0572 74.8594C62.2204 75.9941 61.8533 76.8555 60.9423 77.4707C60.6704 77.6621 60.3169 77.8262 60.0042 77.8398C58.2638 77.8809 56.5235 77.9219 54.7831 77.8809C53.5187 77.8398 53.0156 78.5645 53.0292 79.6719C53.0564 81.3945 53.0564 83.1309 53.0156 84.8535C53.002 85.1953 52.8389 85.6055 52.6077 85.8516C51.6288 86.9043 50.6227 87.916 49.5757 88.9004C49.3446 89.1191 48.9639 89.2695 48.6376 89.2832C47.5499 89.3242 46.4621 89.2832 45.3744 89.3105C44.2323 89.3242 43.7157 89.8574 43.7157 90.9922C43.7157 92.1133 43.7157 93.2207 43.7157 94.3418C43.7157 94.5332 43.7157 94.793 43.6069 94.916C42.7231 95.8457 41.7986 96.7344 40.9964 97.5547C39.4872 96.0371 38.0188 94.5605 36.4688 92.9883C36.6048 92.8926 36.8223 92.7559 36.9991 92.5918C46.7477 82.8027 56.4827 73 66.2313 63.2109C66.3945 63.0469 66.5576 62.8965 66.6936 62.7188C67.3054 61.8848 66.9519 60.873 65.9594 60.5586C65.1844 60.3125 64.7221 60.7773 64.2598 61.2559C55.0279 70.5391 45.7959 79.8086 36.5776 89.0918C36.36 89.2285 36.2105 89.4883 36.0337 89.7207Z" fill="white"/>
<path d="M81.3913 43.7559C81.3913 46.5312 83.6755 48.8281 86.4084 48.7598C89.3588 48.6777 91.3983 46.2852 91.3439 43.6738C91.2895 40.9531 89.0869 38.7109 86.3676 38.7109C83.6211 38.6973 81.3777 40.9941 81.3913 43.7559ZM86.3676 41.5273C87.6049 41.5273 88.611 42.5391 88.5974 43.7832C88.5838 44.959 87.5505 45.9707 86.354 45.957C85.1575 45.957 84.165 44.9727 84.1378 43.7559C84.097 42.5254 85.1031 41.5273 86.3676 41.5273Z" fill="white"/>
<path d="M68.9234 57.0996C68.1212 57.1133 67.1423 58.0703 67.1287 58.8633C67.1151 59.6152 67.8221 60.2988 68.5835 60.2715C69.3585 60.2441 70.351 59.2188 70.3374 58.4531C70.3238 57.6875 69.6712 57.0859 68.9234 57.0996Z" fill="white"/>
<path fill-rule="evenodd" clip-rule="evenodd" d="M5 65.4985C5 32.0867 32.0852 5 65.499 5C98.9148 5 126 32.0866 126 65.4995C126 98.9113 98.9148 126 65.499 126C32.0852 126 5 98.9113 5 65.4985ZM65.499 7.50657C33.4697 7.50657 7.50663 33.4709 7.50663 65.4985C7.50663 97.5272 33.4698 123.493 65.499 123.493C97.5303 123.493 123.493 97.5271 123.493 65.4995C123.493 33.4709 97.5303 7.50657 65.499 7.50657Z" fill="white"/>
</g>
</g>
</g>
</svg>
