<svg width="131" height="131" viewBox="0 0 131 131" fill="none" xmlns="http://www.w3.org/2000/svg">
<g id="Group 1000003183">
<g id="Vector">
<path d="M108.153 114.479C80.8266 137.759 39.8018 134.479 16.5213 107.153C-6.75927 79.8271 -3.47961 38.8023 23.8466 15.5217C51.1728 -7.75878 92.1976 -4.47912 115.478 22.8471C138.759 50.1732 135.479 91.1981 108.153 114.479Z" fill="url(#paint0_linear_319_414)"/>
<path fill-rule="evenodd" clip-rule="evenodd" d="M6.00007 64.4986C6.00007 31.0867 33.0853 4.00006 66.4991 4.00006C99.9148 4.00006 127 31.0867 127 64.4995C127 97.9114 99.9149 125 66.4991 125C33.0852 125 6.00007 97.9113 6.00007 64.4986ZM66.4991 6.50662C34.4698 6.50662 8.5067 32.471 8.5067 64.4986C8.5067 96.5272 34.4698 122.493 66.4991 122.493C98.5304 122.493 124.493 96.5272 124.493 64.4995C124.493 32.471 98.5304 6.50662 66.4991 6.50662Z" fill="#FEFEFE"/>
<path fill-rule="evenodd" clip-rule="evenodd" d="M66.4653 104.999L66.4669 105C66.5893 104.894 66.6658 104.817 66.7424 104.741C69.0564 102.44 71.3788 100.148 73.7008 97.8573C79.0576 92.5716 84.4124 87.288 89.6549 81.8938C97.7669 73.5372 100.629 63.4757 98.1189 52.1509C94.9966 38.0405 82.8592 27.9639 68.4107 27.0658C63.0384 26.7309 57.8957 27.6747 52.9979 29.9122C39.7279 35.9856 32.1975 49.8068 34.3709 64.1911C35.0825 68.9055 36.717 73.1716 39.2549 76.9796C39.708 77.6595 40.6308 77.8121 41.3037 77.3486L-nan -nanL41.3037 77.3486C42.0087 76.8628 42.1666 75.8913 41.6965 75.1757C39.7522 72.2162 38.4169 68.9247 37.7076 65.348C35.9627 56.5499 37.7688 48.4825 43.3247 41.3893C48.2225 35.118 54.7121 31.4344 62.6404 30.3689C76.2318 28.5271 89.5478 36.4423 94.0629 49.3501C97.9199 60.3857 95.8078 70.432 88.0325 79.1844C86.3876 81.0433 84.5936 82.7762 82.7962 84.5124C82.0182 85.264 81.239 86.0166 80.4715 86.7799C78.2295 89.0096 75.9837 91.2393 73.7379 93.4689C71.4915 95.6992 69.2451 97.9294 67.0025 100.16C66.9033 100.258 66.817 100.376 66.7226 100.505C66.6714 100.575 66.6179 100.648 66.5587 100.723C66.471 100.641 66.4011 100.576 66.3415 100.519L66.3407 100.519L66.3399 100.518C66.2443 100.428 66.1748 100.362 66.0995 100.297C64.0191 98.2276 61.9373 96.1614 59.8558 94.0954L59.8522 94.0918C57.3291 91.5876 54.806 89.0833 52.2865 86.5754C51.7649 86.0561 50.9473 85.9822 50.3413 86.3998L-nan -nanL50.3413 86.3998C49.5542 86.942 49.4526 88.0657 50.1301 88.7399C51.6082 90.2108 53.088 91.6807 54.5679 93.1507C56.7088 95.2774 58.8502 97.4045 60.9874 99.5355C62.793 101.346 64.6139 103.157 66.4653 104.999ZM45.9309 84.5517C46.4517 85.0726 47.2702 85.1471 47.8767 84.7292L-nan -nanL47.8767 84.7292C48.6632 84.1873 48.7652 83.0648 48.0897 82.3896C47.9146 82.2146 47.7395 82.0395 47.5644 81.8644C47.043 81.3428 46.2235 81.2676 45.6162 81.6861L-nan -nanL45.6162 81.6861C44.8308 82.2271 44.7276 83.3474 45.4015 84.022C45.5779 84.1986 45.7544 84.3752 45.9309 84.5517ZM91.109 55.0887V54.5255C91.0478 51.8922 90.3744 49.1218 89.1805 46.7168C86.4714 41.3893 82.1705 37.8579 76.6146 35.7573C75.0075 35.1485 73.3545 34.7984 71.6249 34.7679C70.5229 34.7527 69.8036 35.5747 69.9872 36.625C70.1097 37.2947 70.6301 37.7514 71.3648 37.8427C71.6352 37.8782 71.9073 37.9053 72.1794 37.9323C72.7236 37.9864 73.2678 38.0406 73.7983 38.1623C77.135 38.9386 80.0124 40.5826 82.4919 42.8962C85.3694 45.56 87.2367 48.8022 87.8183 52.7141C87.8895 53.2503 87.9202 53.7932 87.9507 54.3339C87.9661 54.6067 87.9814 54.879 88.002 55.1496C88.0632 56.0933 88.7366 56.7326 89.6244 56.7022C90.4968 56.6717 91.0937 56.0172 91.109 55.0887ZM76.1896 58.544C76.1896 53.2736 71.9053 49.0081 66.5981 48.9965C61.2884 48.9849 56.9739 53.2711 56.9739 58.5592C56.9739 63.8284 61.2716 68.1084 66.5773 68.1219C71.8742 68.1201 76.1896 63.8321 76.1896 58.544ZM66.5741 71.117C73.5381 71.117 79.2012 65.485 79.2012 58.544C79.2012 51.6182 73.5688 46.0166 66.6047 46.0014C59.6253 45.9862 53.9622 51.6182 53.9622 58.5592C53.9622 65.485 59.61 71.1017 66.5741 71.117Z" fill="white"/>
</g>
</g>
<defs>
<linearGradient id="paint0_linear_319_414" x1="41.8107" y1="28.6273" x2="165.002" y2="271.004" gradientUnits="userSpaceOnUse">
<stop stop-color="#37B15A"/>
<stop offset="0.468229" stop-color="#FFA746"/>
</linearGradient>
</defs>
</svg>
