<svg width="78" height="80" viewBox="0 0 78 80" fill="none" xmlns="http://www.w3.org/2000/svg">
<path id="image 3781 (Traced)" fill-rule="evenodd" clip-rule="evenodd" d="M29.0416 4.47309V8.94618L29.9174 8.91318L30.7932 8.88018V4.47309V0.0659934L29.9174 0.0329958L29.0416 0V4.47309ZM8.72695 8.85408L8.13889 9.44949L11.2176 12.5267C12.9109 14.2191 14.3487 15.6038 14.4128 15.6038C14.4769 15.6038 14.7805 15.3488 15.0875 15.037L15.6458 14.4703L12.5416 11.3644C10.8342 9.65629 9.40971 8.25867 9.37615 8.25867C9.34248 8.25867 9.05037 8.5266 8.72695 8.85408ZM47.2609 11.3404L44.1808 14.4219L44.8057 15.039L45.4306 15.6562L48.5623 12.5244L51.6941 9.39276L51.1356 8.82572C50.8284 8.51383 50.524 8.25867 50.4591 8.25867C50.3941 8.25867 48.955 9.64544 47.2609 11.3404ZM69.4965 8.9316C68.065 9.20247 66.9098 9.81449 65.8735 10.8508C64.567 12.1573 63.9906 13.5068 63.8796 15.5191L63.8125 16.7339H70.6096H77.4067V15.9381C77.4067 13.9525 76.7217 12.208 75.4307 10.9058C74.5554 10.0229 73.7716 9.53153 72.6606 9.16958C71.8369 8.90132 70.2767 8.78391 69.4965 8.9316ZM72.4767 11.5125C73.6342 12.0541 74.3401 12.8058 74.8597 14.05L75.0367 14.4738H70.6845C65.7289 14.4738 66.089 14.5666 66.6873 13.4441C67.256 12.3773 68.3848 11.5014 69.5808 11.1992C70.3745 10.9986 71.6807 11.1399 72.4767 11.5125ZM28.9286 15.4421C28.7732 15.4692 28.2647 15.5476 27.7986 15.616C25.0923 16.0134 22.2504 17.5224 20.0579 19.7263C17.5857 22.2114 16.0779 25.0973 15.3444 28.7477C15.0146 30.3887 14.9864 33.7237 15.2887 35.3312C15.7866 37.9801 16.8023 40.3905 18.3326 42.5549C18.8255 43.252 19.2382 44.2587 21.8076 51.0301L24.7231 58.7143H30.2332H35.7435L38.5794 51.0225C41.3104 43.6153 41.442 43.2915 42.1316 42.2708C43.4441 40.3283 44.2959 38.3709 44.811 36.1138C45.1846 34.4764 45.3159 31.5504 45.0946 29.7929C44.2067 22.7381 39.1991 16.9696 32.8272 15.6613C31.9473 15.4807 29.4961 15.3428 28.9286 15.4421ZM31.8667 17.4622C37.6462 18.334 42.1817 23.4636 43.0622 30.1246C43.2433 31.4953 43.1324 34.2274 42.8419 35.5488C42.3707 37.6919 41.4403 39.8061 40.2135 41.5208C39.692 42.2497 39.4243 42.7956 38.9304 44.1369C38.5869 45.0692 37.3966 48.2983 36.285 51.3126L34.2639 56.7932L33.9128 56.8286L33.5617 56.8641V52.8089C33.5617 48.2906 33.5366 48.104 32.8164 47.2625C32.5882 46.9959 32.1162 46.6514 31.6956 46.4442C31.0104 46.1069 30.9124 46.0894 29.9771 46.1364C28.5029 46.2105 27.608 46.7568 27.0144 47.9447L26.6686 48.6366V52.751V56.8654L26.4187 56.8294C26.1988 56.7975 25.84 55.9289 23.4234 49.5777C20.8775 42.8867 20.6333 42.3011 20.0653 41.5232C18.8133 39.8088 17.7938 37.4132 17.3287 35.0927C17.0234 33.5696 17.0543 30.5264 17.3913 28.9381C18.0436 25.8633 19.2732 23.427 21.2194 21.3532C24.1067 18.2766 27.9513 16.8715 31.8667 17.4622ZM63.8464 43.226V68.3623L66.6149 73.0805C68.1376 75.6756 69.3835 77.8398 69.3835 77.89C69.3835 78.0273 33.833 78.0054 33.1069 77.8676C32.3871 77.7311 31.8312 77.3331 31.5267 76.7361C31.3184 76.3281 31.3017 76.0674 31.3017 73.2396V70.184H30.2282H29.1546L29.1553 72.9243C29.1557 74.4314 29.2045 75.9606 29.2637 76.3224C29.5699 78.1927 30.8787 79.5467 32.7179 79.8963C33.208 79.9896 38.479 80.0156 52.0169 79.9916L70.6417 79.9587L74.0242 74.1431L77.4067 68.3274V43.2086V18.0899H70.6265H63.8464V43.226ZM69.4354 42.1877C69.392 54.1985 69.3244 64.056 69.2853 64.0933C69.2461 64.1307 68.6038 64.3683 67.858 64.6214C67.1122 64.8744 66.4129 65.1162 66.3042 65.1588C66.1163 65.2322 66.1064 64.1214 66.1064 42.793V20.3499H67.8103H69.5141L69.4354 42.1877ZM75.1466 42.793C75.1466 60.6998 75.118 65.2256 75.0054 65.1841C74.9277 65.1555 74.1394 64.8917 73.2538 64.5976L71.6436 64.0631V55.5126C71.6437 50.8097 71.6775 40.9743 71.7188 33.656L71.794 20.3499H73.4702H75.1466V42.793ZM30.2847 22.4812V23.5954L30.9292 23.6619C32.4048 23.8142 34.0915 25.073 34.9501 26.6627C35.4173 27.5276 35.8218 28.9327 35.8218 29.6907V30.1811H36.9685H38.1153L38.0453 29.3054C37.7942 26.1638 35.9202 23.3054 33.2879 22.0491C32.5014 21.6738 31.3543 21.3711 30.7084 21.3687L30.2847 21.367V22.4812ZM0 29.9551V30.8592H4.4071H8.81419V29.9551V29.0511H4.4071H0V29.9551ZM50.9641 29.9551V30.8592H55.3712H59.7783V29.9551V29.0511H55.3712H50.9641V29.9551ZM36.3955 32.0557C36.1189 32.2884 36.0478 32.4367 36.0478 32.7802C36.0478 33.1237 36.1189 33.272 36.3955 33.5047C36.7917 33.838 37.0525 33.8678 37.5087 33.6319C37.8644 33.4479 37.9688 33.2547 37.9688 32.7802C37.9688 32.3057 37.8644 32.1125 37.5087 31.9285C37.0525 31.6926 36.7917 31.7224 36.3955 32.0557ZM11.2694 47.3319L8.13301 50.4697L8.75792 51.0868L9.38282 51.7039L12.516 48.5707L15.6494 45.4375L15.0276 44.8156L14.4058 44.1939L11.2694 47.3319ZM44.7747 44.9019L44.1867 45.4973L47.2913 48.6003L50.3959 51.7035L51.0206 51.0866L51.6453 50.4697L48.5652 47.3881C46.871 45.6932 45.4575 44.3064 45.4239 44.3064C45.3903 44.3064 45.0982 44.5744 44.7747 44.9019ZM30.9909 48.5984L31.3017 48.9432V52.8964V56.8497H30.1152H28.9286V52.9437C28.9286 50.3995 28.9706 48.9593 29.0489 48.8131C29.115 48.6895 29.331 48.4871 29.5291 48.3631C30.0205 48.0555 30.5832 48.1462 30.9909 48.5984ZM24.6345 61.5958V62.7258H30.2282H35.8218V61.5958V60.4658H30.2282H24.6345V61.5958ZM24.6345 64.6469V65.7769H30.2282H35.8218V64.6469V63.5169H30.2282H24.6345V64.6469ZM72.9147 66.8598C74.1423 67.269 75.1449 67.6376 75.1428 67.6791C75.1407 67.7206 74.4849 68.8986 73.6853 70.297L72.2316 72.8396L70.5533 72.8678L68.875 72.8961L67.4625 70.387C66.6856 69.007 66.0361 67.8247 66.0192 67.7597C65.9877 67.6384 70.0504 66.1421 70.4569 66.1253C70.5812 66.1201 71.6873 66.4506 72.9147 66.8598ZM27.2336 67.811V68.941H30.1717H33.1097V67.811V66.6809H30.1717H27.2336V67.811Z" fill="#38384A"/>
</svg>
