<svg width="71" height="71" viewBox="0 0 71 71" fill="none" xmlns="http://www.w3.org/2000/svg">
<g id="Vector">
<path d="M4 23.6V38.3C4 39.2 4.4 39.6 5.3 39.6H7.9C8.9 39.6 9.2 39.2 9.2 38.3V9.00002C9.2 8.70002 9.2 8.50002 9.1 8.30002C8.7 6.90002 8.2 4.90002 7.6 3.00002C7.4 2.20002 7 2.00002 6.6 2.00002C6.1 2.00002 5.8 2.30002 5.6 3.00002C5.2 4.30002 4.8 5.90002 4.3 7.40002C4.2 7.90002 4 8.60002 4 9.20002C4 12.8 4 16.4 4 20C4 21.2 4 22.4 4 23.6ZM6.5 7.20002C6.5 7.10002 6.6 7.00002 6.6 6.80002C6.7 7.10002 6.8 7.40002 6.9 7.70002H6.3C6.4 7.50002 6.4 7.30002 6.5 7.20002ZM6.1 9.80002H7.2V37.6H6.1V9.80002Z" fill="#38384A"/>
<path d="M23.3 5.30002C20.7 5.30002 18.7 7.40002 18.7 9.90002C18.7 12.6 20.8 14.6 23.5 14.6C24.7 14.6 25.8 14.1 26.7 13.2C27.6 12.3 28 11.1 28 10C28 8.70002 27.5 7.60002 26.6 6.70002C25.7 5.70002 24.5 5.20002 23.3 5.30002ZM23.4 12.6C21.9 12.6 20.8 11.4 20.8 9.90002C20.8 9.20002 21.1 8.60002 21.6 8.10002C22.1 7.60002 22.8 7.30002 23.5 7.30002C24.9 7.30002 26.1 8.50002 26.2 10C26 11.4 24.8 12.6 23.4 12.6Z" fill="#38384A"/>
<path d="M10.8 61.4C12 61.4 13.2 60.9 14.1 60C15 59.1 15.5 58 15.5 56.7C15.5 54.1 13.4 52 10.9 52C8.4 52 6.3 54.1 6.3 56.6C6.2 59.3 8.3 61.4 10.8 61.4ZM8.9 54.9C9.4 54.4 10.1 54.1 10.8 54.1C12.2 54.1 13.4 55.3 13.4 56.7C13.4 58.1 12.2 59.3 10.8 59.3C10.1 59.3 9.5 59 9 58.5C8.5 58 8.2 57.3 8.2 56.6C8.2 56 8.5 55.4 8.9 54.9Z" fill="#38384A"/>
<path d="M34.4 57.8H43.3C44 57.8 44.4 57.4 44.4 56.8C44.4 56.5 44.3 56.3 44.2 56.1C44 55.9 43.7 55.8 43.3 55.8H34.4C33.7 55.8 33.3 56.2 33.3 56.8C33.3 57.1 33.4 57.3 33.6 57.5C33.7 57.7 34 57.8 34.4 57.8Z" fill="#38384A"/>
<path d="M43.3 60.2H34.5C33.8 60.2 33.3 60.6 33.3 61.2C33.3 61.8 33.8 62.2 34.5 62.2H43.3C44 62.2 44.4 61.8 44.4 61.2C44.4 60.6 44 60.2 43.3 60.2Z" fill="#38384A"/>
<path d="M34.3 53.5H38.8C40.2 53.5 41.7 53.5 43.2 53.5C44.2 53.5 44.4 53 44.4 52.5C44.4 51.9 43.9 51.5 43.2 51.5H34.5C34.1 51.5 33.7 51.6 33.5 52C33.4 52.3 33.4 52.7 33.5 52.9C33.5 53.3 33.9 53.5 34.3 53.5Z" fill="#38384A"/>
<path d="M54.6 24C52.7 24 51.1 25.6 51.1 27.5C51.1 28.4 51.5 29.4 52.1 30C52.8 30.6 53.6 31 54.6 31H54.7C56.5 31 58.1 29.4 58.1 27.5C58.1 25.6 56.5 24 54.6 24ZM54.6 29.4C54.1 29.4 53.6 29.2 53.2 28.8C52.8 28.4 52.7 27.9 52.7 27.4C52.7 26.9 52.9 26.5 53.3 26.1C53.7 25.7 54.2 25.5 54.7 25.5C55.8 25.5 56.6 26.4 56.6 27.4C56.5 28.6 55.6 29.4 54.6 29.4Z" fill="#38384A"/>
<path d="M37.4 8.60002H31.9C31.2 8.60002 30.8 9.00002 30.8 9.60003C30.8 10.2 31.2 10.6 31.9 10.6H37.4C37.7 10.6 38 10.5 38.2 10.3C38.4 10.1 38.5 9.90003 38.5 9.60003C38.5 9.00002 38.1 8.60002 37.4 8.60002Z" fill="#38384A"/>
<path d="M37.4 12.4H31.9C31.2 12.4 30.8 12.8 30.8 13.4C30.8 14 31.2 14.4 31.9 14.4H37.4C37.7 14.4 38 14.3 38.2 14.1C38.4 13.9 38.5 13.7 38.5 13.4C38.5 12.8 38.1 12.4 37.4 12.4Z" fill="#38384A"/>
<path d="M68.3 20.1H61V19.7C61 19.2 61 18.6 61 18.1C61 17 61 16 61 14.9C61 14.3 60.9 13.9 60.4 13.5C56.4 9.50002 52.3 5.50002 48.4 1.50002C48 1.10002 47.6 0.900024 47 0.900024H16C15.8 0.900024 15.7 0.900024 15.5 0.900024C15 1.00002 14.7 1.30002 14.7 1.80002C14.7 2.00002 14.7 2.20002 14.7 2.40002V43.3C14.5 43.3 14.4 43.3 14.3 43.3H1.3C0.4 43.3 0 43.7 0 44.6V68.9C0 69.9 0.3 70.2 1.3 70.2H49.9C50.9 70.2 51.2 69.9 51.2 68.9V63.4H56.4C56.8 63.4 57.1 63.4 57.5 63.4C58.2 63.4 59 63.4 59.7 63.4C60.4 63.4 60.7 63 60.8 62.3V34.8H68.2C69.9 34.8 70.9 33.8 70.9 32.1V22.8C71 21.1 70 20.1 68.3 20.1ZM48.4 4.50002L57.3 13.4H48.4V4.50002ZM49.2 68.1H2V45.3H49.2V68.1ZM58.9 61.3H51.2V44.7C51.2 43.6 50.9 43.2 49.7 43.2H16.7C16.7 30 16.7 16.3 16.7 2.90002H46.4L46.4 14.1C46.4 15.2 46.7 15.5 47.8 15.5H59V20.1H58.7C57.8 20.1 57 20.1 56.1 20.1C54 20.1 51.8 20.1 49.7 20.1C48.9 20.1 48.2 20.4 47.7 20.9C47.2 21.4 46.9 22.1 46.9 22.9C47 26 47 29.1 46.9 32.1C46.9 32.9 47.1 33.6 47.6 34.1C48.1 34.6 48.8 34.9 49.6 34.9C51.8 34.9 54.1 34.9 56.3 34.9C57 34.9 57.8 34.9 58.5 34.9H58.9V61.3ZM69 32C69 32.7 68.9 32.8 68.2 32.8H58.9C55.9 32.8 52.7 32.8 49.6 32.8C48.9 32.8 48.8 32.7 48.8 32V22.9C48.8 22.2 48.9 22.1 49.6 22.1H68.2C68.9 22.1 69 22.2 69 22.9V32Z" fill="#38384A"/>
</g>
</svg>
