<svg width="78" height="71" viewBox="0 0 78 71" fill="none" xmlns="http://www.w3.org/2000/svg">
<g id="Vector">
<path fill-rule="evenodd" clip-rule="evenodd" d="M32.5844 9.88639H9.38961V7.79548H32.5844V9.88639ZM68.6104 9.88639H46.4026V7.79548H68.6104V9.88639Z" fill="#38384A"/>
<path fill-rule="evenodd" clip-rule="evenodd" d="M33.5714 3.09093V14.5909H44.4286V3.09093H33.5714ZM32.5844 1.00002C32.0393 1.00002 31.5974 1.46809 31.5974 2.04548V15.6364C31.5974 16.2138 32.0393 16.6818 32.5844 16.6818H45.4156C45.9607 16.6818 46.4026 16.2138 46.4026 15.6364V2.04548C46.4026 1.46809 45.9607 1.00002 45.4156 1.00002H32.5844Z" fill="#38384A"/>
<path fill-rule="evenodd" clip-rule="evenodd" d="M32.5843 8.36667C16.2821 11.3026 3.51654 25.2363 1.33089 42.7074C1.25379 43.3236 1.71271 43.8637 2.29963 43.8637C2.80484 43.8637 3.22771 43.4585 3.29482 42.9282C5.37227 26.5103 17.306 13.3984 32.5843 10.4896V8.36667ZM45.4154 10.4897C60.6935 13.3986 72.627 26.5105 74.7045 42.9282C74.7716 43.4585 75.1944 43.8637 75.6997 43.8637C76.2866 43.8637 76.7455 43.3236 76.6684 42.7074C74.4827 25.2364 61.7174 11.3028 45.4154 8.36674V10.4897Z" fill="#38384A"/>
<path fill-rule="evenodd" clip-rule="evenodd" d="M72.5584 11.4546C73.9212 11.4546 75.026 10.2844 75.026 8.84093C75.026 7.39746 73.9212 6.2273 72.5584 6.2273C71.1957 6.2273 70.0909 7.39746 70.0909 8.84093C70.0909 10.2844 71.1957 11.4546 72.5584 11.4546ZM72.5584 13.5455C75.0114 13.5455 77 11.4392 77 8.84093C77 6.24268 75.0114 4.13639 72.5584 4.13639C70.1054 4.13639 68.1169 6.24268 68.1169 8.84093C68.1169 11.4392 70.1054 13.5455 72.5584 13.5455Z" fill="#38384A"/>
<path fill-rule="evenodd" clip-rule="evenodd" d="M5.44156 11.4546C6.80434 11.4546 7.90909 10.2844 7.90909 8.84093C7.90909 7.39746 6.80434 6.2273 5.44156 6.2273C4.07878 6.2273 2.97403 7.39746 2.97403 8.84093C2.97403 10.2844 4.07878 11.4546 5.44156 11.4546ZM5.44156 13.5455C7.89456 13.5455 9.88312 11.4392 9.88312 8.84093C9.88312 6.24268 7.89456 4.13639 5.44156 4.13639C2.98855 4.13639 1 6.24268 1 8.84093C1 11.4392 2.98855 13.5455 5.44156 13.5455Z" fill="#38384A"/>
<path fill-rule="evenodd" clip-rule="evenodd" d="M38.1788 20.2837C38.5694 19.663 39.4306 19.663 39.8212 20.2837L56.352 46.5481C56.6678 47.0498 56.7637 47.6714 56.6152 48.2535L51.9226 66.6442L52.8182 67.9091H55.7792C56.3243 67.9091 56.7662 68.3772 56.7662 68.9546C56.7662 69.532 56.3243 70 55.7792 70H21.2338C20.6887 70 20.2468 69.532 20.2468 68.9546C20.2468 68.3772 20.6887 67.9091 21.2338 67.9091H25.1818L26.0774 66.6442L21.3848 48.2535C21.2363 47.6714 21.3322 47.0498 21.648 46.5481L38.1788 20.2837ZM27.6494 67.9091H50.3507L50.3433 67.8988C49.9788 67.3839 49.8584 66.72 50.0169 66.0987L54.7095 47.7079L39.987 24.3166V55.8864H38.013V24.3166L23.2905 47.7079L27.9831 66.0987C28.1416 66.72 28.0212 67.3839 27.6567 67.8988L27.6494 67.9091Z" fill="#38384A"/>
<path fill-rule="evenodd" clip-rule="evenodd" d="M39 61.6364C40.3628 61.6364 41.4675 60.4662 41.4675 59.0227C41.4675 57.5793 40.3628 56.4091 39 56.4091C37.6372 56.4091 36.5325 57.5793 36.5325 59.0227C36.5325 60.4662 37.6372 61.6364 39 61.6364ZM39 63.7273C41.453 63.7273 43.4416 61.621 43.4416 59.0227C43.4416 56.4245 41.453 54.3182 39 54.3182C36.547 54.3182 34.5584 56.4245 34.5584 59.0227C34.5584 61.621 36.547 63.7273 39 63.7273Z" fill="#38384A"/>
<path fill-rule="evenodd" clip-rule="evenodd" d="M32.5843 1.10002C32.0998 1.10002 31.6973 1.51782 31.6973 2.04548V7.69548H32.6843L32.6842 10.5724L32.6029 10.5879C32.2997 10.6456 31.9978 10.7073 31.6973 10.7731V15.6364C31.6973 16.164 32.0998 16.5818 32.5843 16.5818H45.4155C45.9 16.5818 46.3025 16.164 46.3025 15.6364V10.7732C46.0019 10.7075 45.6999 10.6457 45.3966 10.588L45.3153 10.5725V8.24712L45.4331 8.26833C45.724 8.32073 46.0138 8.37662 46.3025 8.43597V2.04548C46.3025 1.51782 45.9 1.10002 45.4155 1.10002H32.5843ZM46.5025 7.69548V2.04548C46.5025 1.41836 46.0212 0.900024 45.4155 0.900024H32.5843C31.9786 0.900024 31.4973 1.41836 31.4973 2.04548V7.69548H9.85304C9.36787 5.59815 7.5805 4.03639 5.44146 4.03639C2.92789 4.03639 0.899902 6.19295 0.899902 8.84093C0.899902 11.4889 2.92789 13.6455 5.44146 13.6455C7.5805 13.6455 9.36787 12.0837 9.85304 9.98639H26.313C13.0341 14.9508 3.13397 27.488 1.23157 42.6949C1.1476 43.3662 1.64776 43.9637 2.29953 43.9637C2.86119 43.9637 3.32129 43.5148 3.39393 42.9407C5.41592 26.9612 16.7969 14.1259 31.4973 10.8175V15.6364C31.4973 16.2635 31.9786 16.7818 32.5843 16.7818H45.4155C46.0212 16.7818 46.5025 16.2635 46.5025 15.6364V10.8176C61.2025 14.1264 72.5832 26.9614 74.6051 42.9407C74.6778 43.5148 75.1379 43.9637 75.6996 43.9637C76.3513 43.9637 76.8515 43.3662 76.7675 42.6949C74.8651 27.488 64.965 14.9508 51.686 9.98639H68.1468C68.6319 12.0837 70.4193 13.6455 72.5583 13.6455C75.0719 13.6455 77.0999 11.4889 77.0999 8.84093C77.0999 6.19295 75.0719 4.03639 72.5583 4.03639C70.4193 4.03639 68.6319 5.59815 68.1468 7.69548H46.5025ZM46.5025 7.89548V8.47768C48.0852 8.81243 49.6325 9.25099 51.1377 9.78639H68.1048C68.0471 9.4806 68.0168 9.16443 68.0168 8.84093C68.0168 8.51744 68.0471 8.20127 68.1048 7.89548H46.5025ZM68.3083 7.89548C68.2483 8.20052 68.2168 8.51674 68.2168 8.84093C68.2168 9.16513 68.2483 9.48135 68.3083 9.78639H68.5103V7.89548H68.3083ZM68.3521 9.98639C68.8326 11.9783 70.5373 13.4455 72.5583 13.4455C74.9508 13.4455 76.8999 11.3895 76.8999 8.84093C76.8999 6.29242 74.9508 4.23639 72.5583 4.23639C70.5373 4.23639 68.8326 5.7036 68.3521 7.69548H68.7103V9.98639H68.3521ZM50.5271 9.78639C49.2151 9.34313 47.8721 8.97351 46.5025 8.68213V9.78639H50.5271ZM46.3025 8.64018C46.0411 8.58612 45.7787 8.5349 45.5153 8.48657V10.4071C45.7787 10.4579 46.0411 10.5117 46.3025 10.5685V8.64018ZM46.5025 10.6126V9.98639H51.1029C64.5666 14.7898 74.651 27.3874 76.5691 42.7198C76.6393 43.2811 76.2216 43.7637 75.6996 43.7637C75.2508 43.7637 74.8652 43.4023 74.8036 42.9156C72.7698 26.8426 61.3112 13.9253 46.5025 10.6126ZM31.6973 10.5684C31.9586 10.5116 32.2209 10.4578 32.4842 10.407V9.98639H31.6973V10.5684ZM31.4973 9.98639V10.6125C16.6882 13.9248 5.22937 26.8423 3.19551 42.9156C3.13393 43.4023 2.74829 43.7637 2.29953 43.7637C1.77746 43.7637 1.3598 43.2811 1.43002 42.7198C3.34812 27.3874 13.4325 14.7898 26.8961 9.98639H31.4973ZM31.6973 9.78639H32.4842V8.48649C32.2209 8.5348 31.9586 8.58599 31.6973 8.64003V9.78639ZM31.4973 8.68198V9.78639H27.472C28.7842 9.34305 30.1274 8.97338 31.4973 8.68198ZM31.6973 8.43582C31.9587 8.38209 32.221 8.33118 32.4843 8.28314V7.89548H31.6973V8.43582ZM31.4973 7.89548V8.47753C29.9144 8.81229 28.3668 9.25091 26.8614 9.78639H9.89503C9.95275 9.4806 9.98302 9.16443 9.98302 8.84093C9.98302 8.51744 9.95275 8.20127 9.89503 7.89548H31.4973ZM9.64773 7.69548C9.16716 5.7036 7.46249 4.23639 5.44146 4.23639C3.04903 4.23639 1.0999 6.29242 1.0999 8.84093C1.0999 11.3895 3.04903 13.4455 5.44146 13.4455C7.46249 13.4455 9.16716 11.9783 9.64773 9.98639H9.28951V7.69548H9.64773ZM9.6915 9.78639C9.75148 9.48135 9.78302 9.16513 9.78302 8.84093C9.78302 8.51674 9.75148 8.20052 9.6915 7.89548H9.48951V9.78639H9.6915ZM33.4713 2.99093H44.5285V14.6909H33.4713V2.99093ZM33.6713 3.19093V14.4909H44.3285V3.19093H33.6713ZM5.44146 6.3273C4.13925 6.3273 3.07393 7.44719 3.07393 8.84093C3.07393 10.2347 4.13925 11.3546 5.44146 11.3546C6.74367 11.3546 7.80899 10.2347 7.80899 8.84093C7.80899 7.44719 6.74367 6.3273 5.44146 6.3273ZM2.87393 8.84093C2.87393 7.34773 4.01811 6.1273 5.44146 6.1273C6.86481 6.1273 8.00899 7.34773 8.00899 8.84093C8.00899 10.3341 6.86481 11.5546 5.44146 11.5546C4.01811 11.5546 2.87393 10.3341 2.87393 8.84093ZM72.5583 6.3273C71.2561 6.3273 70.1908 7.44719 70.1908 8.84093C70.1908 10.2347 71.2561 11.3546 72.5583 11.3546C73.8605 11.3546 74.9259 10.2347 74.9259 8.84093C74.9259 7.44719 73.8605 6.3273 72.5583 6.3273ZM69.9908 8.84093C69.9908 7.34773 71.135 6.1273 72.5583 6.1273C73.9817 6.1273 75.1259 7.34773 75.1259 8.84093C75.1259 10.3341 73.9817 11.5546 72.5583 11.5546C71.135 11.5546 69.9908 10.3341 69.9908 8.84093ZM38.094 20.2305C38.5239 19.5474 39.4759 19.5474 39.9058 20.2305L56.4366 46.4948C56.7671 47.0201 56.8672 47.67 56.712 48.2782L52.0308 66.6242L52.8698 67.8091H55.7791C56.3848 67.8091 56.8661 68.3274 56.8661 68.9546C56.8661 69.5817 56.3848 70.1 55.7791 70.1H21.2337C20.628 70.1 20.1467 69.5817 20.1467 68.9546C20.1467 68.3274 20.628 67.8091 21.2337 67.8091H25.13L25.969 66.6242L21.2878 48.2782C21.1326 47.67 21.2327 47.0201 21.5632 46.4948L38.094 20.2305ZM39.7365 20.337C39.385 19.7786 38.6147 19.7786 38.2633 20.337L21.7325 46.6014C21.4316 47.0795 21.3398 47.6729 21.4816 48.2288L26.1857 66.6643L25.2334 68.0091H21.2337C20.7491 68.0091 20.3467 68.4269 20.3467 68.9546C20.3467 69.4822 20.7491 69.9 21.2337 69.9H55.7791C56.2637 69.9 56.6661 69.4822 56.6661 68.9546C56.6661 68.4269 56.2637 68.0091 55.7791 68.0091H52.7664L51.8141 66.6643L56.5182 48.2288C56.66 47.6729 56.5682 47.0795 56.2673 46.6014L39.7365 20.337ZM38.1129 23.9699V54.3097C38.3997 54.2497 38.6962 54.2182 38.9999 54.2182C39.3036 54.2182 39.6001 54.2497 39.8869 54.3097V23.9699L54.817 47.691L50.1137 66.1234C49.9623 66.7168 50.0776 67.3505 50.4249 67.841L50.5439 68.0091H27.4559L27.5749 67.841C27.9222 67.3505 28.0375 66.7168 27.8861 66.1234L23.2026 47.7684L22.4114 47.2097L22.5268 47.0463L23.2619 47.5654L38.1129 23.9699ZM23.3979 47.7248L28.0799 66.074C28.2308 66.6654 28.14 67.2942 27.834 67.8091H50.1658C49.8598 67.2942 49.769 66.6654 49.9199 66.074L54.6019 47.7248L40.0869 24.6632V54.3566C42.0732 54.8723 43.5415 56.7697 43.5415 59.0227C43.5415 61.6707 41.5135 63.8273 38.9999 63.8273C36.4863 63.8273 34.4583 61.6707 34.4583 59.0227C34.4583 56.7697 35.9266 54.8723 37.9129 54.3566V24.6632L23.3979 47.7248ZM37.9129 54.5639C36.0441 55.0752 34.6583 56.8739 34.6583 59.0227C34.6583 61.5713 36.6075 63.6273 38.9999 63.6273C41.3923 63.6273 43.3415 61.5713 43.3415 59.0227C43.3415 56.8739 41.9557 55.0752 40.0869 54.5639V55.9864H37.9129V54.5639ZM39.8869 54.5145C39.6004 54.4514 39.3037 54.4182 38.9999 54.4182C38.6961 54.4182 38.3994 54.4514 38.1129 54.5145V55.7864H39.8869V54.5145ZM38.9999 56.5091C37.6977 56.5091 36.6324 57.629 36.6324 59.0227C36.6324 60.4165 37.6977 61.5364 38.9999 61.5364C40.3021 61.5364 41.3674 60.4165 41.3674 59.0227C41.3674 57.629 40.3021 56.5091 38.9999 56.5091ZM36.4324 59.0227C36.4324 57.5295 37.5765 56.3091 38.9999 56.3091C40.4233 56.3091 41.5674 57.5295 41.5674 59.0227C41.5674 60.5159 40.4233 61.7364 38.9999 61.7364C37.5765 61.7364 36.4324 60.5159 36.4324 59.0227Z" fill="#38384A"/>
</g>
</svg>
