<svg width="91" height="70" viewBox="0 0 91 70" fill="none" xmlns="http://www.w3.org/2000/svg">
<g id="Group 1000003123">
<g id="Group 1000003122">
<g id="Vector">
<path d="M74.0908 8.24994C74.0908 8.9403 73.5312 9.49994 72.8408 9.49994C72.1505 9.49994 71.5908 8.9403 71.5908 8.24994C71.5908 7.55959 72.1505 6.99994 72.8408 6.99994C73.5312 6.99994 74.0908 7.55959 74.0908 8.24994Z" fill="#38384A"/>
<path d="M80.0908 8.24994C80.0908 8.9403 79.5312 9.49994 78.8408 9.49994C78.1505 9.49994 77.5908 8.9403 77.5908 8.24994C77.5908 7.55959 78.1505 6.99994 78.8408 6.99994C79.5312 6.99994 80.0908 7.55959 80.0908 8.24994Z" fill="#38384A"/>
<path d="M89.773 3.70582C89.773 3.60288 89.6708 3.60288 89.6708 3.49994C89.0573 2.16171 87.9326 1.23524 86.5011 0.720531L85.7854 0.514648H45.3978C13.5989 0.514648 4.90786 0.514648 4.39663 0.61759C2.76067 0.823472 1.32921 1.95582 0.613483 3.49994C0.306742 4.01465 0.102247 4.52935 0.102247 4.73524C-7.45058e-09 5.45582 0 21.3088 0 35.1029V41.9999C0 65.0588 0 65.5735 0.408989 66.2941C0.408989 66.397 0.511236 66.4999 0.613483 66.6029C1.12472 67.5293 2.04494 68.5588 3.06742 69.0735C3.4764 69.2793 4.08989 69.4852 4.29438 69.4852C4.90786 69.5882 16.6663 69.5882 45.1933 69.5882C78.9348 69.5882 85.6831 69.5882 86.0921 69.4852C88.0348 68.9705 89.5685 67.4264 90.0798 65.4705C90.182 64.9558 90.182 60.0146 90.182 34.9999V28.3088C90.182 5.24994 90.182 4.32347 89.773 3.70582ZM87.9326 40.147C87.9326 62.5882 87.9326 64.3382 87.7281 64.8529C87.4213 65.9852 86.6034 66.8088 85.4787 67.1176C85.0697 67.2205 83.4337 67.2205 65.6427 67.2205C60.3258 67.2205 53.4753 67.2205 44.8865 67.2205H4.90787L4.39663 67.0146C3.6809 66.7058 3.06742 66.0882 2.76067 65.4705L2.45393 64.8529V15.7499H87.9326V40.147ZM2.35169 13.1764V9.05877C2.35169 5.55877 2.45393 5.147 2.45393 4.94112C2.76067 4.01465 3.4764 3.29406 4.49888 2.98524C4.80562 2.8823 8.17977 2.8823 45.1933 2.8823H85.4787L86.0921 3.08818C86.7056 3.397 87.2169 4.01465 87.5236 4.6323C87.7281 5.147 87.7281 5.24994 87.8303 8.95582V13.0735H2.35169V13.1764Z" fill="#38384A"/>
<path d="M75.0708 29.2499C75.0708 28.5596 75.6304 27.9999 76.3208 27.9999H79.3408C80.0312 27.9999 80.5908 28.5596 80.5908 29.2499C80.5908 29.9403 80.0312 30.4999 79.3408 30.4999H76.3208C75.6304 30.4999 75.0708 29.9403 75.0708 29.2499Z" fill="#38384A"/>
<path d="M60.5908 29.4999C60.5908 28.6715 61.2624 27.9999 62.0908 27.9999H71.0908C71.9193 27.9999 72.5908 28.6715 72.5908 29.4999C72.5908 30.3284 71.9193 30.9999 71.0908 30.9999H62.0908C61.2624 30.9999 60.5908 30.3284 60.5908 29.4999Z" fill="#38384A"/>
<path d="M7.59082 8.24994C7.59082 7.55959 8.15046 6.99994 8.84082 6.99994H21.3408C22.0312 6.99994 22.5908 7.55959 22.5908 8.24994C22.5908 8.9403 22.0312 9.49994 21.3408 9.49994H8.84082C8.15046 9.49994 7.59082 8.9403 7.59082 8.24994Z" fill="#38384A"/>
<path d="M75.0708 36.2499C75.0708 35.5596 75.6305 34.9999 76.3208 34.9999H79.3408C80.0312 34.9999 80.5908 35.5596 80.5908 36.2499C80.5908 36.9403 80.0312 37.4999 79.3408 37.4999H76.3208C75.6305 37.4999 75.0708 36.9403 75.0708 36.2499Z" fill="#38384A"/>
<path d="M60.5908 36.4999C60.5908 35.6715 61.2624 34.9999 62.0908 34.9999H71.0908C71.9193 34.9999 72.5908 35.6715 72.5908 36.4999C72.5908 37.3284 71.9193 37.9999 71.0908 37.9999H62.0908C61.2624 37.9999 60.5908 37.3284 60.5908 36.4999Z" fill="#38384A"/>
<path d="M75.0708 43.2499C75.0708 42.5596 75.6305 41.9999 76.3208 41.9999H79.3408C80.0312 41.9999 80.5908 42.5596 80.5908 43.2499C80.5908 43.9403 80.0312 44.4999 79.3408 44.4999H76.3208C75.6305 44.4999 75.0708 43.9403 75.0708 43.2499Z" fill="#38384A"/>
<path d="M60.5908 43.4999C60.5908 42.6715 61.2624 41.9999 62.0908 41.9999H71.0908C71.9193 41.9999 72.5908 42.6715 72.5908 43.4999C72.5908 44.3284 71.9193 44.9999 71.0908 44.9999H62.0908C61.2624 44.9999 60.5908 44.3284 60.5908 43.4999Z" fill="#38384A"/>
<path d="M75.0708 50.2499C75.0708 49.5596 75.6305 48.9999 76.3208 48.9999H79.3408C80.0312 48.9999 80.5908 49.5596 80.5908 50.2499C80.5908 50.9403 80.0312 51.4999 79.3408 51.4999H76.3208C75.6305 51.4999 75.0708 50.9403 75.0708 50.2499Z" fill="#38384A"/>
<path d="M60.5908 50.4999C60.5908 49.6715 61.2624 48.9999 62.0908 48.9999H71.0908C71.9193 48.9999 72.5908 49.6715 72.5908 50.4999C72.5908 51.3284 71.9193 51.9999 71.0908 51.9999H62.0908C61.2624 51.9999 60.5908 51.3284 60.5908 50.4999Z" fill="#38384A"/>
<path d="M68.0908 8.24994C68.0908 8.9403 67.5312 9.49994 66.8408 9.49994C66.1505 9.49994 65.5908 8.9403 65.5908 8.24994C65.5908 7.55959 66.1505 6.99994 66.8408 6.99994C67.5312 6.99994 68.0908 7.55959 68.0908 8.24994Z" fill="#38384A"/>
<path fill-rule="evenodd" clip-rule="evenodd" d="M21.7332 52.5076C21.1024 52.2272 20.8183 51.4885 21.0986 50.8577L32.0833 26.1422C32.3637 25.5114 33.1024 25.2272 33.7332 25.5076C34.3641 25.788 34.6482 26.5267 34.3678 27.1576L23.3832 51.873C23.1028 52.5039 22.3641 52.788 21.7332 52.5076Z" fill="#38384A"/>
<path fill-rule="evenodd" clip-rule="evenodd" d="M49.8194 35.7043L40.2563 29.5591C39.7501 29.2339 39.0848 29.3106 38.6659 29.7425C38.1101 30.3155 38.2182 31.254 38.8899 31.6856L47.1601 36.9999L38.8899 42.3143C38.2182 42.7459 38.1101 43.6844 38.6659 44.2574C39.0848 44.6893 39.7501 44.766 40.2563 44.4408L49.8194 38.2956C50.8479 37.6347 50.8479 36.3652 49.8194 35.7043Z" fill="#38384A"/>
<path fill-rule="evenodd" clip-rule="evenodd" d="M8.3622 35.7043L17.9254 29.5591C18.4315 29.2339 19.0968 29.3106 19.5158 29.7425C20.0716 30.3155 19.9634 31.254 19.2918 31.6856L11.0216 36.9999L19.2918 42.3143C19.9634 42.7459 20.0716 43.6844 19.5158 44.2574C19.0968 44.6893 18.4315 44.766 17.9254 44.4408L8.3622 38.2956C7.33369 37.6347 7.33369 36.3652 8.3622 35.7043Z" fill="#38384A"/>
</g>
</g>
</g>
</svg>
