<svg width="73" height="69" viewBox="0 0 73 69" fill="none" xmlns="http://www.w3.org/2000/svg">
<g id="Vector">
<path d="M19.2761 29.5828C21.1255 27.7285 22.9221 25.9801 24.7715 24.1258C25.5112 24.9205 26.3567 25.7152 27.0964 26.5629C27.4135 26.8808 27.6248 26.8808 28.0476 26.7219C29.21 26.1921 30.4254 25.6623 31.5878 25.2384C32.0634 25.0795 32.2219 24.8675 32.2219 24.3377C32.1691 23.4901 32.2219 22.5894 32.2219 21.7417C32.2219 21.2649 32.3276 21 32.856 21C34.2299 21.053 35.6037 21 36.9775 21C37.7701 21 38.5099 21 39.3025 21C39.7252 21 39.8838 21.1589 39.8309 21.5828C39.8309 22.5364 39.8309 23.4901 39.8309 24.4437C39.8309 24.8675 39.9894 25.0795 40.4122 25.2384C41.6803 25.6623 42.8956 26.1921 44.111 26.7748C44.4808 26.9338 44.6922 26.9338 44.9564 26.6159C45.749 25.7682 46.5416 24.9735 47.2814 24.1788C49.1308 26.0331 50.9273 27.8344 52.7768 29.6887C52.037 30.4305 51.2972 31.2252 50.4518 31.9669C50.0819 32.2848 50.0819 32.4967 50.2933 32.9735C50.8745 34.1921 51.3501 35.4106 51.8256 36.6821C51.9841 37.053 52.0898 37.2119 52.4597 37.1589C53.6222 37.1589 54.7847 37.1589 56 37.1589C56 39.755 56 42.298 56 44.8411C54.9432 44.8411 53.8864 44.8411 52.8824 44.8411C52.2484 44.8411 51.8785 45.053 51.6671 45.7417C51.2972 46.9073 50.7688 48.0728 50.2404 49.1854C50.0819 49.5563 50.0819 49.7152 50.3461 49.9801C51.1915 50.7748 51.9842 51.6225 52.7768 52.3642C50.9273 54.2185 49.1308 55.9669 47.2814 57.8742C46.5945 57.1325 45.8018 56.3378 45.0621 55.4901C44.745 55.1192 44.4809 55.0662 44.0053 55.3311C42.8428 55.8609 41.6803 56.3377 40.5178 56.7616C40.0423 56.9205 39.8838 57.1325 39.8838 57.6623C39.9366 58.7748 39.8838 59.8344 39.8838 61C37.2946 61 34.8111 61 32.1691 61C32.1691 59.8874 32.1162 58.7748 32.1691 57.7152C32.2219 57.1325 32.0106 56.9205 31.4822 56.7616C30.3725 56.3907 29.21 55.9139 28.1532 55.3841C27.572 55.0662 27.3078 55.1722 26.8851 55.596C26.1982 56.3907 25.4584 57.1325 24.7186 57.8742C22.8692 56.0199 21.0727 54.2185 19.2232 52.3113C19.9102 51.6225 20.7028 50.8278 21.5482 50.0861C21.9181 49.7152 21.9709 49.4503 21.7067 48.9735C21.1255 47.8079 20.6499 46.5894 20.2272 45.3709C20.0687 44.947 19.9102 44.8411 19.4874 44.8411C18.4835 44.894 17.4795 44.894 16.5284 44.894C16.2114 44.894 16 44.8411 16 44.4702C16 42.1391 16 39.755 16 37.4238C16 37.3709 16.0528 37.3709 16.1057 37.2119C17.004 37.2119 17.9551 37.2119 18.9062 37.2119C20.0687 37.2119 20.0159 37.2119 20.4386 36.0993C20.8085 35.0397 21.284 33.9801 21.8124 32.9735C21.9709 32.6026 21.9709 32.3907 21.6539 32.1258C20.9141 31.2252 20.1215 30.3775 19.2761 29.5828ZM47.4399 49.8742C47.5984 49.6623 47.6513 49.5563 47.7041 49.4503C48.9723 47.649 49.8705 45.6887 50.2404 43.5166C50.3461 42.9868 50.5575 42.8278 51.033 42.8808C52.037 42.9338 52.9881 42.8808 54.0449 42.8808C54.0449 41.5563 54.0449 40.4437 54.0449 39.1722C52.9881 39.1722 51.9313 39.1722 50.9273 39.1722C50.5046 39.1722 50.3461 39.0662 50.2933 38.6424C49.9762 36.8411 49.395 35.1457 48.4439 33.6093C48.1268 33.1325 47.8626 32.6556 47.4927 32.0728C48.391 31.2252 49.2365 30.3775 50.0819 29.5828C49.1836 28.7351 48.3382 27.8874 47.3871 26.9338C46.5945 27.7815 45.749 28.6821 44.9036 29.5828C43.0013 28.1523 40.9406 27.1987 38.6156 26.8278C38.0344 26.7219 37.8758 26.457 37.8758 25.9272C37.9287 24.9735 37.8758 23.9669 37.8758 23.0132C36.6605 23.0132 35.498 23.0132 34.2827 23.0132C34.2827 23.2252 34.2299 23.4371 34.2299 23.649C34.2299 24.4967 34.2299 25.3444 34.2299 26.1921C34.2299 26.5629 34.1242 26.7219 33.7015 26.8278C32.4333 27.1987 31.1651 27.5166 29.9498 27.9934C28.9987 28.3642 28.1004 29 27.0436 29.6358C26.251 28.7881 25.4584 27.8874 24.7186 27.1457C23.8203 28.0464 22.9749 28.8411 22.0238 29.7417C22.8692 30.5364 23.7147 31.3841 24.6129 32.2318C23.3448 33.9801 22.4465 35.8344 21.9709 37.9536C21.7067 39.1722 21.7067 39.1722 20.4386 39.1722C19.646 39.1722 18.8534 39.1722 18.0079 39.1722C18.0079 40.3377 18.0079 41.3444 18.0079 42.404C18.0079 42.7748 18.2193 42.8278 18.4835 42.8278C19.3289 42.8278 20.1744 42.8808 21.0198 42.8808C21.6539 42.8278 21.8124 43.1457 21.9181 43.6755C22.1823 45.6358 22.9749 47.4371 24.0845 49.0265C24.2959 49.2914 24.4544 49.5563 24.7186 49.9801C23.8203 50.8278 22.9221 51.6225 22.1823 52.3642C23.0277 53.2119 23.8732 54.0596 24.8243 55.0662C25.6169 54.2185 26.4095 53.3179 27.1493 52.4702C28.2589 53.053 29.21 53.6887 30.214 54.1656C31.2708 54.5894 32.4333 54.9073 33.5429 55.1722C34.0713 55.2781 34.2299 55.4901 34.177 56.0199C34.1242 57.0265 34.177 57.9801 34.177 58.9868C35.4452 58.9868 36.5548 58.9868 37.823 58.9868C37.823 57.9272 37.823 56.8675 37.823 55.8609C37.823 55.4371 37.9287 55.2781 38.3514 55.2252C40.6235 54.8543 42.6314 53.9536 44.4808 52.6291C44.5865 52.5762 44.6922 52.5232 44.9564 52.3642C45.749 53.2119 46.5945 54.1126 47.3342 54.9073C48.2325 54.0596 49.0779 53.2119 49.9234 52.3642C49.1836 51.5695 48.3382 50.7219 47.4399 49.8742Z" fill="#38384A"/>
<path d="M36.0538 29C42.6726 29 48 34.435 48 41.1076C48 47.6726 42.565 53 35.9462 53C29.3273 53 24 47.565 24 40.9462C24.0538 34.3274 29.435 29 36.0538 29ZM36 31.0987C30.5112 31.0987 26.0987 35.565 26.0987 41.0538C26.0987 46.435 30.565 50.9014 36 50.9014C41.435 50.9014 45.9552 46.435 45.9552 41.0538C45.9013 35.565 41.4888 31.0987 36 31.0987Z" fill="#38384A"/>
<path d="M18 7.25C18 6.55964 18.5596 6 19.25 6H25.75C26.4404 6 27 6.55964 27 7.25C27 7.94036 26.4404 8.5 25.75 8.5H19.25C18.5596 8.5 18 7.94036 18 7.25Z" fill="#38384A"/>
<path d="M54 7.25C54 6.55964 53.4404 6 52.75 6H51.25C50.5596 6 50 6.55964 50 7.25C50 7.94036 50.5596 8.5 51.25 8.5H52.75C53.4404 8.5 54 7.94036 54 7.25Z" fill="#38384A"/>
<path d="M31 7.25C31 6.55964 31.5596 6 32.25 6H46.75C47.4404 6 48 6.55964 48 7.25C48 7.94036 47.4404 8.5 46.75 8.5H32.25C31.5596 8.5 31 7.94036 31 7.25Z" fill="#38384A"/>
<path fill-rule="evenodd" clip-rule="evenodd" d="M70.5 14.75H2.5V64C2.5 65.3807 3.61929 66.5 5 66.5H68C69.3807 66.5 70.5 65.3807 70.5 64V14.75ZM70.5 12.25H2.5V5C2.5 3.61929 3.61929 2.5 5 2.5H68C69.3807 2.5 70.5 3.61929 70.5 5V12.25ZM73 5C73 2.23858 70.7614 0 68 0H5C2.23858 0 0 2.23858 0 5V64C0 66.7614 2.23857 69 5 69H68C70.7614 69 73 66.7614 73 64V5Z" fill="#38384A"/>
</g>
</svg>
