<svg width="83" height="76" viewBox="0 0 83 76" fill="none" xmlns="http://www.w3.org/2000/svg">
<g id="Group 1000003128">
<g id="Group 1000003127">
<g id="Group 1000003125">
<g id="Vector">
<path d="M27.6001 7.25115C27.6001 7.94161 27.0415 8.50134 26.3524 8.50134C25.6633 8.50134 25.1046 7.94161 25.1046 7.25115C25.1046 6.56068 25.6633 6.00095 26.3524 6.00095C27.0415 6.00095 27.6001 6.56068 27.6001 7.25115Z" fill="#38384A"/>
<path d="M33.5893 7.25115C33.5893 7.94161 33.0307 8.50134 32.3416 8.50134C31.6524 8.50134 31.0938 7.94161 31.0938 7.25115C31.0938 6.56068 31.6524 6.00095 32.3416 6.00095C33.0307 6.00095 33.5893 6.56068 33.5893 7.25115Z" fill="#38384A"/>
<path d="M21.6109 7.25115C21.6109 7.94161 21.0523 8.50134 20.3632 8.50134C19.6741 8.50134 19.1155 7.94161 19.1155 7.25115C19.1155 6.56068 19.6741 6.00095 20.3632 6.00095C21.0523 6.00095 21.6109 6.56068 21.6109 7.25115Z" fill="#38384A"/>
<path d="M29.5965 22.2535C29.5965 22.944 29.0379 23.5037 28.3488 23.5037C27.6597 23.5037 27.101 22.944 27.101 22.2535C27.101 21.5631 27.6597 21.0033 28.3488 21.0033C29.0379 21.0033 29.5965 21.5631 29.5965 22.2535Z" fill="#38384A"/>
<path d="M10.1317 22.2535C10.1317 21.5631 10.6903 21.0033 11.3794 21.0033H23.8569C24.546 21.0033 25.1046 21.5631 25.1046 22.2535C25.1046 22.944 24.546 23.5037 23.8569 23.5037H11.3794C10.6903 23.5037 10.1317 22.944 10.1317 22.2535Z" fill="#38384A"/>
<path fill-rule="evenodd" clip-rule="evenodd" d="M12.6272 14.7523H80.5045V64.0101C80.5045 65.3911 79.3872 66.5105 78.009 66.5105H58.029C57.4166 66.5105 56.8947 66.9558 56.7972 67.5616L-nan -nanL56.7972 67.5616C56.6748 68.3217 57.2606 69.0109 58.029 69.0109H78.009C80.7655 69.0109 83 66.772 83 64.0101V5.00079C83 2.23893 80.7655 0 78.009 0H15.1227C12.3662 0 10.1317 2.23893 10.1317 5.00079V30.8212C10.1317 31.559 10.7659 32.1363 11.4989 32.0657L-nan -nanL11.4989 32.0657C12.1388 32.004 12.6272 31.4653 12.6272 30.8212V14.7523ZM12.6272 12.2519H80.5045V5.00079C80.5045 3.61986 79.3872 2.5004 78.009 2.5004H15.1227C13.7444 2.5004 12.6272 3.61986 12.6272 5.00079V12.2519ZM42.3235 6.00095C41.6344 6.00095 41.0758 6.56068 41.0758 7.25115C41.0758 7.94161 41.6344 8.50134 42.3235 8.50134H72.7685C73.4576 8.50134 74.0162 7.94161 74.0162 7.25115C74.0162 6.56068 73.4576 6.00095 72.7685 6.00095H42.3235Z" fill="#38384A"/>
<path d="M46.5658 31.7415C47.255 31.7415 47.8136 32.3012 47.8136 32.9917C47.8136 33.6821 47.255 34.2419 46.5658 34.2419C45.8767 34.2419 45.3181 33.6821 45.3181 32.9917C45.3181 32.3012 45.8767 31.7415 46.5658 31.7415Z" fill="#38384A"/>
<path fill-rule="evenodd" clip-rule="evenodd" d="M54.7011 23.3425V36.4942C58.1391 37.1463 60.6903 40.1673 60.6903 43.7451V44.2226C60.6903 47.7647 58.0548 50.6469 54.7011 51.1017V65.1443L31.0514 57.8264L30.6885 58.532C29.1702 61.4852 26.4544 63.6018 23.2817 64.3758L24.3381 69.3153C24.9879 72.3539 23.0101 75.3318 19.9617 75.9045C17.0824 76.4454 14.2834 74.6366 13.5878 71.7853L9.27981 54.1269C4.10254 53.815 0 49.5093 0 44.2434C0 38.775 4.42438 34.3419 9.88214 34.3419H19.1541L54.7011 23.3425ZM17.9675 37.1423H9.88214C5.96799 37.1423 2.79495 40.3216 2.79495 44.2434C2.79495 48.1653 5.96799 51.3446 9.88214 51.3446H17.9675V37.1423ZM18.2353 54.145H12.1615L16.3028 71.1203C16.6459 72.5266 18.0265 73.4188 19.4466 73.152C20.9502 72.8696 21.9257 71.4008 21.6051 69.902L18.2353 54.145ZM22.6957 61.6361C25.055 61.0377 27.0714 59.4523 28.2039 57.2496L28.3389 56.987L21.2311 54.7877L22.6957 61.6361ZM20.7625 51.7117V36.7752L51.9062 27.1383V61.3486L20.7625 51.7117ZM54.7011 48.2566C56.518 47.8333 57.8954 46.2004 57.8954 44.2226V43.7451C57.8954 41.7103 56.5656 39.9657 54.7011 39.377V48.2566Z" fill="#38384A"/>
<path d="M45.5676 38.4925V59.3872L47.564 60.005V38.4925C47.564 37.9402 47.1171 37.4924 46.5658 37.4924C46.0146 37.4924 45.5676 37.9402 45.5676 38.4925Z" fill="#38384A"/>
<path d="M73.7795 42.7826L73.7842 43.6195C73.7868 44.0799 73.7695 44.4759 73.7458 44.4997C73.7221 44.5234 71.7301 44.5414 69.3193 44.5395L64.9361 44.5359L64.9305 43.7403C64.9274 43.3027 64.962 42.9076 65.0072 42.8623C65.0525 42.817 67.0447 42.7805 69.4344 42.7813L73.7795 42.7826Z" fill="#38384A"/>
<path d="M70.1301 57.1634L69.5431 57.7589C69.2203 58.0864 68.9287 58.3544 68.8951 58.3544C68.8616 58.3544 67.4396 56.9566 65.7354 55.2481L62.6368 52.1418L63.194 51.575C63.5005 51.2631 63.8036 51.0081 63.8675 51.0081C63.9315 51.0081 65.3667 52.393 67.0569 54.0857L70.1301 57.1634Z" fill="#38384A"/>
<path d="M70.1301 29.1954L69.5431 28.5999C69.2203 28.2724 68.9287 28.0044 68.8951 28.0044C68.8616 28.0044 67.4396 29.4023 65.7354 31.1107L62.6368 34.217L63.194 34.7838C63.5005 35.0957 63.8036 35.3507 63.8675 35.3507C63.9315 35.3507 65.3667 33.9658 67.0569 32.2731L70.1301 29.1954Z" fill="#38384A"/>
</g>
</g>
</g>
</g>
</svg>
