<svg width="48" height="18" viewBox="0 0 48 18" fill="none" xmlns="http://www.w3.org/2000/svg">
<g id="Vector">
<path d="M0.999744 10.0014H46.988C47.2531 10.0014 47.5074 9.89587 47.6949 9.70807C47.8824 9.52028 47.9877 9.26558 47.9877 9C47.9877 8.73442 47.8824 8.47972 47.6949 8.29193C47.5074 8.10413 47.2531 7.99863 46.988 7.99863H0.999744C0.734595 7.99863 0.480307 8.10413 0.292818 8.29193C0.10533 8.47972 0 8.73442 0 9C0 9.26558 0.10533 9.52028 0.292818 9.70807C0.480307 9.89587 0.734595 10.0014 0.999744 10.0014Z" fill="#EF4926"/>
<path d="M38.2832 1.69703L46.2812 9.70797C46.4697 9.89037 46.7222 9.99131 46.9844 9.98902C47.2465 9.98674 47.4973 9.88143 47.6826 9.69577C47.868 9.51011 47.9731 9.25895 47.9754 8.9964C47.9777 8.73384 47.877 8.48079 47.6949 8.29193L39.6968 0.281096C39.5083 0.0986885 39.2557 -0.00224368 38.9936 3.78543e-05C38.7315 0.00231939 38.4807 0.107632 38.2954 0.293294C38.11 0.478955 38.0049 0.730111 38.0026 0.992666C38.0003 1.25522 38.1011 1.50817 38.2832 1.69703Z" fill="#EF4926"/>
<path d="M39.6968 17.7189L47.6949 9.70807C47.7904 9.6157 47.8664 9.5051 47.9188 9.38293C47.9712 9.26076 47.9988 9.12936 48 8.9964C48.0011 8.86343 47.9758 8.73158 47.9256 8.60851C47.8753 8.48545 47.801 8.37364 47.7072 8.27962C47.6133 8.1856 47.5017 8.11125 47.3788 8.0609C47.256 8.01055 47.1243 7.98521 46.9916 7.98637C46.8588 7.98752 46.7276 8.01514 46.6057 8.06763C46.4837 8.12011 46.3734 8.19639 46.2812 8.29203L38.2832 16.303C38.1011 16.4918 38.0003 16.7448 38.0026 17.0073C38.0049 17.2699 38.11 17.521 38.2954 17.7067C38.4807 17.8924 38.7315 17.9977 38.9936 18C39.2557 18.0022 39.5083 17.9013 39.6968 17.7189Z" fill="#EF4926"/>
</g>
</svg>
