<svg width="17" height="17" viewBox="0 0 17 17" fill="none" xmlns="http://www.w3.org/2000/svg">
<g id="Vector">
<path fill-rule="evenodd" clip-rule="evenodd" d="M8.5 16C12.6421 16 16 12.6421 16 8.5C16 4.35786 12.6421 1 8.5 1C4.35786 1 1 4.35786 1 8.5C1 12.6421 4.35786 16 8.5 16ZM8.5 17C13.1944 17 17 13.1944 17 8.5C17 3.80558 13.1944 0 8.5 0C3.80558 0 0 3.80558 0 8.5C0 13.1944 3.80558 17 8.5 17Z" fill="#757575"/>
<path d="M7.66943 10.5825V10.1826C7.66943 9.86947 7.7054 9.59652 7.77734 9.36377C7.84928 9.13102 7.96989 8.91309 8.13916 8.70996C8.30843 8.5026 8.53695 8.28678 8.82471 8.0625C9.12093 7.82975 9.35579 7.62874 9.5293 7.45947C9.70703 7.2902 9.83398 7.12093 9.91016 6.95166C9.99056 6.77816 10.0308 6.57715 10.0308 6.34863C10.0308 5.98893 9.90804 5.71598 9.6626 5.52979C9.42139 5.33936 9.08073 5.24414 8.64062 5.24414C8.2513 5.24414 7.88525 5.29915 7.54248 5.40918C7.19971 5.51921 6.86117 5.65674 6.52686 5.82178L6 4.70459C6.38509 4.493 6.80192 4.32373 7.25049 4.19678C7.70329 4.06559 8.20052 4 8.74219 4C9.60547 4 10.272 4.20947 10.7417 4.62842C11.2157 5.04736 11.4526 5.59961 11.4526 6.28516C11.4526 6.66178 11.3934 6.98551 11.2749 7.25635C11.1564 7.52295 10.9808 7.77051 10.748 7.99902C10.5195 8.22331 10.2424 8.46029 9.9165 8.70996C9.6499 8.92155 9.44466 9.10563 9.30078 9.26221C9.16113 9.41455 9.0638 9.56901 9.00879 9.72559C8.95801 9.88216 8.93262 10.0705 8.93262 10.2905V10.5825H7.66943ZM7.42822 12.6265C7.42822 12.2795 7.51709 12.0361 7.69482 11.8965C7.87679 11.7526 8.09896 11.6807 8.36133 11.6807C8.61523 11.6807 8.83317 11.7526 9.01514 11.8965C9.1971 12.0361 9.28809 12.2795 9.28809 12.6265C9.28809 12.965 9.1971 13.2104 9.01514 13.3628C8.83317 13.5109 8.61523 13.585 8.36133 13.585C8.09896 13.585 7.87679 13.5109 7.69482 13.3628C7.51709 13.2104 7.42822 12.965 7.42822 12.6265Z" fill="#757575"/>
</g>
</svg>
