<svg width="132" height="120" viewBox="0 0 132 120" fill="none" xmlns="http://www.w3.org/2000/svg">
<g id="Group 1000003170">
<g id="Vector">
<path fill-rule="evenodd" clip-rule="evenodd" d="M121 74H78V71H121V74Z" fill="#95959F"/>
<path fill-rule="evenodd" clip-rule="evenodd" d="M118 54.4286H83C81.8954 54.4286 81 55.324 81 56.4286V115C81 116.105 81.8954 117 83 117H118C119.105 117 120 116.105 120 115V56.4286C120 55.324 119.105 54.4286 118 54.4286ZM83 51.4286C80.2386 51.4286 78 53.6671 78 56.4286V115C78 117.761 80.2386 120 83 120H118C120.761 120 123 117.761 123 115V56.4286C123 53.6671 120.761 51.4286 118 51.4286H83Z" fill="#95959F"/>
<path fill-rule="evenodd" clip-rule="evenodd" d="M121 62.521H78V59.521H121V62.521Z" fill="#95959F"/>
<path fill-rule="evenodd" clip-rule="evenodd" d="M121 111.933H78V108.933H121V111.933Z" fill="#95959F"/>
<path fill-rule="evenodd" clip-rule="evenodd" d="M86 103.374C86 102.546 86.6716 101.874 87.5 101.874H113.5C114.328 101.874 115 102.546 115 103.374C115 104.202 114.328 104.874 113.5 104.874H87.5C86.6716 104.874 86 104.202 86 103.374Z" fill="#95959F"/>
<path fill-rule="evenodd" clip-rule="evenodd" d="M95 66.5546C95 65.7192 95.6716 65.042 96.5 65.042H113.5C114.328 65.042 115 65.7192 115 66.5546C115 67.39 114.328 68.0672 113.5 68.0672H96.5C95.6716 68.0672 95 67.39 95 66.5546Z" fill="#95959F"/>
<path d="M89 66.5546C89 67.39 88.3284 68.0672 87.5 68.0672C86.6716 68.0672 86 67.39 86 66.5546C86 65.7192 86.6716 65.042 87.5 65.042C88.3284 65.042 89 65.7192 89 66.5546Z" fill="#95959F"/>
<path fill-rule="evenodd" clip-rule="evenodd" d="M110 80.4471H91C89.785 80.4471 88.8 81.432 88.8 82.647V92.8151C88.8 94.0302 89.785 95.0151 91 95.0151H110C111.215 95.0151 112.2 94.0301 112.2 92.8151V82.6471C112.2 81.432 111.215 80.4471 110 80.4471ZM91 77.6471C88.2386 77.6471 86 79.8856 86 82.647V92.8151C86 95.5765 88.2386 97.8151 91 97.8151H110C112.761 97.8151 115 95.5765 115 92.8151V82.6471C115 79.8856 112.761 77.6471 110 77.6471H91Z" fill="#95959F"/>
<path fill-rule="evenodd" clip-rule="evenodd" d="M114.164 79.9878C113.79 79.3424 112.967 79.1257 112.324 79.5037L88.324 93.6214C87.6814 93.9994 87.4631 94.829 87.8364 95.4744C88.2097 96.1198 89.0333 96.3365 89.676 95.9585L113.676 81.8408C114.319 81.4628 114.537 80.6332 114.164 79.9878Z" fill="#95959F"/>
<path fill-rule="evenodd" clip-rule="evenodd" d="M87.8364 79.9878C88.2097 79.3424 89.0333 79.1257 89.676 79.5037L113.676 93.6214C114.319 93.9994 114.537 94.829 114.164 95.4744C113.79 96.1198 112.967 96.3365 112.324 95.9585L88.324 81.8408C87.6814 81.4628 87.4631 80.6332 87.8364 79.9878Z" fill="#95959F"/>
<path fill-rule="evenodd" clip-rule="evenodd" d="M52 38.0941H23C21.785 38.0941 20.8 39.0791 20.8 40.2941V64.5798C20.8 65.7949 21.785 66.7798 23 66.7798H52C53.215 66.7798 54.2 65.7949 54.2 64.5798V40.2941C54.2 39.0791 53.215 38.0941 52 38.0941ZM23 35.2941C20.2386 35.2941 18 37.5327 18 40.2941V64.5798C18 67.3413 20.2386 69.5798 23 69.5798H52C54.7614 69.5798 57 67.3413 57 64.5798V40.2941C57 37.5327 54.7614 35.2941 52 35.2941H23Z" fill="#95959F"/>
<path fill-rule="evenodd" clip-rule="evenodd" d="M19.8774 36.3161C20.4216 35.6915 21.3655 35.6306 21.9855 36.1801L54.9855 65.4238C55.6055 65.9732 55.6669 66.9249 55.1226 67.5495C54.5784 68.174 53.6345 68.2349 53.0145 67.6855L20.0145 38.4418C19.3945 37.8923 19.3331 36.9406 19.8774 36.3161Z" fill="#95959F"/>
<path fill-rule="evenodd" clip-rule="evenodd" d="M55.1226 37.3245C55.6669 37.949 55.6055 38.9007 54.9855 39.4502L21.9855 68.6939C21.3655 69.2433 20.4216 69.1824 19.8774 68.5579C19.3331 67.9333 19.3945 66.9816 20.0145 66.4322L53.0145 37.1885C53.6345 36.639 54.5784 36.6999 55.1226 37.3245Z" fill="#95959F"/>
<path fill-rule="evenodd" clip-rule="evenodd" d="M108.5 17.1428C108.5 16.3144 109.172 15.6428 110 15.6428H114C114.828 15.6428 115.5 16.3144 115.5 17.1428C115.5 17.9712 114.828 18.6428 114 18.6428H110C109.172 18.6428 108.5 17.9712 108.5 17.1428Z" fill="#95959F"/>
<path d="M20 17.6471C20 18.4825 19.3284 19.1597 18.5 19.1597C17.6716 19.1597 17 18.4825 17 17.6471C17 16.8117 17.6716 16.1345 18.5 16.1345C19.3284 16.1345 20 16.8117 20 17.6471Z" fill="#95959F"/>
<path d="M26 17.6471C26 18.4825 25.3284 19.1597 24.5 19.1597C23.6716 19.1597 23 18.4825 23 17.6471C23 16.8117 23.6716 16.1345 24.5 16.1345C25.3284 16.1345 26 16.8117 26 17.6471Z" fill="#95959F"/>
<path d="M32 17.6471C32 18.4825 31.3284 19.1597 30.5 19.1597C29.6716 19.1597 29 18.4825 29 17.6471C29 16.8117 29.6716 16.1345 30.5 16.1345C31.3284 16.1345 32 16.8117 32 17.6471Z" fill="#95959F"/>
<path fill-rule="evenodd" clip-rule="evenodd" d="M37.5 17.1428C37.5 16.3144 38.1716 15.6428 39 15.6428H102C102.828 15.6428 103.5 16.3144 103.5 17.1428C103.5 17.9712 102.828 18.6428 102 18.6428H39C38.1716 18.6428 37.5 17.9712 37.5 17.1428Z" fill="#95959F"/>
<path fill-rule="evenodd" clip-rule="evenodd" d="M123 27.2268H9V24.2268H123V27.2268Z" fill="#95959F"/>
<path fill-rule="evenodd" clip-rule="evenodd" d="M63.5 58.4874C63.5 57.659 64.1716 56.9874 65 56.9874H69C69.8284 56.9874 70.5 57.659 70.5 58.4874C70.5 59.3158 69.8284 59.9874 69 59.9874H65C64.1716 59.9874 63.5 59.3158 63.5 58.4874Z" fill="#95959F"/>
<path fill-rule="evenodd" clip-rule="evenodd" d="M63.5 66.5546C63.5 65.7262 64.1716 65.0546 65 65.0546H69C69.8284 65.0546 70.5 65.7262 70.5 66.5546C70.5 67.383 69.8284 68.0546 69 68.0546H65C64.1716 68.0546 63.5 67.383 63.5 66.5546Z" fill="#95959F"/>
<path fill-rule="evenodd" clip-rule="evenodd" d="M63.5 36.8066C63.5 35.9782 64.1716 35.3066 65 35.3066H115C115.828 35.3066 116.5 35.9782 116.5 36.8066C116.5 37.6351 115.828 38.3066 115 38.3066H65C64.1716 38.3066 63.5 37.6351 63.5 36.8066Z" fill="#95959F"/>
<path fill-rule="evenodd" clip-rule="evenodd" d="M63.5 44.3696C63.5 43.5412 64.1716 42.8696 65 42.8696H101C101.828 42.8696 102.5 43.5412 102.5 44.3696C102.5 45.1981 101.828 45.8696 101 45.8696H65C64.1716 45.8696 63.5 45.1981 63.5 44.3696Z" fill="#95959F"/>
<path fill-rule="evenodd" clip-rule="evenodd" d="M12 11.0923H121V43.9117C121 44.7401 121.672 45.4117 122.5 45.4117C123.328 45.4117 124 44.7401 124 43.9117V11.0923C124 9.42157 122.657 8.06714 121 8.06714H12C10.3431 8.06714 9 9.42157 9 11.0924V78.6554C9 80.3262 10.3431 81.6806 12 81.6806H69.4874C70.3228 81.6806 71 81.0034 71 80.168C71 79.3326 70.3228 78.6554 69.4874 78.6554H12V11.0923Z" fill="#95959F"/>
<path fill-rule="evenodd" clip-rule="evenodd" d="M45.6194 104.308C44.819 104.095 44.3405 103.272 44.5507 102.471L48.3618 87.9405C48.572 87.1391 49.3913 86.6626 50.1917 86.8761C50.9922 87.0896 51.4707 87.9123 51.2605 88.7136L47.4493 103.244C47.2392 104.045 46.4199 104.522 45.6194 104.308Z" fill="#95959F"/>
<path fill-rule="evenodd" clip-rule="evenodd" d="M32.5 103.361C32.5 102.533 33.1716 101.861 34 101.861H69C69.8284 101.861 70.5 102.533 70.5 103.361C70.5 104.19 69.8284 104.861 69 104.861H34C33.1716 104.861 32.5 104.19 32.5 103.361Z" fill="#95959F"/>
<path fill-rule="evenodd" clip-rule="evenodd" d="M3 3.02521H129V81.1891C129 82.0175 129.672 82.6891 130.5 82.6891C131.328 82.6891 132 82.0175 132 81.1891V3.02521C132 1.35443 130.657 0 129 0H3C1.34315 0 0 1.35443 0 3.02521V86.7227C0 88.3935 1.34314 89.7479 3 89.7479H69.4874C70.3228 89.7479 71 89.0707 71 88.2353C71 87.3999 70.3228 86.7227 69.4874 86.7227H3L3 3.02521Z" fill="#95959F"/>
</g>
</g>
</svg>
