<svg width="152" height="120" viewBox="0 0 152 120" fill="none" xmlns="http://www.w3.org/2000/svg">
<g id="Vector">
<path fill-rule="evenodd" clip-rule="evenodd" d="M101.423 119.983H98.4754L97.2909 115.157L97.1799 115.121C96.1255 114.774 95.1032 114.344 94.1294 113.848L94.024 113.794L89.8556 116.355L80.7476 107.078L83.2618 102.815L83.2138 102.714C82.7422 101.72 82.3195 100.677 81.9618 99.6005L81.9254 99.4911L77.1883 98.2848V85.1616L81.9273 83.9548L81.9627 83.8431C82.3035 82.7687 82.7255 81.727 83.2126 80.7348L83.2628 80.6325L80.7477 76.3849L89.8556 67.1079L94.0224 69.6676L94.1268 69.6162C95.1023 69.136 96.1263 68.7055 97.1827 68.3414L97.2914 68.3039L98.4754 63.4798H111.35L112.18 66.8744L112.535 68.3059L112.646 68.3423C113.7 68.6893 114.723 69.119 115.697 69.6149L115.802 69.6686L119.97 67.1079L129.095 76.4016L126.58 80.6476L126.629 80.749C127.1 81.7428 127.523 82.7862 127.881 83.8625L127.917 83.972L132.654 85.1782V91.7399L132.638 95.3113V98.3182L127.899 99.525L127.863 99.6367C127.522 100.711 127.1 101.753 126.613 102.745L126.563 102.847L129.078 107.095L119.97 116.372L115.804 113.812L115.699 113.864C114.724 114.344 113.7 114.774 112.643 115.138L112.535 115.176L111.351 120H104.913L101.423 119.983ZM125.252 97.7552L125.498 96.8875L129.602 95.8423V87.6207L125.498 86.5756L125.252 85.7069C124.806 84.1577 124.21 82.6909 123.482 81.3419L123.047 80.5458L125.215 76.8713L119.512 71.0621L115.903 73.2711L115.125 72.8311C113.8 72.0889 112.361 71.4822 110.839 71.0273L109.988 70.7775L108.961 66.596H100.881L99.8545 70.7775L99.0043 71.027C97.4827 71.4819 96.041 72.0894 94.7162 72.8316L93.9395 73.2711L90.3306 71.0621L84.6272 76.8713L86.795 80.5458L86.3604 81.3427C85.632 82.6917 85.0362 84.1587 84.5899 85.7079L84.3444 86.5756L80.24 87.6207V95.8423L84.3444 96.8875L84.5901 97.7562C85.0365 99.3054 85.6324 100.772 86.3608 102.121L86.795 102.917L84.6272 106.592L90.3306 112.401L93.9395 110.192L94.717 110.632C96.0418 111.374 97.4817 111.981 99.0033 112.436L99.854 112.685L100.864 116.867H108.945L109.971 112.686L110.822 112.436L110.823 112.436C112.344 111.981 113.785 111.374 115.11 110.632L115.887 110.192L119.512 112.401L125.215 106.592L123.047 102.917L123.482 102.12C124.21 100.771 124.806 99.3044 125.252 97.7552ZM90.7261 91.7399C90.7261 99.6964 97.0921 106.186 104.913 106.186C112.734 106.186 119.1 99.6964 119.1 91.7399C119.1 83.7834 112.734 77.2935 104.913 77.2935C97.0921 77.2935 90.7261 83.7834 90.7261 91.7399ZM104.913 74.1606C114.427 74.1606 122.168 82.0397 122.168 91.7399C122.168 101.44 114.427 109.319 104.913 109.319C95.399 109.319 87.658 101.44 87.658 91.7399C87.658 82.0397 95.399 74.1606 104.913 74.1606ZM97.7223 91.7399C97.7223 95.7745 100.942 99.0602 104.913 99.0602C108.883 99.0602 112.104 95.7745 112.104 91.7399C112.104 87.7052 108.883 84.4196 104.913 84.4196C100.942 84.4196 97.7223 87.7052 97.7223 91.7399ZM94.6378 91.7399C94.6378 85.9616 99.2494 81.27 104.913 81.27C110.576 81.27 115.172 85.9611 115.188 91.7405C115.188 97.5185 110.576 102.21 104.913 102.21C99.2494 102.21 94.6378 97.5182 94.6378 91.7399Z" fill="#95959F"/>
<path fill-rule="evenodd" clip-rule="evenodd" d="M66.4324 39.8594H25.3076C24.0263 39.8594 22.9877 40.8981 22.9877 42.1793V50.6151C22.9877 51.8964 24.0263 52.935 25.3076 52.935H66.4324C67.7136 52.935 68.7522 51.8964 68.7522 50.6151V42.1793C68.7522 40.8981 67.7136 39.8594 66.4324 39.8594ZM25.3076 36.9069C22.3957 36.9069 20.0352 39.2674 20.0352 42.1793V50.6151C20.0352 53.527 22.3957 55.8875 25.3076 55.8875H66.4324C69.3442 55.8875 71.7048 53.527 71.7048 50.6151V42.1793C71.7048 39.2674 69.3442 36.9069 66.4324 36.9069H25.3076Z" fill="#95959F"/>
<path fill-rule="evenodd" clip-rule="evenodd" d="M79.0862 64.3234C79.0862 65.197 78.378 65.9051 77.5044 65.9051H23.1986C22.325 65.9051 21.6169 65.197 21.6169 64.3234C21.6169 63.4498 22.325 62.7417 23.1986 62.7417H77.5044C78.378 62.7417 79.0862 63.4498 79.0862 64.3234Z" fill="#95959F"/>
<path fill-rule="evenodd" clip-rule="evenodd" d="M74.8682 72.2984C74.8682 71.4249 74.1601 70.7167 73.2865 70.7167H27.4165C26.543 70.7167 25.8348 71.4249 25.8348 72.2984C25.8348 73.172 26.543 73.8802 27.4165 73.8802H73.2865C74.1601 73.8802 74.8682 73.172 74.8682 72.2984Z" fill="#95959F"/>
<path fill-rule="evenodd" clip-rule="evenodd" d="M136.028 3.19003H3.16345L3.16344 91.4475H70.1098C70.9907 91.4475 71.7048 92.1616 71.7048 93.0425C71.7048 93.9234 70.9907 94.6375 70.1098 94.6375H53.7672L50.4168 107.411H72.7593C73.6328 107.411 74.341 108.119 74.341 108.993C74.341 109.866 73.6328 110.574 72.7593 110.574H35.8524C34.9788 110.574 34.2707 109.866 34.2707 108.993C34.2707 108.119 34.9788 107.411 35.8524 107.411H47.1464L50.4968 94.6375H3.16344C1.41632 94.6375 0 93.2093 0 91.4475V3.19003C0 1.42822 1.41632 0 3.16345 0H136.028C137.775 0 139.192 1.42823 139.192 3.19003V27.1529C139.192 28.0265 138.483 28.7346 137.61 28.7346C136.736 28.7346 136.028 28.0265 136.028 27.1529V3.19003ZM130.756 28.7102H12.6538V82.9407H70.1098C70.9907 82.9407 71.7048 83.6548 71.7048 84.5357C71.7048 85.4166 70.9907 86.1307 70.1098 86.1307H12.6538C10.9067 86.1307 9.49034 84.7025 9.49034 82.9407V11.6967C9.49034 9.93488 10.9067 8.50665 12.6538 8.50665H127.592C129.339 8.50665 130.756 9.93488 130.756 11.6967V28.7102ZM136.028 63.7962C136.028 62.9226 136.736 62.2144 137.61 62.2144C138.483 62.2144 139.192 62.9226 139.192 63.7962V79.2855C139.192 80.1591 138.483 80.8673 137.61 80.8673C136.736 80.8673 136.028 80.1591 136.028 79.2855V63.7962ZM12.6538 11.6967H127.592V25.5467H12.6538V11.6967ZM115.993 16.4951C115.119 16.4951 114.411 17.2032 114.411 18.0768C114.411 18.9504 115.119 19.6585 115.993 19.6585H120.211C121.085 19.6585 121.793 18.9504 121.793 18.0768C121.793 17.2032 121.085 16.4951 120.211 16.4951H115.993ZM19.5079 20.2036C20.3815 20.2036 21.0896 19.4895 21.0896 18.6086C21.0896 17.7277 20.3815 17.0136 19.5079 17.0136C18.6344 17.0136 17.9262 17.7277 17.9262 18.6086C17.9262 19.4895 18.6344 20.2036 19.5079 20.2036ZM27.4165 18.6086C27.4165 19.4895 26.7084 20.2036 25.8348 20.2036C24.9612 20.2036 24.2531 19.4895 24.2531 18.6086C24.2531 17.7277 24.9612 17.0136 25.8348 17.0136C26.7084 17.0136 27.4165 17.7277 27.4165 18.6086ZM32.1617 20.2036C33.0353 20.2036 33.7434 19.4895 33.7434 18.6086C33.7434 17.7277 33.0353 17.0136 32.1617 17.0136C31.2881 17.0136 30.58 17.7277 30.58 18.6086C30.58 19.4895 31.2881 20.2036 32.1617 20.2036ZM39.5431 18.0768C39.5431 17.2032 40.2512 16.4951 41.1248 16.4951H107.557C108.431 16.4951 109.139 17.2032 109.139 18.0768C109.139 18.9504 108.431 19.6585 107.557 19.6585H41.1248C40.2512 19.6585 39.5431 18.9504 39.5431 18.0768Z" fill="#95959F"/>
<path fill-rule="evenodd" clip-rule="evenodd" d="M144.047 38.1722H90.772L83.2888 41.2088L80.1751 42.4568L80.1723 42.458L79.5313 42.7257L79.5295 42.7264C78.1381 43.2922 77.1883 44.7597 77.1883 46.3892C77.1883 48.0188 78.1381 49.4863 79.5295 50.0521L80.1732 50.3208L80.1751 50.3216L90.772 54.6221H126.885L130 54.6063H144.047C148.217 54.6063 151.635 50.9373 151.635 46.3892C151.635 41.8412 148.217 38.1722 144.047 38.1722ZM139.154 51.6601V41.1184H144.047C146.754 41.1184 148.94 43.5055 148.94 46.3892C148.94 49.2892 146.754 51.6601 144.047 51.6601H139.154ZM130.212 41.1184V44.924H92.3488V41.1184H130.212ZM92.3488 47.8703H130.212V51.6601H92.3488V47.8703ZM136.46 51.6601H132.921V41.1184H136.46V51.6601ZM79.8683 46.3892C79.8683 46.0057 80.1078 45.6434 80.4511 45.4991L89.6542 41.7591V51.003L80.4541 47.2806C80.0907 47.1356 79.8683 46.7854 79.8683 46.3892Z" fill="#95959F"/>
</g>
</svg>
