<svg width="147" height="120" viewBox="0 0 147 120" fill="none" xmlns="http://www.w3.org/2000/svg">
<g id="Vector">
<path fill-rule="evenodd" clip-rule="evenodd" d="M129.36 48.3786C129.36 49.2499 128.654 49.9562 127.783 49.9562H23.1376C22.2663 49.9562 21.56 49.2499 21.56 48.3786C21.56 47.5073 22.2663 46.801 23.1376 46.801H127.783C128.654 46.801 129.36 47.5073 129.36 48.3786Z" fill="#95959F"/>
<path fill-rule="evenodd" clip-rule="evenodd" d="M129.36 37.8615C129.36 38.7328 128.654 39.4391 127.783 39.4391H23.1376C22.2663 39.4391 21.56 38.7328 21.56 37.8615C21.56 36.9903 22.2663 36.284 23.1376 36.284H127.783C128.654 36.284 129.36 36.9903 129.36 37.8615Z" fill="#95959F"/>
<path d="M130.078 68.6251C130.882 68.6251 131.534 69.2735 131.534 70.0734C131.534 70.8732 130.882 71.5216 130.078 71.5216C129.273 71.5216 128.621 70.8732 128.621 70.0734C128.621 69.2735 129.273 68.6251 130.078 68.6251Z" fill="#95959F"/>
<path fill-rule="evenodd" clip-rule="evenodd" d="M139.574 58.8957V74.1308C143.587 74.8861 146.565 78.3857 146.565 82.5303V83.0835C146.565 87.1867 143.489 90.5255 139.574 91.0522V107.319L111.968 98.8422L111.545 99.6597C109.772 103.081 106.602 105.533 102.899 106.429L104.132 112.151C104.891 115.671 102.582 119.121 99.0237 119.784C95.6628 120.411 92.3956 118.315 91.5837 115.012L86.5551 94.5567C80.5118 94.1954 75.723 89.2076 75.723 83.1076C75.723 76.7728 80.8875 71.6375 87.2581 71.6375H98.081L139.574 58.8957ZM96.696 74.8815H87.2581C82.6893 74.8815 78.9855 78.5645 78.9855 83.1076C78.9855 87.6507 82.6893 91.3336 87.2581 91.3336H96.696V74.8815ZM97.0085 94.5777H89.9187L94.7528 114.242C95.1533 115.871 96.7647 116.905 98.4224 116.596C100.177 116.268 101.316 114.567 100.942 112.831L97.0085 94.5777ZM102.215 103.255C104.969 102.562 107.323 100.726 108.645 98.174L108.802 97.8699L100.505 95.3222L102.215 103.255ZM99.9584 91.759V74.4562L136.311 63.2928V102.922L99.9584 91.759ZM139.574 87.7565C141.695 87.2661 143.302 85.3745 143.302 83.0835V82.5303C143.302 80.1731 141.75 78.1522 139.574 77.4702V87.7565Z" fill="#95959F"/>
<path d="M128.913 76.4457V100.65L131.243 101.366V76.4457C131.243 75.8058 130.721 75.2871 130.078 75.2871C129.434 75.2871 128.913 75.8058 128.913 76.4457Z" fill="#95959F"/>
<path fill-rule="evenodd" clip-rule="evenodd" d="M139.679 58.7534V74.044C143.698 74.8419 146.67 78.3638 146.67 82.5303V83.0835C146.67 87.2091 143.601 90.5709 139.679 91.1437V107.462L112.021 98.9685L111.638 99.7081C109.868 103.126 106.713 105.584 103.023 106.507L104.235 112.129C105.006 115.707 102.659 119.213 99.0429 119.888C95.6277 120.524 92.3069 118.395 91.4816 115.038L86.4714 94.6568C80.41 94.2545 75.6179 89.238 75.6179 83.1076C75.6179 76.7142 80.83 71.5323 87.2581 71.5323H98.0652L139.679 58.7534ZM139.469 59.038L98.0968 71.7427H87.2581C80.945 71.7427 75.8282 76.8315 75.8282 83.1076C75.8282 89.1511 80.5728 94.0937 86.5613 94.4517L86.6387 94.4564L91.6858 114.987C92.4844 118.236 95.6979 120.297 99.0044 119.681C102.505 119.028 104.775 115.635 104.029 112.173L102.775 106.351L102.874 106.327C106.548 105.437 109.693 103.005 111.451 99.6113L111.915 98.7159L139.469 107.177V90.9603L139.56 90.948C143.424 90.428 146.46 87.1324 146.46 83.0835V82.5303C146.46 78.4372 143.519 74.9803 139.554 74.2342L139.469 74.218V59.038ZM136.417 63.1505V103.065L99.8532 91.8367V74.3785L136.417 63.1505ZM129.018 100.573L131.138 101.224V76.4457C131.138 75.8644 130.664 75.3922 130.078 75.3922C129.492 75.3922 129.018 75.8644 129.018 76.4457V100.573ZM131.348 101.288V76.4457C131.348 75.7471 130.779 75.1819 130.078 75.1819C129.377 75.1819 128.808 75.7471 128.808 76.4457V100.508L100.064 91.6812V74.5339L136.206 63.4351V102.78L131.348 101.288ZM130.078 68.7303C129.331 68.7303 128.727 69.3322 128.727 70.0734C128.727 70.8146 129.331 71.4164 130.078 71.4164C130.825 71.4164 131.429 70.8146 131.429 70.0734C131.429 69.3322 130.825 68.7303 130.078 68.7303ZM128.516 70.0734C128.516 69.2149 129.216 68.52 130.078 68.52C130.94 68.52 131.639 69.2149 131.639 70.0734C131.639 70.9319 130.94 71.6268 130.078 71.6268C129.216 71.6268 128.516 70.9319 128.516 70.0734ZM87.2581 74.9867C82.7468 74.9867 79.0907 78.6231 79.0907 83.1076C79.0907 87.5921 82.7468 91.2284 87.2581 91.2284H96.5908V74.9867H87.2581ZM78.8803 83.1076C78.8803 78.5058 82.6318 74.7764 87.2581 74.7764H96.8011V91.4388H87.2581C82.6318 91.4388 78.8803 87.7093 78.8803 83.1076ZM139.469 77.327L139.605 77.3699C141.824 78.0652 143.408 80.1259 143.408 82.5303V83.0835C143.408 85.4254 141.764 87.358 139.598 87.859L139.469 87.8888V77.327ZM139.679 77.6155V87.6223C141.69 87.0971 143.197 85.2771 143.197 83.0835V82.5303C143.197 80.27 141.741 78.3244 139.679 77.6155ZM89.7846 94.4725H97.0934L101.045 112.809C101.432 114.603 100.254 116.361 98.4417 116.699C96.7297 117.018 95.0646 115.951 94.6507 114.267L89.7846 94.4725ZM90.0529 94.6829L94.855 114.217C95.242 115.792 96.7998 116.791 98.4032 116.492C100.101 116.176 101.201 114.531 100.839 112.853L96.9236 94.6829H90.0529ZM100.365 95.169L108.953 97.8064L108.738 98.2224C107.402 100.801 105.023 102.657 102.241 103.357L102.135 103.384L100.365 95.169ZM100.646 95.4754L102.295 103.126C104.974 102.42 107.26 100.618 108.551 98.1257L108.651 97.9335L100.646 95.4754Z" fill="#95959F"/>
<path fill-rule="evenodd" clip-rule="evenodd" d="M25.241 59.9474V72.5679H70.9904C71.8616 72.5679 72.5679 73.2742 72.5679 74.1455Lnan nanL72.5679 74.1455C72.5679 75.0167 71.8616 75.723 70.9904 75.723H25.241C23.4985 75.723 22.0859 74.3104 22.0859 72.5679V59.9474C22.0859 58.2049 23.4985 56.7923 25.241 56.7923H117.266C118.137 56.7923 118.843 57.4986 118.843 58.3698C118.843 59.2411 118.137 59.9474 117.266 59.9474H25.241Z" fill="#95959F"/>
<path fill-rule="evenodd" clip-rule="evenodd" d="M135.67 3.18164H3.15513L3.15512 91.207H68.8737C69.7523 91.207 70.4645 91.9193 70.4645 92.7979C70.4645 93.6764 69.7523 94.3887 68.8737 94.3887H53.6258L50.2842 107.128H75.723C76.5943 107.128 77.3006 107.835 77.3006 108.706C77.3006 109.577 76.5943 110.284 75.723 110.284H35.7581C34.8868 110.284 34.1805 109.577 34.1805 108.706C34.1805 107.835 34.8868 107.128 35.7581 107.128H47.0224L50.364 94.3887H3.15512C1.4126 94.3887 0 92.9642 0 91.207V3.18164C0 1.42447 1.4126 0 3.15513 0H135.67C137.413 0 138.826 1.42447 138.826 3.18164V50.2191C138.826 51.0904 138.119 51.7967 137.248 51.7967C136.377 51.7967 135.67 51.0904 135.67 50.2191V3.18164ZM130.412 28.6347H12.6205V82.7226H68.8737C69.7523 82.7226 70.4645 83.4348 70.4645 84.3134C70.4645 85.192 69.7523 85.9042 68.8737 85.9042H12.6205C10.878 85.9042 9.46538 84.4797 9.46538 82.7226V11.6659C9.46538 9.90875 10.878 8.48428 12.6205 8.48428H127.257C128.999 8.48428 130.412 9.90875 130.412 11.6659V28.6347ZM12.6205 11.6659H127.257V25.4795H12.6205V11.6659ZM115.688 16.4517C114.817 16.4517 114.11 17.158 114.11 18.0293C114.11 18.9005 114.817 19.6068 115.688 19.6068H119.895C120.766 19.6068 121.472 18.9005 121.472 18.0293C121.472 17.158 120.766 16.4517 119.895 16.4517H115.688ZM19.4566 20.1505C20.3279 20.1505 21.0342 19.4382 21.0342 18.5596C21.0342 17.6811 20.3279 16.9688 19.4566 16.9688C18.5854 16.9688 17.8791 17.6811 17.8791 18.5596C17.8791 19.4382 18.5854 20.1505 19.4566 20.1505ZM27.3444 18.5596C27.3444 19.4382 26.6381 20.1505 25.7669 20.1505C24.8956 20.1505 24.1893 19.4382 24.1893 18.5596C24.1893 17.6811 24.8956 16.9688 25.7669 16.9688C26.6381 16.9688 27.3444 17.6811 27.3444 18.5596ZM32.0771 20.1505C32.9484 20.1505 33.6547 19.4382 33.6547 18.5596C33.6547 17.6811 32.9484 16.9688 32.0771 16.9688C31.2059 16.9688 30.4996 17.6811 30.4996 18.5596C30.4996 19.4382 31.2059 20.1505 32.0771 20.1505ZM39.4391 18.0293C39.4391 17.158 40.1454 16.4517 41.0166 16.4517H107.274C108.146 16.4517 108.852 17.158 108.852 18.0293C108.852 18.9005 108.146 19.6068 107.274 19.6068H41.0166C40.1454 19.6068 39.4391 18.9005 39.4391 18.0293Z" fill="#95959F"/>
</g>
</svg>
