<svg width="147" height="120" viewBox="0 0 147 120" fill="none" xmlns="http://www.w3.org/2000/svg">
<g id="Vector">
<path fill-rule="evenodd" clip-rule="evenodd" d="M38.6087 41.2174V55.8261C38.6087 56.6905 39.3095 57.3913 40.1739 57.3913C41.0384 57.3913 41.7391 56.6905 41.7391 55.8261V41.2174C41.7391 40.3529 41.0384 39.6522 40.1739 39.6522C39.3095 39.6522 38.6087 40.3529 38.6087 41.2174ZM44.8696 43.8261V41.2174C44.8696 38.6241 42.7673 36.5217 40.1739 36.5217C37.5806 36.5217 35.4783 38.6241 35.4783 41.2174V43.8261H24.5217C21.9284 43.8261 19.8261 45.9284 19.8261 48.5217C19.8261 50.2328 20.7413 51.7301 22.1088 52.5508L24.451 69.5444C24.7899 72.143 27.0039 74.087 29.6245 74.087H50.7233C53.3439 74.087 55.5579 72.143 55.8969 69.5444L58.239 52.5508C59.6066 51.7301 60.5217 50.2328 60.5217 48.5217C60.5217 45.9284 58.4194 43.8261 55.8261 43.8261H44.8696ZM44.8696 50.087H55.8261C56.6905 50.087 57.3913 49.3862 57.3913 48.5217C57.3913 47.6573 56.6905 46.9565 55.8261 46.9565H44.8696V50.087ZM54.8695 53.2174H44.8696V55.8261C44.8696 58.4194 42.7673 60.5217 40.1739 60.5217C37.5806 60.5217 35.4783 58.4194 35.4783 55.8261V53.2174H25.4783L27.5551 69.1395C27.6907 70.1789 28.5763 70.9565 29.6245 70.9565H50.7233C51.7715 70.9565 52.6571 70.1789 52.7927 69.1395L54.8695 53.2174ZM35.4783 46.9565H24.5217C23.6573 46.9565 22.9565 47.6573 22.9565 48.5217C22.9565 49.3862 23.6573 50.087 24.5217 50.087H35.4783V46.9565Z" fill="#95959F"/>
<path fill-rule="evenodd" clip-rule="evenodd" d="M134.609 3.15674H3.13043L3.13043 90.4932H73.5521C74.4238 90.4932 75.1304 91.1999 75.1304 92.0716C75.1304 92.9433 74.4238 93.65 73.5521 93.65H53.2061L49.8907 106.29H66.7826C67.6471 106.29 68.3478 106.991 68.3478 107.855C68.3478 108.72 67.6471 109.421 66.7826 109.421H35.4783C34.6138 109.421 33.913 108.72 33.913 107.855C33.913 106.991 34.6138 106.29 35.4783 106.29H46.6544L49.9698 93.65H3.13043C1.40154 93.65 0 92.2367 0 90.4932V3.15674C0 1.41332 1.40154 0 3.13043 0H134.609C136.338 0 137.739 1.41332 137.739 3.15674V58.1739C137.739 59.0384 137.038 59.7391 136.174 59.7391C135.309 59.7391 134.609 59.0384 134.609 58.1739V3.15674ZM129.391 28.4106H12.5217V82.0752H77.726C78.5977 82.0752 79.3043 82.7818 79.3043 83.6535C79.3043 84.5253 78.5977 85.2319 77.726 85.2319H12.5217C10.7929 85.2319 9.3913 83.8186 9.3913 82.0752V11.5746C9.3913 9.83121 10.7928 8.41788 12.5217 8.41788H126.261C127.99 8.41788 129.391 9.83121 129.391 11.5746V28.4106ZM12.5217 11.5746H126.261V25.2801H12.5217V11.5746ZM114.783 16.3229C113.918 16.3229 113.217 17.0237 113.217 17.8882C113.217 18.7526 113.918 19.4534 114.783 19.4534H118.957C119.821 19.4534 120.522 18.7526 120.522 17.8882C120.522 17.0237 119.821 16.3229 118.957 16.3229H114.783ZM19.3043 19.9928C20.1688 19.9928 20.8696 19.2861 20.8696 18.4144C20.8696 17.5427 20.1688 16.836 19.3043 16.836C18.4399 16.836 17.7391 17.5427 17.7391 18.4144C17.7391 19.2861 18.4399 19.9928 19.3043 19.9928ZM27.1304 18.4144C27.1304 19.2861 26.4297 19.9928 25.5652 19.9928C24.7008 19.9928 24 19.2861 24 18.4144C24 17.5427 24.7008 16.836 25.5652 16.836C26.4297 16.836 27.1304 17.5427 27.1304 18.4144ZM31.8261 19.9928C32.6905 19.9928 33.3913 19.2861 33.3913 18.4144C33.3913 17.5427 32.6905 16.836 31.8261 16.836C30.9616 16.836 30.2609 17.5427 30.2609 18.4144C30.2609 19.2861 30.9616 19.9928 31.8261 19.9928ZM39.1304 17.8882C39.1304 17.0237 39.8312 16.3229 40.6957 16.3229H106.435C107.299 16.3229 108 17.0237 108 17.8882C108 18.7526 107.299 19.4534 106.435 19.4534H40.6957C39.8312 19.4534 39.1304 18.7526 39.1304 17.8882Z" fill="#95959F"/>
<path fill-rule="evenodd" clip-rule="evenodd" d="M104.348 49.5652C104.348 50.4297 103.647 51.1304 102.783 51.1304H70.4348C69.5703 51.1304 68.8696 50.4297 68.8696 49.5652C68.8696 48.7008 69.5703 48 70.4348 48H102.783C103.647 48 104.348 48.7008 104.348 49.5652Z" fill="#95959F"/>
<path fill-rule="evenodd" clip-rule="evenodd" d="M129.391 39.1304C129.391 39.9949 128.691 40.6957 127.826 40.6957H70.4348C69.5703 40.6957 68.8696 39.9949 68.8696 39.1304C68.8696 38.266 69.5703 37.5652 70.4348 37.5652H127.826C128.691 37.5652 129.391 38.266 129.391 39.1304Z" fill="#95959F"/>
<path fill-rule="evenodd" clip-rule="evenodd" d="M88.6956 62.6087H72V67.8261H88.6956V62.6087ZM72 59.4783C70.2711 59.4783 68.8696 60.8798 68.8696 62.6087V67.8261C68.8696 69.555 70.2711 70.9565 72 70.9565H88.6956C90.4245 70.9565 91.8261 69.555 91.8261 67.8261V62.6087C91.8261 60.8798 90.4245 59.4783 88.6956 59.4783H72Z" fill="#95959F"/>
<path d="M93 89.5H90V97.75C90 102.03 93.4698 105.5 97.75 105.5C102.03 105.5 105.5 102.03 105.5 97.75V89.5H102.5V97.75C102.5 100.373 100.373 102.5 97.75 102.5C95.1266 102.5 93 100.373 93 97.75V89.5Z" fill="#95959F"/>
<path fill-rule="evenodd" clip-rule="evenodd" d="M85.2754 86.5C85.0222 86.5 84.809 86.6893 84.779 86.9407L81.2566 116.441C81.221 116.738 81.4534 117 81.753 117H112.78C113.077 117 113.308 116.743 113.277 116.448L110.195 86.948C110.169 86.6934 109.954 86.5 109.698 86.5H85.2754ZM81.8001 86.585C82.0103 84.8251 83.5029 83.5 85.2754 83.5H109.698C111.49 83.5 112.993 84.8538 113.179 86.6363L116.261 116.136C116.477 118.202 114.857 120 112.78 120H81.753C79.6555 120 78.029 118.168 78.2777 116.085L81.8001 86.585Z" fill="#95959F"/>
<path fill-rule="evenodd" clip-rule="evenodd" d="M107.5 64C107.5 57.0964 113.096 51.5 120 51.5C126.904 51.5 132.5 57.0964 132.5 64V74C132.5 74.8284 131.828 75.5 131 75.5C130.172 75.5 129.5 74.8284 129.5 74V64C129.5 58.7533 125.247 54.5 120 54.5C114.753 54.5 110.5 58.7533 110.5 64V74C110.5 74.8284 109.828 75.5 109 75.5C108.172 75.5 107.5 74.8284 107.5 74V64Z" fill="#95959F"/>
<path fill-rule="evenodd" clip-rule="evenodd" d="M101.245 70H138.36C138.876 70 139.307 70.3925 139.355 70.9061L143.6 115.906C143.656 116.493 143.194 117 142.605 117H113V120H142.605C144.962 120 146.809 117.971 146.587 115.624L142.342 70.6243C142.148 68.5698 140.423 67 138.36 67H101.245C99.1378 67 97.3921 68.6342 97.2533 70.7364L96.3774 84H99.3839L100.247 70.9341C100.281 70.4085 100.718 70 101.245 70Z" fill="#95959F"/>
</g>
</svg>
