<svg width="76" height="69" viewBox="0 0 76 69" fill="none" xmlns="http://www.w3.org/2000/svg">
<g id="Vector">
<path fill-rule="evenodd" clip-rule="evenodd" d="M31.6014 8.96039H8.46743V6.87552H31.6014V8.96039ZM67.5328 8.96039H45.3833V6.87552H67.5328V8.96039Z" fill="#F44519"/>
<path fill-rule="evenodd" clip-rule="evenodd" d="M32.5858 2.18458V13.6513H43.4144V2.18458H32.5858ZM31.6014 0.0997095C31.0577 0.0997095 30.6169 0.566423 30.6169 1.14214V14.6938C30.6169 15.2695 31.0577 15.7362 31.6014 15.7362H44.3988C44.9425 15.7362 45.3833 15.2695 45.3833 14.6938V1.14214C45.3833 0.566423 44.9425 0.0997095 44.3988 0.0997095H31.6014Z" fill="#F44519"/>
<path fill-rule="evenodd" clip-rule="evenodd" d="M31.6012 7.44506C15.3418 10.3725 2.60977 24.2659 0.42986 41.6865C0.352964 42.301 0.810671 42.8395 1.39606 42.8395C1.89994 42.8395 2.3217 42.4355 2.38863 41.9067C4.46063 25.5363 16.3631 12.4622 31.6012 9.5619V7.44506ZM44.3987 9.56197C59.6366 12.4624 71.5389 25.5364 73.6108 41.9067C73.6778 42.4355 74.0995 42.8395 74.6034 42.8395C75.1888 42.8395 75.6465 42.301 75.5696 41.6865C73.3897 24.2661 60.6578 10.3727 44.3987 7.44514V9.56197Z" fill="#F44519"/>
<path fill-rule="evenodd" clip-rule="evenodd" d="M71.4705 10.524C72.8297 10.524 73.9315 9.35726 73.9315 7.91796C73.9315 6.47866 72.8297 5.31187 71.4705 5.31187C70.1113 5.31187 69.0094 6.47866 69.0094 7.91796C69.0094 9.35726 70.1113 10.524 71.4705 10.524ZM71.4705 12.6089C73.917 12.6089 75.9004 10.5087 75.9004 7.91796C75.9004 5.32722 73.917 3.22701 71.4705 3.22701C69.0239 3.22701 67.0406 5.32722 67.0406 7.91796C67.0406 10.5087 69.0239 12.6089 71.4705 12.6089Z" fill="#F44519"/>
<path fill-rule="evenodd" clip-rule="evenodd" d="M4.52974 10.524C5.88894 10.524 6.99079 9.35726 6.99079 7.91796C6.99079 6.47866 5.88894 5.31187 4.52974 5.31187C3.17053 5.31187 2.06868 6.47866 2.06868 7.91796C2.06868 9.35726 3.17053 10.524 4.52974 10.524ZM4.52974 12.6089C6.9763 12.6089 8.95964 10.5087 8.95964 7.91796C8.95964 5.32722 6.9763 3.22701 4.52974 3.22701C2.08317 3.22701 0.0998349 5.32722 0.0998349 7.91796C0.0998349 10.5087 2.08317 12.6089 4.52974 12.6089Z" fill="#F44519"/>
<path fill-rule="evenodd" clip-rule="evenodd" d="M37.181 19.3277C37.5707 18.7088 38.4295 18.7088 38.8192 19.3277L55.3066 45.5162C55.6215 46.0164 55.7172 46.6362 55.5691 47.2166L50.8887 65.5542L51.782 66.8154H54.7353C55.279 66.8154 55.7197 67.2821 55.7197 67.8579C55.7197 68.4336 55.279 68.9003 54.7353 68.9003H20.2805C19.7368 68.9003 19.2961 68.4336 19.2961 67.8579C19.2961 67.2821 19.7368 66.8154 20.2805 66.8154H24.2182L25.1114 65.5542L20.4311 47.2166C20.283 46.6362 20.3787 46.0164 20.6936 45.5162L37.181 19.3277ZM26.6792 66.8154H49.321L49.3137 66.8051C48.9501 66.2918 48.83 65.6297 48.9881 65.0103L53.6684 46.6726L38.9845 23.3489V54.8274H37.0157V23.3489L22.3318 46.6726L27.0121 65.0103C27.1702 65.6297 27.0501 66.2918 26.6865 66.8051L26.6792 66.8154Z" fill="#F44519"/>
<path fill-rule="evenodd" clip-rule="evenodd" d="M38.0001 60.5608C39.3593 60.5608 40.4612 59.394 40.4612 57.9547C40.4612 56.5154 39.3593 55.3487 38.0001 55.3487C36.6409 55.3487 35.539 56.5154 35.539 57.9547C35.539 59.394 36.6409 60.5608 38.0001 60.5608ZM38.0001 62.6457C40.4467 62.6457 42.43 60.5455 42.43 57.9547C42.43 55.364 40.4467 53.2638 38.0001 53.2638C35.5535 53.2638 33.5702 55.364 33.5702 57.9547C33.5702 60.5455 35.5535 62.6457 38.0001 62.6457Z" fill="#F44519"/>
<path fill-rule="evenodd" clip-rule="evenodd" d="M31.6013 0.199422C31.118 0.199422 30.7166 0.616011 30.7166 1.14214V6.77581H31.701L31.7008 9.64442L31.6198 9.65985C31.3174 9.71741 31.0163 9.77898 30.7166 9.84452V14.6938C30.7166 15.2199 31.118 15.6365 31.6013 15.6365H44.3987C44.882 15.6365 45.2834 15.2199 45.2834 14.6938V9.84468C44.9836 9.77911 44.6824 9.71751 44.3799 9.65993L44.2989 9.6445V7.32586L44.4163 7.34701C44.7065 7.39926 44.9955 7.45499 45.2834 7.51417V1.14214C45.2834 0.616011 44.882 0.199422 44.3987 0.199422H31.6013ZM45.4829 6.77581V1.14214C45.4829 0.516837 45.0028 0 44.3987 0H31.6013C30.9972 0 30.5171 0.516837 30.5171 1.14214V6.77581H8.92964C8.44575 4.68455 6.66306 3.1273 4.52964 3.1273C2.02266 3.1273 0 5.27763 0 7.91796C0 10.5583 2.02266 12.7086 4.52964 12.7086C6.66306 12.7086 8.44575 11.1514 8.92964 9.0601H25.3464C12.1023 14.0102 2.2282 26.5112 0.330796 41.6741C0.247047 42.3434 0.745892 42.9392 1.39596 42.9392C1.95614 42.9392 2.41503 42.4916 2.48748 41.9192C4.50417 25.9858 15.8553 13.1877 30.5171 9.88877V14.6938C30.5171 15.3191 30.9972 15.8359 31.6013 15.8359H44.3987C45.0028 15.8359 45.4829 15.3191 45.4829 14.6938V9.88893C60.1444 13.1881 71.4952 25.9861 73.5118 41.9192C73.5843 42.4916 74.0431 42.9392 74.6033 42.9392C75.2534 42.9392 75.7522 42.3434 75.6685 41.6741C73.7711 26.5112 63.897 14.0102 50.6528 9.0601H67.0704C67.5543 11.1514 69.3369 12.7086 71.4704 12.7086C73.9773 12.7086 76 10.5583 76 7.91796C76 5.27763 73.9773 3.1273 71.4704 3.1273C69.3369 3.1273 67.5543 4.68455 67.0704 6.77581H45.4829ZM45.4829 6.97524V7.55575C47.0615 7.88953 48.6047 8.32683 50.106 8.86068H67.0285C66.9709 8.55577 66.9407 8.24052 66.9407 7.91796C66.9407 7.5954 66.9709 7.28015 67.0285 6.97524H45.4829ZM67.2315 6.97524C67.1717 7.27939 67.1402 7.5947 67.1402 7.91796C67.1402 8.24122 67.1717 8.55653 67.2315 8.86068H67.4329V6.97524H67.2315ZM67.2751 9.0601C67.7544 11.0462 69.4546 12.5092 71.4704 12.5092C73.8565 12.5092 75.8005 10.4591 75.8005 7.91796C75.8005 5.37681 73.8565 3.32672 71.4704 3.32672C69.4546 3.32672 67.7544 4.78969 67.2751 6.77581H67.6324V9.0601H67.2751ZM49.4969 8.86068C48.1884 8.4187 46.8489 8.05016 45.4829 7.75962V8.86068H49.4969ZM45.2834 7.71779C45.0227 7.66388 44.761 7.61281 44.4983 7.56462V9.47956C44.761 9.53023 45.0227 9.58391 45.2834 9.64057V7.71779ZM45.4829 9.68455V9.0601H50.0713C63.4996 13.8497 73.5575 26.4108 75.4706 41.6989C75.5406 42.2586 75.124 42.7397 74.6033 42.7397C74.1557 42.7397 73.7711 42.3794 73.7097 41.8942C71.6812 25.8676 60.2528 12.9876 45.4829 9.68455ZM30.7166 9.64041C30.9771 9.58378 31.2388 9.53012 31.5014 9.47948V9.0601H30.7166V9.64041ZM30.5171 9.0601V9.68439C15.7469 12.9872 4.3181 25.8673 2.28958 41.8942C2.22817 42.3794 1.84354 42.7397 1.39596 42.7397C0.875256 42.7397 0.458686 42.2586 0.528729 41.6989C2.44179 26.4108 12.4997 13.8497 25.928 9.0601H30.5171ZM30.7166 8.86068H31.5014V7.56454C31.2388 7.61271 30.9772 7.66376 30.7166 7.71764V8.86068ZM30.5171 7.75946V8.86068H26.5024C27.8111 8.41862 29.1508 8.05003 30.5171 7.75946ZM30.7166 7.51402C30.9773 7.46044 31.2389 7.40968 31.5015 7.36178V6.97524H30.7166V7.51402ZM30.5171 6.97524V7.5556C28.9383 7.8894 27.3949 8.32675 25.8933 8.86068H8.97152C9.02909 8.55577 9.05928 8.24052 9.05928 7.91796C9.05928 7.5954 9.02909 7.28015 8.97152 6.97524H30.5171ZM8.72487 6.77581C8.24556 4.78969 6.54536 3.32672 4.52964 3.32672C2.14348 3.32672 0.199475 5.37681 0.199475 7.91796C0.199475 10.4591 2.14348 12.5092 4.52964 12.5092C6.54536 12.5092 8.24556 11.0462 8.72487 9.0601H8.36759V6.77581H8.72487ZM8.76852 8.86068C8.82834 8.55653 8.8598 8.24122 8.8598 7.91796C8.8598 7.5947 8.82834 7.27939 8.76852 6.97524H8.56707V8.86068H8.76852ZM32.4859 2.08487H43.5141V13.7511H32.4859V2.08487ZM32.6854 2.28429V13.5516H43.3146V2.28429H32.6854ZM4.52964 5.41159C3.23085 5.41159 2.16832 6.52825 2.16832 7.91796C2.16832 9.30767 3.23085 10.4243 4.52964 10.4243C5.82843 10.4243 6.89096 9.30767 6.89096 7.91796C6.89096 6.52825 5.82843 5.41159 4.52964 5.41159ZM1.96884 7.91796C1.96884 6.42907 3.11002 5.21217 4.52964 5.21217C5.94925 5.21217 7.09043 6.42907 7.09043 7.91796C7.09043 9.40685 5.94925 10.6238 4.52964 10.6238C3.11002 10.6238 1.96884 9.40685 1.96884 7.91796ZM71.4704 5.41159C70.1716 5.41159 69.109 6.52825 69.109 7.91796C69.109 9.30767 70.1716 10.4243 71.4704 10.4243C72.7691 10.4243 73.8317 9.30767 73.8317 7.91796C73.8317 6.52825 72.7691 5.41159 71.4704 5.41159ZM68.9096 7.91796C68.9096 6.42907 70.0508 5.21217 71.4704 5.21217C72.89 5.21217 74.0312 6.42907 74.0312 7.91796C74.0312 9.40685 72.89 10.6238 71.4704 10.6238C70.0508 10.6238 68.9096 9.40685 68.9096 7.91796ZM37.0965 19.2746C37.5253 18.5935 38.4747 18.5935 38.9035 19.2746L55.3909 45.463C55.7206 45.9868 55.8204 46.6348 55.6656 47.2412L50.9967 65.5342L51.8335 66.7157H54.7352C55.3393 66.7157 55.8193 67.2326 55.8193 67.8579C55.8193 68.4832 55.3393 69 54.7352 69H20.2804C19.6763 69 19.1962 68.4832 19.1962 67.8579C19.1962 67.2326 19.6763 66.7157 20.2804 66.7157H24.1665L25.0033 65.5342L20.3344 47.2412C20.1796 46.6348 20.2794 45.9868 20.6091 45.463L37.0965 19.2746ZM38.7347 19.3808C38.3841 18.824 37.6159 18.824 37.2653 19.3808L20.7779 45.5693C20.4778 46.046 20.3862 46.6377 20.5277 47.1919L25.2194 65.5742L24.2697 66.9151H20.2804C19.7971 66.9151 19.3957 67.3317 19.3957 67.8579C19.3957 68.384 19.7971 68.8006 20.2804 68.8006H54.7352C55.2185 68.8006 55.6199 68.384 55.6199 67.8579C55.6199 67.3317 55.2185 66.9151 54.7352 66.9151H51.7303L50.7806 65.5742L55.4723 47.1919C55.6138 46.6377 55.5222 46.046 55.2221 45.5693L38.7347 19.3808ZM37.1153 23.0032V53.2553C37.4013 53.1955 37.6971 53.1641 38 53.1641C38.3029 53.1641 38.5987 53.1955 38.8847 53.2553V23.0033L53.7755 46.6558L49.0846 65.0349C48.9336 65.6266 49.0486 66.2585 49.395 66.7475L49.5137 66.9151H26.4863L26.605 66.7475C26.9514 66.2585 27.0664 65.6266 26.9154 65.0349L22.2441 46.7329L21.4551 46.1759L21.5701 46.013L22.3033 46.5305L37.1153 23.0032ZM22.4389 46.6895L27.1086 64.9856C27.2591 65.5753 27.1686 66.2023 26.8634 66.7157H49.1366C48.8314 66.2023 48.7409 65.5753 48.8914 64.9856L53.5611 46.6895L39.0842 23.6945V53.302C41.0653 53.8163 42.5296 55.7082 42.5296 57.9547C42.5296 60.5951 40.507 62.7454 38 62.7454C35.493 62.7454 33.4704 60.5951 33.4704 57.9547C33.4704 55.7082 34.9347 53.8163 36.9158 53.302V23.6945L22.4389 46.6895ZM36.9158 53.5087C35.0519 54.0186 33.6698 55.8121 33.6698 57.9547C33.6698 60.4959 35.6138 62.546 38 62.546C40.3862 62.546 42.3302 60.4959 42.3302 57.9547C42.3302 55.8121 40.9481 54.0186 39.0842 53.5087V54.9272H36.9158V53.5087ZM38.8847 53.4595C38.599 53.3966 38.3031 53.3635 38 53.3635C37.6969 53.3635 37.401 53.3966 37.1153 53.4595V54.7277H38.8847V53.4595ZM38 55.4484C36.7012 55.4484 35.6387 56.565 35.6387 57.9547C35.6387 59.3445 36.7012 60.4611 38 60.4611C39.2988 60.4611 40.3613 59.3445 40.3613 57.9547C40.3613 56.565 39.2988 55.4484 38 55.4484ZM35.4392 57.9547C35.4392 56.4659 36.5804 55.249 38 55.249C39.4196 55.249 40.5608 56.4659 40.5608 57.9547C40.5608 59.4436 39.4196 60.6605 38 60.6605C36.5804 60.6605 35.4392 59.4436 35.4392 57.9547Z" fill="#F44519"/>
</g>
</svg>
