<svg width="20" height="16" viewBox="0 0 20 16" fill="none" xmlns="http://www.w3.org/2000/svg">
<path fill-rule="evenodd" clip-rule="evenodd" d="M13.7 4.43662C13.7 2.43418 12.0589 0.8 10 0.8C7.9411 0.8 6.3 2.43418 6.3 4.43662C6.3 6.43906 7.9411 8.07324 10 8.07324C12.0589 8.07324 13.7 6.43906 13.7 4.43662ZM14.5 4.43662C14.5 1.98169 12.49 0 10 0C7.51 0 5.5 1.98169 5.5 4.43662C5.5 6.89155 7.51 8.87324 10 8.87324C12.49 8.87324 14.5 6.89155 14.5 4.43662Z" fill="#757575"/>
<path fill-rule="evenodd" clip-rule="evenodd" d="M2.27481 13.5786C1.7124 14.0982 1.40898 14.6542 1.39996 15.2441L0.600052 15.2319C0.613531 14.3504 1.07136 13.6013 1.73192 12.991C2.39102 12.382 3.28052 11.8826 4.23939 11.4872C6.15574 10.6969 8.4462 10.2831 10 10.2831C11.5464 10.2831 13.8368 10.697 15.7549 11.4871C16.7146 11.8825 17.6054 12.3818 18.2657 12.9907C18.9274 13.6009 19.3865 14.35 19.4 15.2319L18.6001 15.2441C18.591 14.6546 18.287 14.0986 17.7234 13.5788C17.1583 13.0577 16.3617 12.6023 15.4501 12.2268C13.6257 11.4752 11.4386 11.0831 10 11.0831C8.55381 11.0831 6.36677 11.4753 4.54437 12.2268C3.63387 12.6022 2.83867 13.0576 2.27481 13.5786Z" fill="#757575"/>
</svg>
