<svg width="17" height="17" viewBox="0 0 17 17" fill="none" xmlns="http://www.w3.org/2000/svg">
<path d="M12.885 11.7158L12.8852 11.7158L15.2871 11.99C15.2874 11.9901 15.2877 11.9901 15.288 11.9901C16.045 12.0805 16.6073 12.7157 16.5999 13.4627H16.5999V13.4666V15.1038C16.5999 15.9576 15.8901 16.6483 15.0658 16.5973C7.19462 16.1082 0.891764 9.81447 0.402711 1.93422C0.351641 1.1098 1.04238 0.4 1.89618 0.4H3.53336C4.29469 0.4 4.92921 0.966271 5.0193 1.72153C5.01933 1.72177 5.01936 1.722 5.01939 1.72224L5.29364 4.10546C5.34601 4.5618 5.18922 5.00859 4.86877 5.32904L3.98867 6.20915L3.7836 6.41422L3.91475 6.67288C5.31617 9.43681 7.57343 11.6841 10.3266 13.085L10.5854 13.2167L10.7908 13.0113L11.6614 12.1407C11.9819 11.8202 12.4287 11.6634 12.885 11.7158Z" stroke="#757575" stroke-width="0.8"/>
</svg>
