<svg width="23" height="16" viewBox="0 0 23 16" fill="none" xmlns="http://www.w3.org/2000/svg">
<path id="Vector (Stroke)" fill-rule="evenodd" clip-rule="evenodd" d="M11.5 9.63147L1.11614 1.62149C1.04677 1.74855 1.0115 1.88003 1.0115 2L1 14C1 13.9999 1 14.0001 1 14C1.00025 14.421 1.45171 15 2.3 15H20.7C21.5485 15 22 14.4211 22 14V2C22 1.87939 21.963 1.74583 21.8902 1.61663L11.5 9.63147ZM21.0152 1.02859C20.9172 1.01009 20.812 1 20.7 1H2.3C2.18796 1 2.08292 1.01015 1.985 1.02876L11.5 8.36853L21.0152 1.02859ZM0 14L0.0115 2C0.0115 0.9 1.035 0 2.3 0H20.7C21.965 0 23 0.9 23 2V14C23 15.1 21.965 16 20.7 16H2.3C1.035 16 0 15.1 0 14Z" fill="#757575"/>
</svg>
