<svg width="150" height="150" viewBox="0 0 150 150" fill="none" xmlns="http://www.w3.org/2000/svg">
<mask id="mask0_644_20" style="mask-type:alpha" maskUnits="userSpaceOnUse" x="0" y="0" width="150" height="150">
<rect width="150" height="150" rx="20" fill="#F7F8FB"/>
</mask>
<g mask="url(#mask0_644_20)">
<rect x="-30" y="-25" width="254" height="199" fill="white"/>
<path d="M57.6484 90.5956L63.8771 94.9187L29.3705 137.557C28.0814 139.15 25.6421 139.473 23.9221 138.28C22.2021 137.086 21.8528 134.827 23.1418 133.234L57.6484 90.5956Z" fill="#F04728"/>
<path d="M45.1911 81.9494L51.4198 86.2725L27.0065 116.439C25.7174 118.032 23.2781 118.355 21.5581 117.162C19.8381 115.968 19.4887 113.709 20.7778 112.116L45.1911 81.9494Z" fill="#F04728"/>
<path d="M70.1058 99.2418L76.3345 103.565L51.9212 133.731C50.6321 135.324 48.1928 135.648 46.4728 134.454C44.7528 133.26 44.4035 131.001 45.6925 129.408L70.1058 99.2418Z" fill="#F04728"/>
<path fill-rule="evenodd" clip-rule="evenodd" d="M36.8007 73.2301L67.7329 73.0716L59.3082 45.5112L36.8007 73.2301Z" fill="#F04728"/>
<path fill-rule="evenodd" clip-rule="evenodd" d="M103.275 86.8167L103.253 86.7395L103.108 86.8948L89.769 43.2495L93.4547 38.7105L103.592 38.6971L109.187 57.0193L114.985 49.881L109.39 31.5589L88.8237 31.6643L81.1417 41.1302L97.3319 94.1295L86.3164 107.708L65.1267 38.3728L81.5053 18.1994L120.405 18L131 52.6578L103.275 86.8167Z" fill="#F04728"/>
</g>
</svg>
