<svg width="194" height="52" viewBox="0 0 194 52" fill="none" xmlns="http://www.w3.org/2000/svg">
<g id="Vector">
<path d="M14.0027 34.9873L16.17 36.5068L4.1633 51.4929C3.71476 52.0527 2.86597 52.1664 2.26749 51.7468C1.66901 51.3272 1.54746 50.5333 1.996 49.9734L14.0027 34.9873Z" fill="#F04728"/>
<path d="M9.66813 31.9484L11.8354 33.4679L3.34072 44.0705C2.89218 44.6303 2.0434 44.744 1.44492 44.3244C0.846435 43.9049 0.724883 43.1109 1.17342 42.551L9.66813 31.9484Z" fill="#F04728"/>
<path d="M18.3373 38.0262L20.5046 39.5456L12.0099 50.1482C11.5614 50.7081 10.7126 50.8218 10.1141 50.4022C9.51563 49.9826 9.39408 49.1886 9.84262 48.6288L18.3373 38.0262Z" fill="#F04728"/>
<path fill-rule="evenodd" clip-rule="evenodd" d="M21.7852 43.8274C29.5295 44.8448 37.6142 41.9917 42.6358 35.7241C49.9812 26.556 47.9906 13.5536 38.1898 6.68241C28.3889 -0.188747 14.489 1.6733 7.14363 10.8414C2.17593 17.0418 1.47833 24.9959 4.57892 31.6212L2.7417 33.9143C-1.45844 26.2439 -0.923298 16.681 4.97399 9.32032C13.2174 -0.968682 28.8167 -3.05838 39.8158 4.65285C50.815 12.3641 53.0489 26.9562 44.8054 37.2452C38.8562 44.6707 29.0756 47.8257 19.958 46.108L21.7852 43.8274Z" fill="#F04728"/>
<path fill-rule="evenodd" clip-rule="evenodd" d="M6.74865 28.8839L17.5117 28.8282L14.5802 19.1415L6.74865 28.8839Z" fill="#F04728"/>
<path fill-rule="evenodd" clip-rule="evenodd" d="M29.8786 33.6592L29.8712 33.632L29.8207 33.6866L25.1792 18.3466L26.4617 16.7513L29.989 16.7466L31.9359 23.1863L33.9532 20.6774L32.0063 14.2377L24.8503 14.2748L22.1773 17.6018L27.8108 36.2294L23.9779 41.0017L16.6048 16.6326L22.3038 9.54228L35.8393 9.47219L39.5258 21.6533L29.8786 33.6592Z" fill="#F04728"/>
<path fill-rule="evenodd" clip-rule="evenodd" d="M43.3392 46.0909C46.2038 44.3842 48.7879 42.0485 50.8912 39.1139C59.1039 27.6557 56.8783 11.4055 45.9202 2.81795C44.4841 1.6925 42.9693 0.754526 41.4025 0H194V46.0909H43.3392Z" fill="#EF4926"/>
<path d="M70.4326 22.5102H77.6711V32.0465C76.7143 32.3652 75.7201 32.621 74.6884 32.8139C73.6567 32.9985 72.4877 33.0907 71.1814 33.0907C69.3677 33.0907 67.8285 32.7301 66.5638 32.0088C65.2991 31.2875 64.3382 30.2223 63.6809 28.8132C63.0236 27.4042 62.695 25.6722 62.695 23.6173C62.695 21.6882 63.061 20.0192 63.7932 18.6101C64.5337 17.2011 65.6111 16.1107 67.0256 15.3391C68.4483 14.5675 70.183 14.1816 72.2298 14.1816C73.1949 14.1816 74.1476 14.2865 75.0877 14.4962C76.0279 14.7058 76.8807 14.9784 77.6461 15.3139L76.3607 18.434C75.8033 18.1488 75.1668 17.9098 74.4512 17.7169C73.7357 17.524 72.9869 17.4275 72.2048 17.4275C71.0816 17.4275 70.104 17.6875 69.272 18.2075C68.4483 18.7275 67.8077 19.4572 67.3501 20.3966C66.9008 21.3276 66.6761 22.4263 66.6761 23.6928C66.6761 24.8922 66.8384 25.9574 67.1628 26.8883C67.4873 27.8109 67.999 28.5364 68.6979 29.0648C69.3968 29.5849 70.3078 29.8449 71.4311 29.8449C71.9802 29.8449 72.4419 29.8197 72.8163 29.7694C73.1991 29.7107 73.5568 29.652 73.8896 29.5932V25.7561H70.4326V22.5102Z" fill="white"/>
<path d="M94.4743 32.8391L93.1515 28.461H86.4995L85.1767 32.8391H81.0083L87.448 14.3704H92.178L98.6427 32.8391H94.4743ZM92.2279 25.1899L90.905 20.9124C90.8218 20.6273 90.7095 20.2624 90.5681 19.8179C90.435 19.365 90.2977 18.9079 90.1562 18.4466C90.0231 17.9769 89.915 17.5701 89.8317 17.2262C89.7486 17.5701 89.6321 17.9978 89.4823 18.5095C89.3409 19.0127 89.2036 19.4908 89.0705 19.9437C88.9373 20.3966 88.8417 20.7195 88.7834 20.9124L87.473 25.1899H92.2279Z" fill="white"/>
<path d="M109.268 32.8391H105.399V17.6917H100.445V14.4458H114.223V17.6917H109.268V32.8391Z" fill="white"/>
<path d="M125.348 32.8391H121.479V17.6917H116.524V14.4458H130.302V17.6917H125.348V32.8391Z" fill="white"/>
<path d="M145.558 32.8391L144.235 28.461H137.583L136.26 32.8391H132.092L138.532 14.3704H143.262L149.726 32.8391H145.558ZM143.312 25.1899L141.989 20.9124C141.906 20.6273 141.793 20.2624 141.652 19.8179C141.519 19.365 141.381 18.9079 141.24 18.4466C141.107 17.9769 140.999 17.5701 140.915 17.2262C140.832 17.5701 140.716 17.9978 140.566 18.5095C140.425 19.0127 140.287 19.4908 140.154 19.9437C140.021 20.3966 139.925 20.7195 139.867 20.9124L138.557 25.1899H143.312Z" fill="white"/>
<path d="M167.99 32.8391H163.597L158.817 25.0893L157.182 26.2719V32.8391H153.313V14.4458H157.182V22.8625C157.44 22.5018 157.694 22.1412 157.943 21.7805C158.193 21.4199 158.447 21.0592 158.705 20.6985L163.647 14.4458H167.94L161.575 22.5857L167.99 32.8391Z" fill="white"/>
<path d="M182.734 32.8391L181.411 28.461H174.759L173.436 32.8391H169.268L175.708 14.3704H180.438L186.902 32.8391H182.734ZM180.487 25.1899L179.165 20.9124C179.081 20.6273 178.969 20.2624 178.828 19.8179C178.694 19.365 178.557 18.9079 178.416 18.4466C178.283 17.9769 178.174 17.5701 178.091 17.2262C178.008 17.5701 177.892 17.9978 177.742 18.5095C177.6 19.0127 177.463 19.4908 177.33 19.9437C177.197 20.3966 177.101 20.7195 177.043 20.9124L175.732 25.1899H180.487Z" fill="white"/>
</g>
</svg>
