<svg width="194" height="52" viewBox="0 0 194 52" fill="none" xmlns="http://www.w3.org/2000/svg">
<path fill-rule="evenodd" clip-rule="evenodd" d="M43.2985 46.0909C46.1605 44.3842 48.7421 42.0485 50.8435 39.1139C59.0485 27.6557 56.825 11.4055 45.8772 2.81795C44.4424 1.6925 42.929 0.754526 41.3637 0H193.818V46.0909H43.2985Z" fill="#EF4926"/>
<path d="M13.9896 34.9873L16.1549 36.5068L4.1594 51.4929C3.71128 52.0527 2.86329 52.1664 2.26537 51.7468C1.66744 51.3272 1.54601 50.5333 1.99413 49.9734L13.9896 34.9873Z" fill="#F04728"/>
<path d="M9.65908 31.9484L11.8243 33.4679L3.33759 44.0705C2.88947 44.6303 2.04149 44.744 1.44356 44.3244C0.845642 43.9049 0.724204 43.1109 1.17232 42.551L9.65908 31.9484Z" fill="#F04728"/>
<path d="M18.3202 38.0262L20.4854 39.5456L11.9987 50.1482C11.5506 50.7081 10.7026 50.8218 10.1046 50.4022C9.50672 49.9826 9.38528 49.1886 9.8334 48.6288L18.3202 38.0262Z" fill="#F04728"/>
<path fill-rule="evenodd" clip-rule="evenodd" d="M21.7648 43.8274C29.5018 44.8448 37.579 41.9917 42.5959 35.7241C49.9344 26.556 47.9457 13.5536 38.154 6.68241C28.3623 -0.188747 14.4755 1.6733 7.13694 10.8414C2.17389 17.0418 1.47695 24.9959 4.57463 31.6212L2.73913 33.9143C-1.45707 26.2439 -0.922432 16.681 4.96933 9.32032C13.2051 -0.968682 28.7897 -3.05838 39.7785 4.65285C50.7674 12.3641 52.9992 26.9562 44.7635 37.2452C38.8198 44.6707 29.0484 47.8257 19.9393 46.108L21.7648 43.8274Z" fill="#F04728"/>
<path fill-rule="evenodd" clip-rule="evenodd" d="M6.74233 28.8839L17.4953 28.8282L14.5666 19.1415L6.74233 28.8839Z" fill="#F04728"/>
<path fill-rule="evenodd" clip-rule="evenodd" d="M29.8506 33.6592L29.8432 33.632L29.7927 33.6866L25.1556 18.3466L26.4369 16.7513L29.9609 16.7466L31.906 23.1863L33.9214 20.6774L31.9763 14.2377L24.827 14.2748L22.1566 17.6018L27.7847 36.2294L23.9554 41.0017L16.5893 16.6326L22.2829 9.54228L35.8057 9.47219L39.4887 21.6533L29.8506 33.6592Z" fill="#F04728"/>
<path d="M70.3667 22.5102H77.5984V32.0465C76.6425 32.3652 75.6492 32.621 74.6184 32.8139C73.5877 32.9985 72.4198 33.0907 71.1148 33.0907C69.3027 33.0907 67.765 32.7301 66.5015 32.0088C65.238 31.2874 64.278 30.2223 63.6213 28.8132C62.9646 27.4041 62.6363 25.6722 62.6363 23.6173C62.6363 21.6882 63.002 20.0192 63.7335 18.6101C64.4733 17.201 65.5497 16.1107 66.9628 15.3391C68.3842 14.5674 70.1173 14.1816 72.1622 14.1816C73.1264 14.1816 74.0781 14.2865 75.0174 14.4961C75.9567 14.7058 76.8087 14.9784 77.5735 15.3139L76.2892 18.434C75.7323 18.1488 75.0964 17.9098 74.3815 17.7169C73.6667 17.5239 72.9186 17.4275 72.1372 17.4275C71.0151 17.4275 70.0384 17.6875 69.2071 18.2075C68.3842 18.7275 67.7442 19.4572 67.287 20.3966C66.8381 21.3276 66.6137 22.4263 66.6137 23.6928C66.6137 24.8922 66.7758 25.9573 67.1 26.8883C67.4242 27.8109 67.9354 28.5364 68.6336 29.0648C69.3318 29.5848 70.242 29.8448 71.3642 29.8448C71.9128 29.8448 72.3741 29.8197 72.7482 29.7694C73.1305 29.7106 73.488 29.6519 73.8205 29.5932V25.7561H70.3667V22.5102Z" fill="white"/>
<path d="M94.3859 32.8391L93.0642 28.4609H86.4186L85.0969 32.8391H80.9325L87.3662 14.3703H92.0917L98.5504 32.8391H94.3859ZM92.1416 25.1899L90.8199 20.9124C90.7368 20.6272 90.6246 20.2624 90.4833 19.8179C90.3503 19.365 90.2131 18.9078 90.0718 18.4465C89.9388 17.9769 89.8308 17.5701 89.7476 17.2262C89.6645 17.5701 89.5481 17.9978 89.3985 18.5095C89.2572 19.0127 89.1201 19.4908 88.9871 19.9437C88.8541 20.3966 88.7585 20.7195 88.7003 20.9124L87.3911 25.1899H92.1416Z" fill="white"/>
<path d="M109.166 32.8391H105.301V17.6917H100.351V14.4458H114.116V17.6917H109.166V32.8391Z" fill="white"/>
<path d="M125.23 32.8391H121.365V17.6917H116.415V14.4458H130.18V17.6917H125.23V32.8391Z" fill="white"/>
<path d="M145.422 32.8391L144.1 28.4609H137.454L136.133 32.8391H131.968L138.402 14.3703H143.128L149.586 32.8391H145.422ZM143.177 25.1899L141.856 20.9124C141.773 20.6272 141.66 20.2624 141.519 19.8179C141.386 19.365 141.249 18.9078 141.108 18.4465C140.975 17.9769 140.867 17.5701 140.783 17.2262C140.7 17.5701 140.584 17.9978 140.434 18.5095C140.293 19.0127 140.156 19.4908 140.023 19.9437C139.89 20.3966 139.794 20.7195 139.736 20.9124L138.427 25.1899H143.177Z" fill="white"/>
<path d="M167.833 32.8391H163.444L158.668 25.0893L157.035 26.2719V32.8391H153.17V14.4458H157.035V22.8624C157.293 22.5018 157.546 22.1411 157.795 21.7805C158.045 21.4198 158.298 21.0592 158.556 20.6985L163.493 14.4458H167.783L161.424 22.5857L167.833 32.8391Z" fill="white"/>
<path d="M182.563 32.8391L181.241 28.4609H174.595L173.274 32.8391H169.109L175.543 14.3703H180.269L186.727 32.8391H182.563ZM180.318 25.1899L178.997 20.9124C178.914 20.6272 178.801 20.2624 178.66 19.8179C178.527 19.365 178.39 18.9078 178.249 18.4465C178.116 17.9769 178.008 17.5701 177.924 17.2262C177.841 17.5701 177.725 17.9978 177.575 18.5095C177.434 19.0127 177.297 19.4908 177.164 19.9437C177.031 20.3966 176.935 20.7195 176.877 20.9124L175.568 25.1899H180.318Z" fill="white"/>
</svg>
