<svg width="15" height="19" viewBox="0 0 15 19" fill="none" xmlns="http://www.w3.org/2000/svg">
<path id="Vector" d="M7.5 0C5.51088 0 3.60322 0.765386 2.1967 2.12778C0.790176 3.49018 0 5.33799 0 7.26471C0 13.5235 7.5 19 7.5 19C7.5 19 15 13.5235 15 7.26471C15 5.33799 14.2098 3.49018 12.8033 2.12778C11.3968 0.765386 9.48912 0 7.5 0ZM7.5 10.0588C6.92948 10.0588 6.37177 9.89495 5.89739 9.58793C5.42302 9.28091 5.05329 8.84453 4.83496 8.33397C4.61663 7.82341 4.55951 7.26161 4.67081 6.7196C4.78211 6.17759 5.05685 5.67973 5.46027 5.28897C5.86369 4.8982 6.37768 4.63209 6.93724 4.52428C7.4968 4.41646 8.0768 4.4718 8.60389 4.68328C9.13099 4.89476 9.5815 5.25289 9.89847 5.71238C10.2154 6.17187 10.3846 6.71208 10.3846 7.26471C10.3846 8.00575 10.0807 8.71645 9.53973 9.24045C8.99876 9.76444 8.26505 10.0588 7.5 10.0588Z" fill="#EF4926"/>
</svg>
