<svg width="23" height="16" viewBox="0 0 23 16" fill="none" xmlns="http://www.w3.org/2000/svg">
<g id="Vector">
<path fill-rule="evenodd" clip-rule="evenodd" d="M8.62542 15.9898L8.63558 15.7417C8.67984 14.6609 9.18562 13.3934 10.2183 12.9105C10.6183 12.7235 10.829 12.6523 11.7395 12.3966C12.4483 12.1975 12.6877 12.1182 12.9375 12C13.1803 11.8851 13.3543 11.7586 13.4779 11.6047C13.4779 11.6047 10.9769 11.0873 10.8177 10.7953L10.7554 10.6811L10.7558 9.33987L10.8406 9.28663C11.0201 9.17405 11.3983 8.76768 11.6383 8.4294C11.849 8.13262 12.0469 7.70992 12.0867 7.47189C12.0936 7.43075 12.0996 7.40709 12.1123 7.39223C12.0781 7.28672 12.0467 7.17995 12.029 7.10367C11.993 6.94941 11.9862 6.86762 11.9866 6.59581C11.9878 5.64103 12.3234 4.83819 12.9347 4.30349C12.9409 4.21136 12.9429 4.09779 12.9431 3.93142C12.9434 3.68924 12.9293 3.39644 12.9117 3.27846C12.7052 1.8948 12.0138 1.07801 10.9752 0.990786L10.7953 0.975678L10.7223 0.870213C10.6358 0.745272 10.3444 0.480056 10.1791 0.375785C9.99636 0.260458 9.68607 0.134391 9.42091 0.0676758C9.19496 0.0108454 9.14148 0.00643228 8.61999 0.00141122C8.31265 -0.00153838 8.02292 0.00028541 7.97615 0.0054866C7.21979 0.0896514 6.48787 0.321026 5.98092 0.636227C4.91753 1.29741 4.32381 2.46871 4.32201 3.9089C4.32157 4.25837 4.33034 4.36352 4.37653 4.56187C4.43239 4.80184 4.59296 5.27648 4.65598 5.38796C4.68924 5.44679 4.68672 5.45256 4.58895 5.54059C4.37945 5.72928 4.30646 6.00206 4.36924 6.36173C4.44701 6.80746 4.61828 7.12288 4.85941 7.2646C4.92134 7.30101 5.00713 7.3369 5.05001 7.34435C5.11948 7.35642 5.12971 7.36815 5.14358 7.45157C5.18325 7.69017 5.38042 8.11388 5.59024 8.41136C5.82938 8.75045 6.20609 9.15779 6.38493 9.27064L6.46946 9.324L6.4698 10.6684L6.40775 10.7829C6.24914 11.0756 5.99156 11.2959 5.58044 11.4905C5.2593 11.6425 4.95147 11.7444 4.0402 12.0004C2.8695 12.3292 2.59862 12.4207 2.08438 12.6612C0.756601 13.282 0.0705069 14.2783 0.0136057 15.6679L0 16H4.58334C6.32979 16 7.85208 15.9959 8.62542 15.9898ZM12.5385 15.9999C12.5766 16 12.6135 16 12.6491 16H17.25L17.2498 15.9945C17.0854 15.9934 16.9207 15.9922 16.7616 15.9911C16.3546 15.9882 15.9848 15.9856 15.7546 15.985C15.7546 15.9928 14.3404 15.9992 12.5385 15.9999Z" fill="#787794"/>
<path d="M16.7129 15.985C17.2796 15.9866 18.692 16 19.4215 16H23L22.9894 15.7423C22.9449 14.6641 22.4093 13.8911 21.3726 13.4093C20.9711 13.2227 20.7596 13.1517 19.8456 12.8966C19.1341 12.698 18.8938 12.6189 18.643 12.5009C18.322 12.3499 18.1209 12.179 17.9971 11.9519L17.9487 11.8631L17.9489 10.8199L18.0149 10.7785C18.1546 10.6909 18.4487 10.3749 18.6354 10.1118C18.7992 9.88093 18.9531 9.55216 18.9841 9.36703C18.9949 9.30229 19.0029 9.2932 19.0572 9.28383C19.0906 9.27804 19.1576 9.25019 19.206 9.22194C19.3942 9.11198 19.528 8.86723 19.5887 8.52139C19.6377 8.2423 19.5807 8.03064 19.4171 7.88424C19.3408 7.81593 19.3388 7.81145 19.3648 7.7658C19.3853 7.72972 19.4465 7.64462 19.4821 7.54416C19.5336 7.40874 19.5753 7.27216 19.6084 7.13108C19.6429 6.98405 19.6498 6.89819 19.6502 6.61333C19.6504 6.42496 19.6395 6.19723 19.6258 6.10547C19.4651 5.02929 18.9274 4.39401 18.1196 4.32617L17.9797 4.31442L17.9229 4.23239C17.8556 4.13521 17.629 3.92893 17.5004 3.84783C17.3583 3.75813 17.1169 3.66008 16.9107 3.60819C16.735 3.56399 16.6934 3.56056 16.2878 3.55665C16.0487 3.55436 15.8234 3.55578 15.787 3.55982C15.1987 3.62528 14.6295 3.80524 14.2352 4.0504C13.4081 4.56465 12.9463 5.47567 12.9449 6.59582C12.9446 6.86763 12.9514 6.94941 12.9873 7.10368C13.0307 7.29032 13.1556 7.65949 13.2047 7.74619C13.2305 7.79195 13.2286 7.79643 13.1525 7.86491C12.9896 8.01166 12.9328 8.22382 12.9816 8.50357C13.0421 8.85024 13.1753 9.09558 13.3629 9.2058C13.411 9.23412 13.4778 9.26203 13.5111 9.26783C13.5651 9.27722 13.5731 9.28634 13.5839 9.35122C13.6148 9.5368 13.7681 9.86635 13.9313 10.0977C14.1173 10.3615 14.4103 10.6783 14.5494 10.7661L14.6151 10.8076L14.6154 11.8532L14.5671 11.9423C14.4438 12.1699 14.2434 12.3412 13.9237 12.4926C13.6739 12.6108 13.4345 12.6901 12.7257 12.8892C11.8152 13.1449 11.6045 13.2161 11.2045 13.4031C10.1718 13.886 9.63817 14.6609 9.59391 15.7417L9.58333 16H13.1482C15.1129 16 16.7129 15.9933 16.7129 15.985Z" fill="#787794"/>
</g>
</svg>
