<svg width="19" height="18" viewBox="0 0 19 18" fill="none" xmlns="http://www.w3.org/2000/svg">
<g id="Vector">
<path d="M16.8889 2.05714H2.11111C0.939444 2.05714 0 2.95714 0 4.05714V16C0 17.1 0.939444 18 2.11111 18H16.8889C18.05 18 19 17.1 19 16V4.05714C19 2.95714 18.0606 2.05714 16.8889 2.05714ZM16.8889 16H2.11111V4H16.8889V16ZM13.7222 9H5.27778C4.69722 9 4.22222 8.55 4.22222 8C4.22222 7.45 4.69722 7 5.27778 7H13.7222C14.3028 7 14.7778 7.45 14.7778 8C14.7778 8.55 14.3028 9 13.7222 9ZM9.5 13H5.27778C4.69722 13 4.22222 12.55 4.22222 12C4.22222 11.45 4.69722 11 5.27778 11H9.5C10.0806 11 10.5556 11.45 10.5556 12C10.5556 12.55 10.0806 13 9.5 13Z" fill="#787794"/>
<path fill-rule="evenodd" clip-rule="evenodd" d="M0 4.11429L19 4.11429V1.08459C18.6415 1.24315 17.6084 1.22447 17.281 1.02857L15.8514 0.173233C15.4895 -0.0433083 14.9286 -0.0433083 14.5667 0.173233L13.1371 1.02857C12.7752 1.24511 12.2143 1.24511 11.8524 1.02857L10.4048 0.162406C10.0429 -0.0541354 9.48191 -0.0541354 9.12 0.162406L7.69048 1.02857C7.32857 1.24511 6.76762 1.24511 6.40571 1.02857L4.97619 0.162406C4.61429 -0.0541354 4.05333 -0.0541354 3.69143 0.162406L2.2619 1.02857C1.9 1.24511 0.542857 1.54286 0 1.02857V4.11429Z" fill="#787794"/>
</g>
</svg>
