<svg width="18" height="18" viewBox="0 0 18 18" fill="none" xmlns="http://www.w3.org/2000/svg">
<g id="Vector">
<path fill-rule="evenodd" clip-rule="evenodd" d="M6.93807 0.00745059C6.91596 0.0127976 6.85718 0.0272104 6.80745 0.0394925C6.66889 0.0737053 6.45228 0.193752 6.33409 0.301777C6.26291 0.366866 6.14288 0.530292 5.97159 0.795431C5.46196 1.58418 5.46681 1.57742 5.34987 1.6612C5.15243 1.80262 5.08127 1.81181 4.35259 1.79002C4.00431 1.7796 3.66097 1.77812 3.5896 1.7867C3.1288 1.8422 2.73875 2.20658 2.63962 2.6742C2.62261 2.75441 2.58496 3.086 2.55594 3.41108C2.52694 3.73619 2.49131 4.04165 2.4768 4.08989C2.44083 4.20946 2.33764 4.36538 2.24691 4.43727C2.20561 4.46999 1.90757 4.62765 1.5846 4.78762C1.26162 4.94759 0.950277 5.11403 0.892703 5.15751C0.563617 5.40604 0.392544 5.87553 0.479497 6.29157C0.491736 6.35015 0.615786 6.67399 0.755129 7.01119L1.00851 7.62429L1.0092 7.81525C1.01008 8.0714 0.989383 8.11157 0.537433 8.72987C0.335412 9.00627 0.144101 9.28753 0.11229 9.35491C-0.0466864 9.69167 -0.0367189 10.0502 0.141308 10.3987C0.222916 10.5585 0.312121 10.647 0.833904 11.0857C1.33316 11.5054 1.42471 11.6016 1.48629 11.7712C1.53852 11.915 1.52981 12.0874 1.44123 12.6644C1.39666 12.9548 1.35472 13.2611 1.34807 13.345C1.32623 13.6204 1.42781 13.9302 1.61482 14.1585C1.70929 14.2739 1.91175 14.4201 2.05031 14.473C2.10807 14.4951 2.43671 14.5748 2.78065 14.6501C3.40664 14.7871 3.51249 14.8215 3.65541 14.9339C3.78293 15.0343 3.84372 15.1625 4.05372 15.774C4.16545 16.0994 4.28924 16.4272 4.32881 16.5025C4.46476 16.7613 4.78587 17.0031 5.07261 17.0627C5.31541 17.1131 5.51741 17.0826 6.15434 16.8996C6.6755 16.7499 6.75522 16.7321 6.90841 16.7312C7.18072 16.7298 7.24473 16.7706 7.81074 17.3058C8.06965 17.5506 8.33578 17.786 8.40211 17.8288C8.72869 18.04 9.15232 18.0569 9.51607 17.8733C9.63868 17.8115 9.74339 17.723 10.1591 17.3301C10.7535 16.7683 10.8131 16.7298 11.0873 16.7312C11.2406 16.732 11.3198 16.7496 11.8414 16.8996C12.3518 17.0463 12.4491 17.0683 12.6251 17.0766C12.8637 17.0878 13.0185 17.0544 13.2212 16.9481C13.3877 16.8608 13.5918 16.6541 13.6757 16.4877C13.7094 16.421 13.8287 16.1 13.9409 15.7744C14.1597 15.1389 14.2197 15.0177 14.3687 14.9094C14.5021 14.8124 14.5572 14.7955 15.1871 14.6583C15.513 14.5873 15.8356 14.5107 15.9039 14.4879C16.0544 14.4378 16.2771 14.2853 16.3754 14.1651C16.5398 13.9641 16.6543 13.666 16.6543 13.4392C16.6543 13.3849 16.6127 13.063 16.5618 12.7237C16.4544 12.0073 16.4519 11.8743 16.5417 11.6948C16.5721 11.634 16.6167 11.5628 16.6407 11.5366C16.6648 11.5103 16.9023 11.3053 17.1687 11.081C17.435 10.8567 17.6865 10.634 17.7276 10.586C17.8797 10.4086 18 10.0814 18 9.84551C18 9.7098 17.9483 9.49236 17.8834 9.35479C17.8516 9.28747 17.6603 9.00627 17.4583 8.72987C17.0064 8.11157 16.9857 8.0714 16.9865 7.81525L16.9872 7.62429L17.2406 7.01119C17.38 6.67399 17.504 6.35015 17.5162 6.29157C17.6067 5.85879 17.4252 5.38644 17.072 5.13547C17.0026 5.0861 16.6945 4.92314 16.3875 4.77335C16.0805 4.62355 15.7943 4.47327 15.7515 4.43938C15.6584 4.36561 15.5553 4.21066 15.5189 4.08989C15.5044 4.04165 15.4688 3.73619 15.4398 3.41108C15.4108 3.086 15.3731 2.75441 15.3561 2.6742C15.269 2.26315 14.9615 1.93302 14.5543 1.81317C14.4206 1.77383 14.2464 1.771 13.4569 1.79538C12.9385 1.8114 12.8468 1.79709 12.6614 1.67132C12.532 1.58351 12.5361 1.58906 12.1153 0.936684C11.7354 0.347669 11.6458 0.24483 11.4114 0.128381C11.2151 0.0308689 11.1032 0.00558109 10.8768 0.00755104C10.5983 0.00996322 10.515 0.0431912 9.86481 0.411391C9.56241 0.582636 9.27756 0.736534 9.2318 0.753379C9.12724 0.791873 8.89259 0.795893 8.78686 0.760977C8.74265 0.746383 8.45328 0.591662 8.1438 0.41718C7.83433 0.242679 7.52281 0.0802986 7.45151 0.0563174C7.32631 0.0142047 7.02771 -0.0142189 6.93807 0.00745059ZM9.87016 3.21083C10.4811 3.30541 11.0427 3.48472 11.6093 3.76608C12.7406 4.32788 13.6652 5.25301 14.2309 6.38907C14.5131 6.95575 14.6905 7.51208 14.7889 8.13903C14.8282 8.38953 14.8343 8.50522 14.8343 9.00124C14.8343 9.49727 14.8282 9.61295 14.7889 9.86346C14.6302 10.8748 14.2302 11.8017 13.5996 12.6195C13.4101 12.8653 12.8608 13.4148 12.6151 13.6044C11.7965 14.2359 10.873 14.6347 9.85983 14.794C9.60859 14.8336 9.49535 14.8395 8.99787 14.8392C8.50456 14.8389 8.38503 14.8326 8.13591 14.7937C7.12723 14.6362 6.19847 14.2353 5.38066 13.6044C5.13495 13.4148 4.58559 12.8653 4.39609 12.6195C3.90399 11.9813 3.53361 11.2382 3.34168 10.5041C3.20352 9.9757 3.15004 9.55635 3.15004 9.00124C3.15004 8.05701 3.34234 7.23918 3.76425 6.38907C4.32588 5.25745 5.25074 4.3325 6.38646 3.76664C6.96204 3.47985 7.54092 3.29673 8.13689 3.2129C8.54925 3.15489 8.53691 3.15555 9.0883 3.16184C9.4804 3.16631 9.65204 3.17706 9.87016 3.21083Z" fill="#787794"/>
<path d="M11.2617 7.14067L8.03817 10.8041L6.74264 9.33177C6.57252 9.13843 6.29771 9.13843 6.12759 9.33177C5.95747 9.5251 5.95747 9.83741 6.12759 10.0307L7.73282 11.855C7.90294 12.0483 8.17775 12.0483 8.34787 11.855L11.8724 7.8446C12.0425 7.65126 12.0425 7.33896 11.8724 7.14563C11.7067 6.95229 11.4275 6.95229 11.2617 7.14067Z" fill="#787794"/>
<path fill-rule="evenodd" clip-rule="evenodd" d="M5.75222 10.361C5.41593 9.97886 5.41593 9.38365 5.75222 9.00147C6.12144 8.58187 6.74879 8.58187 7.11801 9.00147L8.03817 10.0472L10.8864 6.81037C11.2516 6.39524 11.8854 6.39541 12.2499 6.81772C12.584 7.19991 12.5834 7.79327 12.248 8.17466L8.72344 12.1851C8.35423 12.6047 7.72668 12.6049 7.35746 12.1853L5.75222 10.361ZM11.8724 7.8446L8.34787 11.855C8.17775 12.0483 7.90294 12.0483 7.73282 11.855L6.12759 10.0307C5.95747 9.83741 5.95747 9.5251 6.12759 9.33177C6.29771 9.13843 6.57252 9.13843 6.74264 9.33177L8.03817 10.8041L11.2617 7.14067C11.4275 6.95229 11.7067 6.95229 11.8724 7.14563C12.0425 7.33896 12.0425 7.65126 11.8724 7.8446Z" fill="#787794"/>
</g>
</svg>
