<svg width="42" height="42" viewBox="0 0 42 42" fill="none" xmlns="http://www.w3.org/2000/svg">
<path fill-rule="evenodd" clip-rule="evenodd" d="M24.6085 16.2533C24.7332 16.1302 24.8319 15.9842 24.8991 15.8236C24.9662 15.6631 25.0005 15.4911 25 15.3176C24.9995 15.144 24.9641 14.9723 24.8959 14.8121C24.8277 14.652 24.7281 14.5066 24.6027 14.3842C24.4773 14.2619 24.3285 14.165 24.165 14.0991C24.0014 14.0331 23.8262 13.9995 23.6494 14C23.4725 14.0005 23.2976 14.0352 23.1344 14.1022C22.9712 14.1691 22.8231 14.2669 22.6985 14.39L16.3911 20.6186C16.2664 20.7418 16.1677 20.8879 16.1006 21.0485C16.0335 21.2091 15.9993 21.3812 16 21.5548C16.0007 21.7284 16.0362 21.9002 16.1045 22.0603C16.1729 22.2205 16.2727 22.3658 16.3983 22.4881L22.7047 28.6321C22.9596 28.8721 23.3002 29.0041 23.6533 28.9999C24.0064 28.9957 24.3437 28.8554 24.5925 28.6094C24.8412 28.3634 24.9815 28.0313 24.9832 27.6847C24.9849 27.3381 24.8477 27.0048 24.6013 26.7565L19.2517 21.5436L24.6085 16.2533Z" fill="white"/>
<path fill-rule="evenodd" clip-rule="evenodd" d="M21 40C31.4934 40 40 31.4934 40 21C40 10.5066 31.4934 2 21 2C10.5066 2 2 10.5066 2 21C2 31.4934 10.5066 40 21 40ZM21 42C32.598 42 42 32.598 42 21C42 9.40202 32.598 0 21 0C9.40202 0 0 9.40202 0 21C0 32.598 9.40202 42 21 42Z" fill="white"/>
</svg>
