<svg width="38" height="47" viewBox="0 0 38 47" fill="none" xmlns="http://www.w3.org/2000/svg">
<path id="Vector" d="M25.8322 24.2308C32.5334 24.2308 38 18.7875 38 12.1158C38 5.44331 32.5334 0 25.8322 0H9.6109C9.082 0 8.72914 0.351306 8.72914 0.877878V22.3874H0.881755C0.352857 22.3874 0 22.738 0 23.2653C0 23.7927 0.352857 24.1432 0.881755 24.1432H8.72837V29.8502H0.881755C0.352857 29.8494 0 30.2007 0 30.728C0 31.2546 0.352857 31.6059 0.881755 31.6059H8.72837V45.6527C8.72837 46.1801 9.08122 46.5306 9.61012 46.5306C10.139 46.5306 10.4919 46.1793 10.4919 45.6527V31.6059H27.1553C27.6842 31.6059 28.037 31.2546 28.037 30.728C28.037 30.2007 27.6842 29.8502 27.1553 29.8502H10.4927V24.1432L25.8338 24.2308H25.8322ZM10.4927 1.84339H25.8338C31.5648 1.84339 36.2373 6.49645 36.2373 12.2034C36.2373 17.9096 31.5648 22.5627 25.8338 22.5627H10.4919L10.4927 1.84339Z" fill="#EF4926"/>
</svg>
