<svg width="62" height="63" viewBox="0 0 62 63" fill="none" xmlns="http://www.w3.org/2000/svg">
<path id="image 3794 (Traced)" fill-rule="evenodd" clip-rule="evenodd" d="M29.83 0.0292998C27.1084 0.291266 24.5761 1.32564 22.5151 3.01714C21.9568 3.47534 21.011 4.43084 20.562 4.99024C19.5096 6.30131 18.6351 7.97959 18.1734 9.57395C18.0106 10.1361 17.841 10.9396 17.7742 11.4649C17.7464 11.6839 17.7136 11.9273 17.7012 12.0058L17.6789 12.1484L11.7011 12.1606L5.72342 12.1727L5.41164 12.2766C4.2421 12.6664 3.39837 13.5431 3.11568 14.6623C3.0449 14.9425 2.75744 18.9879 1.51472 37.1916C0.681643 49.3948 0 59.5431 0 59.7433C0 60.6842 0.456315 61.6468 1.18571 62.2443C1.52466 62.522 2.06667 62.8019 2.49425 62.92C2.77214 62.9968 3.91803 63 31 63C58.082 63 59.2279 62.9968 59.5057 62.92C59.9089 62.8086 60.4564 62.5297 60.7869 62.2673C61.5189 61.6861 62 60.6914 62 59.7592C62 59.5538 61.3184 49.3998 60.4852 37.1948C59.2216 18.6826 58.9558 14.9456 58.8818 14.6526C58.6011 13.5409 57.7565 12.6659 56.5884 12.2766L56.2766 12.1727L50.2989 12.1606L44.3211 12.1484L44.2988 12.0058C44.2864 11.9273 44.2536 11.6839 44.2258 11.4649C44.057 10.1367 43.6272 8.73067 43.0055 7.47282C42.2692 5.98326 41.4761 4.90022 40.2588 3.72217C38.2382 1.76663 35.7364 0.542527 32.893 0.11817C32.19 0.0132423 30.5048 -0.0356387 29.83 0.0292998ZM32.5589 2.30994C35.9771 2.82462 38.8465 4.73257 40.5813 7.64415C41.3762 8.97817 41.8184 10.2751 42.0613 11.9847L42.0849 12.1506H31H19.9151L19.9387 11.9847C20.1816 10.2751 20.6238 8.97817 21.4187 7.64415C22.1797 6.367 23.1469 5.2968 24.3482 4.40301C26.0567 3.13175 27.956 2.42442 30.1983 2.2243C30.6093 2.18758 32.1075 2.24195 32.5589 2.30994ZM56.1472 14.4815C56.3606 14.5949 56.5958 14.8471 56.6843 15.0575C56.7295 15.1649 57.1668 21.351 58.2599 37.3476C59.0921 49.5254 59.7725 59.5923 59.772 59.7184C59.7703 60.121 59.5395 60.4956 59.1717 60.6927L58.9935 60.7882H31H3.00647L2.8283 60.6927C2.45924 60.4949 2.22968 60.1212 2.22799 59.7152C2.22746 59.5874 2.84835 50.3903 3.60776 39.2773C4.36717 28.1643 4.98851 19.0076 4.98851 18.9291V18.7864L24.289 18.7752L43.5896 18.7639L43.8088 18.6299C44.536 18.1853 44.536 17.1749 43.8088 16.7303L43.5896 16.5963L24.3781 16.5851L5.16667 16.5738V16.4723C5.16667 16.1363 5.27165 15.1622 5.32033 15.0465C5.44037 14.7612 5.74017 14.4997 6.0572 14.4037C6.11858 14.3851 17.3729 14.3732 31.0668 14.3772L55.9648 14.3845L56.1472 14.4815ZM47.335 16.6366C47.0879 16.7253 46.874 16.9046 46.7348 17.1397C46.6295 17.3176 46.6114 17.3972 46.6114 17.6801C46.6114 17.9643 46.6293 18.0423 46.7368 18.2239C46.8801 18.4659 47.148 18.6768 47.3966 18.7433C47.5065 18.7728 48.4415 18.7845 50.0324 18.7764L52.4977 18.7639L52.7169 18.6299C53.4441 18.1853 53.4441 17.1749 52.7169 16.7303L52.4977 16.5963L50 16.5865C47.9905 16.5786 47.4695 16.5884 47.335 16.6366ZM35.0926 24.3738C34.8822 24.4521 34.677 24.5992 34.5699 24.7486C34.4323 24.9407 24.3994 47.0985 24.3502 47.3189C24.2504 47.7664 24.4606 48.2377 24.8722 48.4893C25.3025 48.7523 25.9689 48.6378 26.2817 48.2471C26.432 48.0593 36.4733 25.9245 36.5363 25.642C36.6798 24.9983 36.203 24.3748 35.5343 24.332C35.3634 24.321 35.1906 24.3374 35.0926 24.3738ZM22.5374 25.4904C21.2113 25.7742 20.2052 26.7774 19.9353 28.0848C19.8314 28.5879 19.8318 32.211 19.9358 32.7109C20.163 33.8035 20.9112 34.6926 21.9806 35.1409C22.4047 35.3186 22.831 35.3746 23.7622 35.3746C24.9676 35.3746 25.3555 35.2897 26.0677 34.87C26.6216 34.5437 27.1668 33.9094 27.4152 33.3022C27.6399 32.7532 27.6595 32.5199 27.6595 30.398C27.6595 28.7737 27.6471 28.3656 27.5891 28.0848C27.3183 26.7732 26.2985 25.7602 24.9778 25.4913C24.5287 25.3999 22.9631 25.3993 22.5374 25.4904ZM24.6977 27.7065C24.9797 27.8019 25.2626 28.0829 25.3587 28.363C25.4227 28.5494 25.4325 28.82 25.4325 30.398C25.4325 32.4666 25.4269 32.507 25.0996 32.8321C24.8171 33.1127 24.6147 33.1628 23.7622 33.1628C22.9098 33.1628 22.7073 33.1127 22.4248 32.8321C22.0975 32.507 22.092 32.4666 22.092 30.398C22.092 28.3285 22.0973 28.2891 22.4256 27.9631C22.7066 27.684 22.8809 27.6408 23.7432 27.6367C24.3204 27.634 24.5284 27.6492 24.6977 27.7065ZM35.8994 37.6554C34.5734 37.9391 33.5673 38.9423 33.2974 40.2497C33.1935 40.7529 33.1939 44.3759 33.2979 44.8758C33.4886 45.7928 34.0632 46.594 34.8644 47.0603C35.5539 47.4615 35.9216 47.5395 37.1243 47.5395C38.327 47.5395 38.6946 47.4615 39.3841 47.0603C40.1854 46.594 40.76 45.7928 40.9507 44.8758C41.0547 44.3759 41.055 40.7529 40.9512 40.2497C40.6804 38.9381 39.6605 37.9252 38.3399 37.6563C37.8908 37.5648 36.3251 37.5642 35.8994 37.6554ZM38.0598 39.8714C38.3417 39.9668 38.6247 40.2479 38.7208 40.5279C38.7847 40.7143 38.7945 40.9849 38.7945 42.5629C38.7945 44.6315 38.789 44.672 38.4616 44.9971C38.1792 45.2776 37.9767 45.3277 37.1243 45.3277C36.2718 45.3277 36.0694 45.2776 35.7869 44.9971C35.4595 44.672 35.454 44.6315 35.454 42.5629C35.454 40.4935 35.4594 40.454 35.7877 40.128C36.0687 39.8489 36.243 39.8057 37.1052 39.8017C37.6825 39.7989 37.8905 39.8141 38.0598 39.8714ZM5.02182 54.2353C4.77262 54.3277 4.55998 54.5066 4.4216 54.7404L4.29813 54.949V56.3902V57.8313L4.43304 58.049C4.88063 58.7713 5.89793 58.7713 6.34569 58.0491L6.4806 57.8315L6.49414 56.4923C6.5088 55.0427 6.49463 54.9183 6.28218 54.627C6.0128 54.2577 5.4409 54.08 5.02182 54.2353ZM10.5893 54.2353C10.3401 54.3277 10.1275 54.5066 9.98913 54.7404L9.86566 54.949V56.3902V57.8313L10.0006 58.049C10.4482 58.7713 11.4655 58.7713 11.9132 58.0491L12.0481 57.8315L12.0617 56.4923C12.0763 55.0427 12.0622 54.9183 11.8497 54.627C11.5803 54.2577 11.0084 54.08 10.5893 54.2353ZM16.1569 54.2353C15.9077 54.3277 15.695 54.5066 15.5567 54.7404L15.4332 54.949V56.3902V57.8313L15.5681 58.049C16.0157 58.7713 17.033 58.7713 17.4807 58.0491L17.6157 57.8315L17.6292 56.4923C17.6439 55.0427 17.6297 54.9183 17.4172 54.627C17.1479 54.2577 16.576 54.08 16.1569 54.2353ZM21.7244 54.2353C21.4752 54.3277 21.2626 54.5066 21.1242 54.7404L21.0007 54.949V56.3902V57.8313L21.1356 58.049C21.5832 58.7713 22.6005 58.7713 23.0483 58.0491L23.1832 57.8315L23.1967 56.4923C23.2114 55.0427 23.1972 54.9183 22.9848 54.627C22.7154 54.2577 22.1435 54.08 21.7244 54.2353ZM27.2919 54.2353C27.0427 54.3277 26.8301 54.5066 26.6917 54.7404L26.5682 54.949V56.3902V57.8313L26.7032 58.049C27.1507 58.7713 28.168 58.7713 28.6158 58.0491L28.7507 57.8315L28.7643 56.4923C28.7789 55.0427 28.7647 54.9183 28.5523 54.627C28.2829 54.2577 27.711 54.08 27.2919 54.2353ZM33.973 54.2353C33.7238 54.3277 33.5111 54.5066 33.3727 54.7404L33.2493 54.949V56.3902V57.8313L33.3842 58.049C33.8318 58.7713 34.8491 58.7713 35.2968 58.0491L35.4318 57.8315L35.4453 56.4923C35.4599 55.0427 35.4458 54.9183 35.2333 54.627C34.9639 54.2577 34.3921 54.08 33.973 54.2353ZM39.5405 54.2353C39.2913 54.3277 39.0787 54.5066 38.9403 54.7404L38.8168 54.949V56.3902V57.8313L38.9517 58.049C39.3993 58.7713 40.4166 58.7713 40.8644 58.0491L40.9993 57.8315L41.0128 56.4923C41.0275 55.0427 41.0133 54.9183 40.8009 54.627C40.5315 54.2577 39.9596 54.08 39.5405 54.2353ZM45.108 54.2353C44.8588 54.3277 44.6462 54.5066 44.5078 54.7404L44.3843 54.949V56.3902V57.8313L44.5193 58.049C44.9668 58.7713 45.9841 58.7713 46.4319 58.0491L46.5668 57.8315L46.5803 56.4923C46.595 55.0427 46.5808 54.9183 46.3684 54.627C46.099 54.2577 45.5271 54.08 45.108 54.2353ZM50.6756 54.2353C50.4264 54.3277 50.2137 54.5066 50.0753 54.7404L49.9519 54.949V56.3902V57.8313L50.0868 58.049C50.5344 58.7713 51.5517 58.7713 51.9994 58.0491L52.1343 57.8315L52.1479 56.4923C52.1625 55.0427 52.1484 54.9183 51.9359 54.627C51.6665 54.2577 51.0946 54.08 50.6756 54.2353ZM56.2431 54.2353C55.9939 54.3277 55.7812 54.5066 55.6429 54.7404L55.5194 54.949V56.3902V57.8313L55.6543 58.049C56.1019 58.7713 57.1192 58.7713 57.567 58.0491L57.7019 57.8315L57.7154 56.4923C57.7301 55.0427 57.7159 54.9183 57.5034 54.627C57.2341 54.2577 56.6622 54.08 56.2431 54.2353Z" fill="white"/>
</svg>
