<svg width="19" height="19" viewBox="0 0 19 19" fill="none" xmlns="http://www.w3.org/2000/svg">
<path fill-rule="evenodd" clip-rule="evenodd" d="M-0.000976562 1.29219C-0.000976562 0.580877 0.579901 0 1.29121 0H4.88213C5.59344 0 6.17432 0.580877 6.17432 1.29219C6.17432 2.54385 6.3742 3.74477 6.7437 4.86537L6.74553 4.87093L6.75127 4.8891C6.88877 5.3437 6.77532 5.84133 6.42121 6.18279L6.41744 6.18643C6.41144 6.19221 6.40535 6.1979 6.39917 6.20348L5.39992 7.10614C6.838 9.61201 9.4086 12.0496 11.9387 13.4701L12.8041 12.57C12.8204 12.553 12.8375 12.5368 12.8553 12.5213L12.8661 12.512C13.2176 12.2078 13.686 12.1198 14.1095 12.2477L14.1189 12.2505L14.1337 12.2553C15.2543 12.6248 16.4552 12.8247 17.7068 12.8247C18.4181 12.8247 18.999 13.4056 18.999 14.1169V17.7078C18.999 18.4191 18.4181 19 17.7068 19C7.92589 19 -0.000976562 11.0731 -0.000976562 1.29219ZM1.54143 1.54054C1.67288 10.2735 8.72555 17.3261 17.4585 17.4576V14.3629C16.1829 14.339 14.9523 14.1315 13.793 13.7642L12.645 14.9583C12.41 15.2028 12.0427 15.2648 11.7404 15.111C8.6243 13.5254 5.36095 10.4597 3.74792 7.28961C3.5901 6.97945 3.65985 6.60199 3.91809 6.36871L5.22823 5.1852C4.86503 4.03199 4.65984 2.80849 4.6361 1.54054H1.54143Z" fill="#38384A"/>
</svg>
