<svg width="18" height="19" viewBox="0 0 18 19" fill="none" xmlns="http://www.w3.org/2000/svg">
<g id="Vector">
<path fill-rule="evenodd" clip-rule="evenodd" d="M13.4408 13.3244C14.6516 13.7236 15.9477 13.939 17.2962 13.939C17.5852 13.939 17.8237 14.1776 17.8237 14.4666V18.0961C17.8237 18.385 17.5852 18.6236 17.2962 18.6236C7.84011 18.6236 0.176643 10.9601 0.176643 1.50406C0.176643 1.21508 0.415195 0.97653 0.704171 0.97653H4.33367C4.62265 0.97653 4.8612 1.21508 4.8612 1.50406C4.8612 2.85254 5.07662 4.14863 5.47585 5.35943L5.47769 5.36502C5.53613 5.55822 5.48665 5.75392 5.34887 5.88678L5.34513 5.89039L3.24558 7.99948L3.41295 8.3284C4.9606 11.37 7.61633 13.8509 10.6357 15.3873L10.9831 15.5641L12.902 13.4426L12.9129 13.4331C13.0604 13.3055 13.2549 13.2682 13.4351 13.3226L13.4408 13.3244Z" fill="#F44519"/>
<path fill-rule="evenodd" clip-rule="evenodd" d="M13.4959 13.1568C14.689 13.5502 15.9664 13.7626 17.296 13.7626C17.6824 13.7626 18 14.0801 18 14.4666V18.0961C18 18.4825 17.6824 18.8 17.296 18.8C7.74248 18.8 0 11.0576 0 1.50405C0 1.11761 0.31756 0.800049 0.703999 0.800049H4.3335C4.71994 0.800049 5.0375 1.11761 5.0375 1.50405C5.0375 2.83363 5.24988 4.11108 5.64327 5.30416L5.64648 5.3139C5.72318 5.56746 5.65887 5.83283 5.47119 6.0138L5.46875 6.01616L3.46066 8.03337L3.57006 8.24836C5.09887 11.2529 7.72552 13.7085 10.7156 15.23L10.9427 15.3455L12.7782 13.3162L12.7973 13.2997C12.9919 13.1313 13.2496 13.0823 13.486 13.1536L13.4881 13.1543L13.4959 13.1568ZM12.9129 13.4331L12.902 13.4426L10.9831 15.5641L10.6357 15.3873C7.61633 13.8509 4.9606 11.37 3.41295 8.3284L3.24558 7.99948L5.34513 5.89039L5.34887 5.88678C5.48665 5.75392 5.53613 5.55822 5.47769 5.36502L5.47585 5.35943C5.07662 4.14863 4.8612 2.85254 4.8612 1.50406C4.8612 1.21508 4.62265 0.97653 4.33367 0.97653H0.704171C0.415195 0.97653 0.176643 1.21508 0.176643 1.50406C0.176643 10.9601 7.84011 18.6236 17.2962 18.6236C17.5852 18.6236 17.8237 18.385 17.8237 18.0961V14.4666C17.8237 14.1776 17.5852 13.939 17.2962 13.939C15.9477 13.939 14.6516 13.7236 13.4408 13.3244L13.4351 13.3226C13.2549 13.2682 13.0604 13.3055 12.9129 13.4331Z" fill="#F44519"/>
</g>
</svg>
