<svg width="21" height="17" viewBox="0 0 21 17" fill="none" xmlns="http://www.w3.org/2000/svg">
<path fill-rule="evenodd" clip-rule="evenodd" d="M13.5253 2.35157C10.0643 3.64246 5.79214 5.2348 4.03156 5.8902C2.27099 6.54554 0.7115 7.14406 0.566058 7.22027C-0.0537426 7.54507 -0.178337 7.98526 0.260617 8.29981C0.338427 8.35558 1.55236 8.75309 2.95826 9.18325L5.51439 9.96529L10.9699 6.63659C13.9704 4.80581 16.5359 3.25091 16.6708 3.18125C16.9765 3.02361 17.2926 3.02994 17.3169 3.19419C17.3294 3.27864 16.3319 4.17285 12.7884 7.25365C10.073 9.61451 8.23441 11.2502 8.22046 11.3175C8.19474 11.442 7.9137 15.6212 7.91551 15.8533C7.91687 16.0311 8.01072 16.0388 8.35298 15.889C8.5103 15.8201 8.88184 15.5141 9.39264 15.0327C9.82979 14.6206 10.4129 14.072 10.6885 13.8135L11.1896 13.3434L13.6155 15.0753C14.9497 16.0279 16.14 16.8505 16.2607 16.9034C16.5597 17.0345 17.019 17.0318 17.2439 16.8976C17.6312 16.6666 17.6281 16.6772 18.6094 12.196C18.8353 11.1649 19.4652 8.30113 20.0094 5.83216C20.655 2.9024 20.9992 1.23269 21 1.02514C21.0019 0.540535 20.8465 0.24917 20.491 0.0706118C20.1274 -0.11196 20.151 -0.11967 13.5253 2.35157Z" fill="#9797A0"/>
</svg>
